RecursiveSans-CasualSemiBold.ufo
<glyph name="exclam" format="1">
  <advance width="350"/>
  <unicode hex="0021"/>
  <outline>
    <contour>
      <point x="223" y="273" type="line"/>
      <point x="236" y="342"/>
      <point x="246" y="439"/>
      <point x="246" y="509" type="curve"/>
      <point x="246" y="651" type="line" smooth="yes"/>
      <point x="246" y="693"/>
      <point x="205" y="710"/>
      <point x="144" y="710" type="curve" smooth="yes"/>
      <point x="125" y="710"/>
      <point x="110" y="709"/>
      <point x="93" y="704" type="curve"/>
      <point x="101" y="669"/>
      <point x="104" y="632"/>
      <point x="104" y="593" type="curve" smooth="yes"/>
      <point x="104" y="512" type="line"/>
      <point x="104" y="419"/>
      <point x="114" y="316"/>
      <point x="133" y="297" type="curve" smooth="yes"/>
      <point x="149" y="281"/>
      <point x="175" y="273"/>
      <point x="211" y="273" type="curve"/>
    </contour>
    <contour>
      <point x="265" y="0" type="curve"/>
      <point x="265" y="112" type="line" smooth="yes"/>
      <point x="265" y="165"/>
      <point x="211" y="178"/>
      <point x="154" y="178" type="curve" smooth="yes"/>
      <point x="131" y="178"/>
      <point x="106" y="175"/>
      <point x="85" y="169" type="curve"/>
      <point x="85" y="57" type="line" smooth="yes"/>
      <point x="85" y="4"/>
      <point x="139" y="-9"/>
      <point x="196" y="-9" type="curve" smooth="yes"/>
      <point x="219" y="-9"/>
      <point x="244" y="-6"/>
    </contour>
  </outline>
</glyph>
<glyph name="quotedbl" format="1">
  <advance width="600"/>
  <unicode hex="0022"/>
  <outline>
    <contour>
      <point x="236" y="443" type="curve"/>
      <point x="248" y="656" type="line" smooth="yes"/>
      <point x="253" y="722"/>
      <point x="220" y="754"/>
      <point x="142" y="754" type="curve" smooth="yes"/>
      <point x="126" y="754"/>
      <point x="113" y="753"/>
      <point x="100" y="750" type="curve"/>
      <point x="109" y="726"/>
      <point x="113" y="704"/>
      <point x="116" y="651" type="curve" smooth="yes"/>
      <point x="126" y="491" type="line" smooth="yes"/>
      <point x="128" y="454"/>
      <point x="147" y="439"/>
      <point x="195" y="439" type="curve" smooth="yes"/>
      <point x="211" y="439"/>
      <point x="225" y="441"/>
    </contour>
    <contour>
      <point x="469" y="443" type="curve"/>
      <point x="483" y="652" type="line" smooth="yes"/>
      <point x="489" y="722"/>
      <point x="455" y="754"/>
      <point x="384" y="754" type="curve" smooth="yes"/>
      <point x="369" y="754"/>
      <point x="358" y="753"/>
      <point x="345" y="751" type="curve"/>
      <point x="361" y="491" type="line"/>
      <point x="363" y="454"/>
      <point x="383" y="439"/>
      <point x="430" y="439" type="curve" smooth="yes"/>
      <point x="446" y="439"/>
      <point x="458" y="441"/>
    </contour>
  </outline>
</glyph>
<glyph name="dollar" format="1">
  <advance width="600"/>
  <unicode hex="0024"/>
  <outline>
    <contour>
      <point x="371" y="720" type="curve" smooth="yes"/>
      <point x="206" y="720"/>
      <point x="77" y="620"/>
      <point x="77" y="499" type="curve" smooth="yes"/>
      <point x="77" y="487" type="line" smooth="yes"/>
      <point x="77" y="460"/>
      <point x="134" y="433"/>
      <point x="193" y="431" type="curve"/>
      <point x="187" y="453"/>
      <point x="186" y="476"/>
      <point x="186" y="497" type="curve" smooth="yes"/>
      <point x="186" y="562"/>
      <point x="286" y="604"/>
      <point x="377" y="604" type="curve" smooth="yes"/>
      <point x="440" y="604"/>
      <point x="478" y="591"/>
      <point x="513" y="566" type="curve"/>
      <point x="517" y="566" type="line"/>
      <point x="527" y="587"/>
      <point x="532" y="608"/>
      <point x="532" y="627" type="curve" smooth="yes"/>
      <point x="532" y="648"/>
      <point x="530" y="668"/>
      <point x="513" y="685" type="curve" smooth="yes"/>
      <point x="491" y="707"/>
      <point x="442" y="720"/>
    </contour>
    <contour>
      <point x="384" y="365" type="curve" smooth="yes"/>
      <point x="294" y="398" type="line" smooth="yes"/>
      <point x="202" y="431"/>
      <point x="186" y="460"/>
      <point x="186" y="497" type="curve" smooth="yes"/>
      <point x="186" y="524"/>
      <point x="188" y="543"/>
      <point x="194" y="567" type="curve"/>
      <point x="132" y="563"/>
      <point x="77" y="543"/>
      <point x="77" y="487" type="curve" smooth="yes"/>
      <point x="77" y="420"/>
      <point x="110" y="357"/>
      <point x="259" y="301" type="curve" smooth="yes"/>
      <point x="348" y="268" type="line" smooth="yes"/>
      <point x="423" y="240"/>
      <point x="447" y="208"/>
      <point x="447" y="143" type="curve" smooth="yes"/>
      <point x="447" y="129"/>
      <point x="447" y="124"/>
      <point x="447" y="120" type="curve"/>
      <point x="491" y="122"/>
      <point x="548" y="159"/>
      <point x="548" y="188" type="curve"/>
      <point x="548" y="247"/>
      <point x="507" y="320"/>
    </contour>
    <contour>
      <point x="300" y="-17" type="curve" smooth="yes"/>
      <point x="459" y="-17"/>
      <point x="548" y="66"/>
      <point x="548" y="176" type="curve" smooth="yes"/>
      <point x="548" y="188" type="line" smooth="yes"/>
      <point x="548" y="208"/>
      <point x="506" y="233"/>
      <point x="475" y="235" type="curve"/>
      <point x="475" y="231"/>
      <point x="475" y="228"/>
      <point x="475" y="221" type="curve" smooth="yes"/>
      <point x="475" y="153"/>
      <point x="400" y="98"/>
      <point x="300" y="98" type="curve" smooth="yes"/>
      <point x="196" y="98"/>
      <point x="124" y="129"/>
      <point x="70" y="188" type="curve"/>
      <point x="66" y="188" type="line"/>
      <point x="62" y="173"/>
      <point x="59" y="156"/>
      <point x="59" y="134" type="curve" smooth="yes"/>
      <point x="59" y="91"/>
      <point x="70" y="60"/>
      <point x="89" y="42" type="curve" smooth="yes"/>
      <point x="124" y="6"/>
      <point x="206" y="-17"/>
    </contour>
    <contour>
      <point x="356" y="426" type="line"/>
      <point x="423" y="790" type="line" smooth="yes"/>
      <point x="435" y="851"/>
      <point x="412" y="885"/>
      <point x="352" y="885" type="curve" smooth="yes"/>
      <point x="339" y="885"/>
      <point x="319" y="882"/>
      <point x="305" y="877" type="curve"/>
      <point x="315" y="850"/>
      <point x="321" y="824"/>
      <point x="319" y="782" type="curve"/>
      <point x="306" y="468" type="line" smooth="yes"/>
      <point x="305" y="442"/>
      <point x="329" y="426"/>
      <point x="352" y="426" type="curve" smooth="yes"/>
    </contour>
    <contour>
      <point x="274" y="241" type="line"/>
      <point x="209" y="-100" type="line" smooth="yes"/>
      <point x="195" y="-161"/>
      <point x="219" y="-195"/>
      <point x="279" y="-195" type="curve" smooth="yes"/>
      <point x="292" y="-195"/>
      <point x="313" y="-192"/>
      <point x="326" y="-187" type="curve"/>
      <point x="317" y="-160"/>
      <point x="311" y="-134"/>
      <point x="312" y="-92" type="curve"/>
      <point x="324" y="199" type="line" smooth="yes"/>
      <point x="325" y="226"/>
      <point x="301" y="241"/>
      <point x="278" y="241" type="curve" smooth="yes"/>
    </contour>
  </outline>
</glyph>
<glyph name="ampersand" format="1">
  <advance width="600"/>
  <unicode hex="0026"/>
  <outline>
    <contour>
      <point x="325" y="710" type="curve" smooth="yes"/>
      <point x="196" y="710"/>
      <point x="108" y="617"/>
      <point x="108" y="530" type="curve" smooth="yes"/>
      <point x="108" y="497"/>
      <point x="133" y="467"/>
      <point x="199" y="467" type="curve"/>
      <point x="196" y="479"/>
      <point x="196" y="486"/>
      <point x="196" y="500" type="curve" smooth="yes"/>
      <point x="196" y="557"/>
      <point x="250" y="594"/>
      <point x="326" y="594" type="curve" smooth="yes"/>
      <point x="391" y="594"/>
      <point x="437" y="581"/>
      <point x="475" y="556" type="curve"/>
      <point x="479" y="556" type="line"/>
      <point x="485" y="569"/>
      <point x="488" y="587"/>
      <point x="488" y="606" type="curve"/>
      <point x="488" y="636"/>
      <point x="479" y="660"/>
      <point x="462" y="678" type="curve" smooth="yes"/>
      <point x="441" y="698"/>
      <point x="397" y="710"/>
    </contour>
    <contour>
      <point x="256" y="377" type="curve" smooth="yes"/>
      <point x="229" y="431"/>
      <point x="216" y="485"/>
      <point x="216" y="525" type="curve" smooth="yes"/>
      <point x="216" y="563"/>
      <point x="222" y="588"/>
      <point x="238" y="618" type="curve"/>
      <point x="176" y="633"/>
      <point x="108" y="594"/>
      <point x="108" y="530" type="curve" smooth="yes"/>
      <point x="108" y="527" type="line" smooth="yes"/>
      <point x="108" y="471"/>
      <point x="129" y="406"/>
      <point x="167" y="335" type="curve" smooth="yes"/>
      <point x="215" y="248"/>
      <point x="282" y="157"/>
      <point x="349" y="90" type="curve" smooth="yes"/>
      <point x="429" y="10"/>
      <point x="479" y="-10"/>
      <point x="517" y="-10" type="curve" smooth="yes"/>
      <point x="521" y="-10" type="line" smooth="yes"/>
      <point x="560" y="-10"/>
      <point x="578" y="13"/>
      <point x="578" y="71" type="curve" smooth="yes"/>
      <point x="578" y="92"/>
      <point x="576" y="110"/>
      <point x="572" y="125" type="curve"/>
      <point x="568" y="125" type="line"/>
      <point x="556" y="116"/>
      <point x="544" y="112"/>
      <point x="523" y="112" type="curve" smooth="yes"/>
      <point x="487" y="112"/>
      <point x="440" y="136"/>
      <point x="401" y="175" type="curve" smooth="yes"/>
      <point x="344" y="232"/>
      <point x="288" y="308"/>
    </contour>
    <contour>
      <point x="207" y="-9" type="curve" smooth="yes"/>
      <point x="295" y="-9"/>
      <point x="345" y="27"/>
      <point x="377" y="81" type="curve" smooth="yes"/>
      <point x="386" y="100"/>
      <point x="370" y="134"/>
      <point x="340" y="148" type="curve"/>
      <point x="308" y="109"/>
      <point x="278" y="94"/>
      <point x="225" y="94" type="curve" smooth="yes"/>
      <point x="168" y="94"/>
      <point x="139" y="137"/>
      <point x="139" y="190" type="curve" smooth="yes"/>
      <point x="139" y="193" type="line" smooth="yes"/>
      <point x="139" y="254"/>
      <point x="177" y="282"/>
      <point x="237" y="291" type="curve"/>
      <point x="227" y="321"/>
      <point x="209" y="364"/>
      <point x="183" y="359" type="curve" smooth="yes"/>
      <point x="110" y="344"/>
      <point x="30" y="284"/>
      <point x="30" y="170" type="curve" smooth="yes"/>
      <point x="30" y="166" type="line" smooth="yes"/>
      <point x="30" y="63"/>
      <point x="98" y="-9"/>
    </contour>
    <contour>
      <point x="454" y="410" type="curve" smooth="yes"/>
      <point x="441" y="410"/>
      <point x="431" y="408"/>
      <point x="424" y="406" type="curve"/>
      <point x="424" y="396"/>
      <point x="424" y="386"/>
      <point x="424" y="374" type="curve" smooth="yes"/>
      <point x="424" y="302"/>
      <point x="408" y="245"/>
      <point x="370" y="188" type="curve" smooth="yes"/>
      <point x="357" y="166"/>
      <point x="384" y="139"/>
      <point x="424" y="136" type="curve"/>
      <point x="502" y="204"/>
      <point x="542" y="280"/>
      <point x="542" y="346" type="curve" smooth="yes"/>
      <point x="542" y="358" type="line" smooth="yes"/>
      <point x="542" y="389"/>
      <point x="507" y="410"/>
    </contour>
  </outline>
</glyph>
<glyph name="quotesingle" format="1">
  <advance width="250"/>
  <unicode hex="0027"/>
  <outline>
    <contour>
      <point x="186" y="443" type="curve"/>
      <point x="199" y="652" type="line" smooth="yes"/>
      <point x="203" y="722"/>
      <point x="170" y="754"/>
      <point x="91" y="754" type="curve" smooth="yes"/>
      <point x="77" y="754"/>
      <point x="63" y="753"/>
      <point x="51" y="750" type="curve"/>
      <point x="59" y="726"/>
      <point x="63" y="704"/>
      <point x="66" y="651" type="curve" smooth="yes"/>
      <point x="76" y="491" type="line" smooth="yes"/>
      <point x="79" y="454"/>
      <point x="98" y="439"/>
      <point x="145" y="439" type="curve" smooth="yes"/>
      <point x="161" y="439"/>
      <point x="175" y="441"/>
    </contour>
  </outline>
</glyph>
<glyph name="parenleft" format="1">
  <advance width="400"/>
  <unicode hex="0028"/>
  <outline>
    <contour>
      <point x="241" y="734" type="curve" smooth="yes"/>
      <point x="138" y="631"/>
      <point x="82" y="476"/>
      <point x="82" y="302" type="curve" smooth="yes"/>
      <point x="82" y="295" type="line" smooth="yes"/>
      <point x="82" y="122"/>
      <point x="139" y="-35"/>
      <point x="241" y="-136" type="curve" smooth="yes"/>
      <point x="266" y="-161"/>
      <point x="288" y="-173"/>
      <point x="316" y="-173" type="curve" smooth="yes"/>
      <point x="357" y="-173"/>
      <point x="388" y="-160"/>
      <point x="410" y="-145" type="curve"/>
      <point x="410" y="-141" type="line"/>
      <point x="275" y="-30"/>
      <point x="211" y="127"/>
      <point x="211" y="295" type="curve" smooth="yes"/>
      <point x="211" y="302" type="line" smooth="yes"/>
      <point x="211" y="470"/>
      <point x="275" y="627"/>
      <point x="410" y="738" type="curve"/>
      <point x="410" y="742" type="line"/>
      <point x="388" y="758"/>
      <point x="357" y="770"/>
      <point x="316" y="770" type="curve" smooth="yes"/>
      <point x="288" y="770"/>
      <point x="266" y="759"/>
    </contour>
  </outline>
</glyph>
<glyph name="parenright" format="1">
  <advance width="400"/>
  <unicode hex="0029"/>
  <outline>
    <contour>
      <point x="159" y="-134" type="curve" smooth="yes"/>
      <point x="262" y="-31"/>
      <point x="318" y="124"/>
      <point x="318" y="298" type="curve" smooth="yes"/>
      <point x="318" y="305" type="line" smooth="yes"/>
      <point x="318" y="478"/>
      <point x="261" y="635"/>
      <point x="159" y="736" type="curve" smooth="yes"/>
      <point x="134" y="761"/>
      <point x="112" y="773"/>
      <point x="84" y="773" type="curve" smooth="yes"/>
      <point x="43" y="773"/>
      <point x="12" y="760"/>
      <point x="-10" y="745" type="curve"/>
      <point x="-10" y="741" type="line"/>
      <point x="125" y="630"/>
      <point x="189" y="473"/>
      <point x="189" y="305" type="curve" smooth="yes"/>
      <point x="189" y="298" type="line" smooth="yes"/>
      <point x="189" y="130"/>
      <point x="125" y="-27"/>
      <point x="-10" y="-138" type="curve"/>
      <point x="-10" y="-142" type="line"/>
      <point x="12" y="-158"/>
      <point x="43" y="-170"/>
      <point x="84" y="-170" type="curve" smooth="yes"/>
      <point x="112" y="-170"/>
      <point x="134" y="-159"/>
    </contour>
  </outline>
</glyph>
<glyph name="asterisk" format="1">
  <advance width="500"/>
  <unicode hex="002A"/>
  <outline>
    <contour>
      <point x="197" y="763" type="curve"/>
      <point x="205" y="743"/>
      <point x="211" y="725"/>
      <point x="214" y="696" type="curve" smooth="yes"/>
      <point x="231" y="555" type="line"/>
      <point x="207" y="420" type="line" smooth="yes"/>
      <point x="196" y="371"/>
      <point x="215" y="341"/>
      <point x="265" y="341" type="curve"/>
      <point x="277" y="341"/>
      <point x="290" y="344"/>
      <point x="302" y="348" type="curve"/>
      <point x="295" y="368"/>
      <point x="289" y="386"/>
      <point x="286" y="414" type="curve" smooth="yes"/>
      <point x="270" y="555" type="line"/>
      <point x="293" y="691" type="line" smooth="yes"/>
      <point x="303" y="742"/>
      <point x="285" y="770"/>
      <point x="235" y="770" type="curve" smooth="yes"/>
      <point x="223" y="770"/>
      <point x="210" y="768"/>
    </contour>
    <contour>
      <point x="411" y="698" type="curve"/>
      <point x="236" y="574" type="line"/>
      <point x="80" y="508" type="line" smooth="yes"/>
      <point x="56" y="498"/>
      <point x="53" y="471"/>
      <point x="70" y="443" type="curve"/>
      <point x="76" y="432"/>
      <point x="83" y="424"/>
      <point x="90" y="416" type="curve"/>
      <point x="263" y="541" type="line"/>
      <point x="421" y="607" type="line" smooth="yes"/>
      <point x="445" y="617"/>
      <point x="448" y="642"/>
      <point x="431" y="672" type="curve" smooth="yes"/>
      <point x="426" y="681"/>
      <point x="421" y="688"/>
    </contour>
    <contour>
      <point x="452" y="489" type="curve"/>
      <point x="263" y="574" type="line"/>
      <point x="122" y="679" type="line" smooth="yes"/>
      <point x="101" y="695"/>
      <point x="78" y="685"/>
      <point x="60" y="656" type="curve"/>
      <point x="54" y="647"/>
      <point x="51" y="635"/>
      <point x="48" y="625" type="curve"/>
      <point x="236" y="541" type="line"/>
      <point x="378" y="435" type="line" smooth="yes"/>
      <point x="399" y="419"/>
      <point x="422" y="428"/>
      <point x="440" y="459" type="curve"/>
      <point x="444" y="467"/>
      <point x="448" y="476"/>
    </contour>
  </outline>
</glyph>
<glyph name="plus" format="1">
  <advance width="600"/>
  <unicode hex="002B"/>
  <outline>
    <contour>
      <point x="53" y="358" type="line"/>
      <point x="53" y="353"/>
      <point x="53" y="348"/>
      <point x="53" y="342" type="curve" smooth="yes"/>
      <point x="53" y="298"/>
      <point x="59" y="272"/>
      <point x="74" y="257" type="curve" smooth="yes"/>
      <point x="85" y="246"/>
      <point x="99" y="242"/>
      <point x="131" y="242" type="curve"/>
      <point x="549" y="242" type="line"/>
      <point x="552" y="257"/>
      <point x="554" y="273"/>
      <point x="554" y="287" type="curve" smooth="yes"/>
      <point x="554" y="338"/>
      <point x="541" y="358"/>
      <point x="498" y="358" type="curve"/>
    </contour>
    <contour>
      <point x="358" y="57" type="curve"/>
      <point x="358" y="445" type="line" smooth="yes"/>
      <point x="358" y="488"/>
      <point x="353" y="506"/>
      <point x="336" y="523" type="curve" smooth="yes"/>
      <point x="318" y="541"/>
      <point x="288" y="547"/>
      <point x="264" y="547" type="curve" smooth="yes"/>
      <point x="253" y="547"/>
      <point x="241" y="546"/>
      <point x="231" y="543" type="curve"/>
      <point x="240" y="510"/>
      <point x="243" y="485"/>
      <point x="243" y="443" type="curve" smooth="yes"/>
      <point x="243" y="102" type="line" smooth="yes"/>
      <point x="243" y="60"/>
      <point x="272" y="53"/>
      <point x="317" y="53" type="curve" smooth="yes"/>
      <point x="333" y="53"/>
      <point x="348" y="55"/>
    </contour>
  </outline>
</glyph>
<glyph name="comma" format="1">
  <advance width="350"/>
  <unicode hex="002C"/>
  <outline>
    <contour>
      <point x="146" y="-197" type="curve" smooth="yes"/>
      <point x="165" y="-197"/>
      <point x="174" y="-193"/>
      <point x="184" y="-184" type="curve"/>
      <point x="239" y="-129"/>
      <point x="289" y="-13"/>
      <point x="289" y="87" type="curve"/>
      <point x="289" y="134"/>
      <point x="258" y="151"/>
      <point x="192" y="151" type="curve" smooth="yes"/>
      <point x="171" y="151"/>
      <point x="156" y="149"/>
      <point x="134" y="143" type="curve"/>
      <point x="134" y="6"/>
      <point x="112" y="-84"/>
      <point x="61" y="-170" type="curve"/>
      <point x="86" y="-189"/>
      <point x="109" y="-197"/>
    </contour>
  </outline>
</glyph>
<glyph name="hyphen" format="1">
  <advance width="600"/>
  <unicode hex="002D"/>
  <outline>
    <contour>
      <point x="103" y="357" type="line"/>
      <point x="103" y="352"/>
      <point x="103" y="347"/>
      <point x="103" y="341" type="curve" smooth="yes"/>
      <point x="103" y="297"/>
      <point x="110" y="271"/>
      <point x="124" y="256" type="curve" smooth="yes"/>
      <point x="135" y="245"/>
      <point x="150" y="242"/>
      <point x="182" y="242" type="curve"/>
      <point x="500" y="242" type="line"/>
      <point x="502" y="256"/>
      <point x="504" y="273"/>
      <point x="504" y="286" type="curve" smooth="yes"/>
      <point x="504" y="337"/>
      <point x="492" y="357"/>
      <point x="449" y="357" type="curve"/>
    </contour>
  </outline>
</glyph>
<glyph name="period" format="1">
  <advance width="300"/>
  <unicode hex="002E"/>
  <outline>
    <contour>
      <point x="240" y="0" type="curve"/>
      <point x="240" y="112" type="line" smooth="yes"/>
      <point x="240" y="165"/>
      <point x="186" y="178"/>
      <point x="129" y="178" type="curve" smooth="yes"/>
      <point x="106" y="178"/>
      <point x="81" y="175"/>
      <point x="60" y="169" type="curve"/>
      <point x="60" y="57" type="line" smooth="yes"/>
      <point x="60" y="4"/>
      <point x="114" y="-9"/>
      <point x="171" y="-9" type="curve" smooth="yes"/>
      <point x="194" y="-9"/>
      <point x="219" y="-6"/>
    </contour>
  </outline>
</glyph>
<glyph name="slash" format="1">
  <advance width="600"/>
  <unicode hex="002F"/>
  <outline>
    <contour>
      <point x="544" y="751" type="curve"/>
      <point x="525" y="760"/>
      <point x="510" y="764"/>
      <point x="489" y="764" type="curve" smooth="yes"/>
      <point x="445" y="764"/>
      <point x="414" y="748"/>
      <point x="407" y="716" type="curve" smooth="yes"/>
      <point x="342" y="442"/>
      <point x="244" y="190"/>
      <point x="114" y="-40" type="curve" smooth="yes"/>
      <point x="95" y="-74"/>
      <point x="79" y="-98"/>
      <point x="58" y="-120" type="curve"/>
      <point x="79" y="-132"/>
      <point x="98" y="-136"/>
      <point x="124" y="-136" type="curve" smooth="yes"/>
      <point x="166" y="-136"/>
      <point x="197" y="-118"/>
      <point x="223" y="-75" type="curve"/>
      <point x="365" y="164"/>
      <point x="472" y="439"/>
    </contour>
  </outline>
</glyph>
<glyph name="zero" format="1">
  <advance width="600"/>
  <unicode hex="0030"/>
  <outline>
    <contour>
      <point x="307" y="720" type="curve" smooth="yes"/>
      <point x="163" y="720"/>
      <point x="59" y="581"/>
      <point x="59" y="355" type="curve" smooth="yes"/>
      <point x="59" y="312" type="line" smooth="yes"/>
      <point x="59" y="104"/>
      <point x="157" y="-20"/>
      <point x="293" y="-20" type="curve"/>
      <point x="333" y="-20"/>
      <point x="355" y="11"/>
      <point x="355" y="52" type="curve"/>
      <point x="220" y="59"/>
      <point x="174" y="154"/>
      <point x="174" y="291" type="curve" smooth="yes"/>
      <point x="174" y="335" type="line" smooth="yes"/>
      <point x="174" y="489"/>
      <point x="223" y="605"/>
      <point x="319" y="605" type="curve" smooth="yes"/>
      <point x="369" y="605"/>
      <point x="387" y="600"/>
      <point x="417" y="583" type="curve"/>
      <point x="448" y="625"/>
      <point x="383" y="720"/>
    </contour>
    <contour>
      <point x="293" y="-20" type="curve" smooth="yes"/>
      <point x="437" y="-20"/>
      <point x="541" y="106"/>
      <point x="541" y="312" type="curve" smooth="yes"/>
      <point x="541" y="355" type="line" smooth="yes"/>
      <point x="541" y="584"/>
      <point x="450" y="720"/>
      <point x="307" y="720" type="curve"/>
      <point x="267" y="720"/>
      <point x="245" y="689"/>
      <point x="245" y="648" type="curve"/>
      <point x="380" y="641"/>
      <point x="426" y="536"/>
      <point x="426" y="376" type="curve" smooth="yes"/>
      <point x="426" y="332" type="line" smooth="yes"/>
      <point x="426" y="197"/>
      <point x="377" y="95"/>
      <point x="281" y="95" type="curve" smooth="yes"/>
      <point x="231" y="95"/>
      <point x="213" y="100"/>
      <point x="183" y="117" type="curve"/>
      <point x="152" y="75"/>
      <point x="219" y="-20"/>
    </contour>
  </outline>
</glyph>
<glyph name="one" format="1">
  <advance width="600"/>
  <unicode hex="0031"/>
  <outline>
    <contour>
      <point x="393" y="59" type="curve"/>
      <point x="393" y="264"/>
      <point x="393" y="469"/>
      <point x="393" y="673" type="curve" smooth="yes"/>
      <point x="393" y="701"/>
      <point x="349" y="710"/>
      <point x="297" y="710" type="curve" smooth="yes"/>
      <point x="277" y="710" type="line"/>
      <point x="277" y="537"/>
      <point x="277" y="359"/>
      <point x="277" y="186" type="curve" smooth="yes"/>
      <point x="277" y="90"/>
      <point x="328" y="59"/>
    </contour>
    <contour>
      <point x="80" y="116" type="line"/>
      <point x="79" y="110"/>
      <point x="79" y="105"/>
      <point x="79" y="98" type="curve" smooth="yes"/>
      <point x="79" y="55"/>
      <point x="85" y="30"/>
      <point x="99" y="16" type="curve" smooth="yes"/>
      <point x="110" y="4"/>
      <point x="125" y="0"/>
      <point x="159" y="0" type="curve" smooth="yes"/>
      <point x="555" y="0" type="line"/>
      <point x="558" y="10"/>
      <point x="559" y="20"/>
      <point x="559" y="31" type="curve" smooth="yes"/>
      <point x="559" y="80"/>
      <point x="494" y="116"/>
      <point x="373" y="116" type="curve" smooth="yes"/>
    </contour>
    <contour>
      <point x="124" y="431" type="curve" smooth="yes"/>
      <point x="152" y="431"/>
      <point x="192" y="456"/>
      <point x="226" y="490" type="curve" smooth="yes"/>
      <point x="274" y="538"/>
      <point x="306" y="609"/>
      <point x="306" y="660" type="curve" smooth="yes"/>
      <point x="306" y="695"/>
      <point x="291" y="710"/>
      <point x="280" y="710" type="curve"/>
      <point x="264" y="710" type="line"/>
      <point x="242" y="675"/>
      <point x="220" y="645"/>
      <point x="192" y="617" type="curve"/>
      <point x="159" y="584"/>
      <point x="125" y="558"/>
      <point x="83" y="538" type="curve"/>
      <point x="83" y="520" type="line" smooth="yes"/>
      <point x="83" y="463"/>
      <point x="102" y="431"/>
    </contour>
  </outline>
</glyph>
<glyph name="two" format="1">
  <advance width="600"/>
  <unicode hex="0032"/>
  <outline>
    <contour>
      <point x="359" y="628" type="curve"/>
      <point x="396" y="593"/>
      <point x="408" y="572"/>
      <point x="408" y="523" type="curve" smooth="yes"/>
      <point x="408" y="454"/>
      <point x="372" y="406"/>
      <point x="268" y="339" type="curve" smooth="yes"/>
      <point x="123" y="245"/>
      <point x="59" y="177"/>
      <point x="59" y="93" type="curve" smooth="yes"/>
      <point x="59" y="63"/>
      <point x="84" y="51"/>
      <point x="151" y="51" type="curve"/>
      <point x="151" y="130"/>
      <point x="180" y="168"/>
      <point x="327" y="256" type="curve" smooth="yes"/>
      <point x="460" y="336"/>
      <point x="526" y="411"/>
      <point x="526" y="519" type="curve" smooth="yes"/>
      <point x="526" y="523" type="line" smooth="yes"/>
      <point x="526" y="614"/>
      <point x="466" y="670"/>
    </contour>
    <contour>
      <point x="538" y="0" type="line"/>
      <point x="541" y="14"/>
      <point x="543" y="30"/>
      <point x="543" y="45" type="curve" smooth="yes"/>
      <point x="543" y="96"/>
      <point x="530" y="116"/>
      <point x="487" y="116" type="curve" smooth="yes"/>
      <point x="175" y="116" type="line" smooth="yes"/>
      <point x="125" y="116"/>
      <point x="91" y="110"/>
      <point x="59" y="93" type="curve"/>
      <point x="59" y="91"/>
      <point x="59" y="90"/>
      <point x="59" y="89" type="curve" smooth="yes"/>
      <point x="59" y="53"/>
      <point x="87" y="0"/>
      <point x="114" y="0" type="curve" smooth="yes"/>
    </contour>
    <contour>
      <point x="305" y="720" type="curve" smooth="yes"/>
      <point x="225" y="720"/>
      <point x="160" y="699"/>
      <point x="126" y="665" type="curve" smooth="yes"/>
      <point x="100" y="639"/>
      <point x="85" y="602"/>
      <point x="85" y="562" type="curve" smooth="yes"/>
      <point x="85" y="538"/>
      <point x="93" y="517"/>
      <point x="103" y="504" type="curve"/>
      <point x="108" y="504" type="line"/>
      <point x="155" y="572"/>
      <point x="221" y="604"/>
      <point x="310" y="604" type="curve" smooth="yes"/>
      <point x="397" y="604"/>
      <point x="457" y="565"/>
      <point x="457" y="511" type="curve" smooth="yes"/>
      <point x="457" y="491"/>
      <point x="454" y="473"/>
      <point x="448" y="454" type="curve"/>
      <point x="495" y="454"/>
      <point x="526" y="483"/>
      <point x="526" y="523" type="curve" smooth="yes"/>
      <point x="526" y="645"/>
      <point x="436" y="720"/>
    </contour>
  </outline>
</glyph>
<glyph name="three" format="1">
  <advance width="600"/>
  <unicode hex="0033"/>
  <outline>
    <contour>
      <point x="286" y="604" type="curve" smooth="yes"/>
      <point x="397" y="604"/>
      <point x="458" y="548"/>
      <point x="458" y="472" type="curve" smooth="yes"/>
      <point x="458" y="461"/>
      <point x="457" y="452"/>
      <point x="455" y="441" type="curve"/>
      <point x="486" y="443"/>
      <point x="531" y="500"/>
      <point x="531" y="531" type="curve" smooth="yes"/>
      <point x="531" y="543" type="line" smooth="yes"/>
      <point x="531" y="643"/>
      <point x="443" y="720"/>
      <point x="300" y="720" type="curve" smooth="yes"/>
      <point x="214" y="720"/>
      <point x="141" y="693"/>
      <point x="109" y="661" type="curve" smooth="yes"/>
      <point x="85" y="637"/>
      <point x="77" y="615"/>
      <point x="77" y="571" type="curve" smooth="yes"/>
      <point x="77" y="548"/>
      <point x="79" y="533"/>
      <point x="84" y="515" type="curve"/>
      <point x="88" y="515" type="line"/>
      <point x="144" y="577"/>
      <point x="199" y="604"/>
    </contour>
    <contour>
      <point x="210" y="313" type="curve" smooth="yes"/>
      <point x="413" y="313"/>
      <point x="530" y="424"/>
      <point x="530" y="531" type="curve" smooth="yes"/>
      <point x="530" y="564"/>
      <point x="466" y="600"/>
      <point x="431" y="601" type="curve"/>
      <point x="432" y="594"/>
      <point x="432" y="587"/>
      <point x="432" y="577" type="curve" smooth="yes"/>
      <point x="432" y="439"/>
      <point x="329" y="382"/>
      <point x="173" y="382" type="curve"/>
      <point x="170" y="368"/>
      <point x="169" y="360"/>
      <point x="169" y="341" type="curve" smooth="yes"/>
      <point x="169" y="321"/>
      <point x="197" y="313"/>
    </contour>
    <contour>
      <point x="208" y="278" type="curve" smooth="yes"/>
      <point x="338" y="272"/>
      <point x="443" y="225"/>
      <point x="443" y="144" type="curve" smooth="yes"/>
      <point x="443" y="136"/>
      <point x="443" y="130"/>
      <point x="442" y="124" type="curve"/>
      <point x="486" y="126"/>
      <point x="541" y="148"/>
      <point x="541" y="169" type="curve" smooth="yes"/>
      <point x="541" y="296"/>
      <point x="386" y="353"/>
      <point x="174" y="353" type="curve"/>
      <point x="172" y="347"/>
      <point x="169" y="346"/>
      <point x="169" y="341" type="curve" smooth="yes"/>
      <point x="169" y="299"/>
      <point x="179" y="279"/>
    </contour>
    <contour>
      <point x="286" y="96" type="curve" smooth="yes"/>
      <point x="192" y="96"/>
      <point x="129" y="121"/>
      <point x="71" y="185" type="curve"/>
      <point x="67" y="185" type="line"/>
      <point x="62" y="167"/>
      <point x="61" y="152"/>
      <point x="61" y="129" type="curve" smooth="yes"/>
      <point x="61" y="85"/>
      <point x="68" y="63"/>
      <point x="90" y="40" type="curve" smooth="yes"/>
      <point x="126" y="4"/>
      <point x="206" y="-20"/>
      <point x="300" y="-20" type="curve" smooth="yes"/>
      <point x="449" y="-20"/>
      <point x="541" y="56"/>
      <point x="541" y="157" type="curve" smooth="yes"/>
      <point x="541" y="169" type="line" smooth="yes"/>
      <point x="541" y="198"/>
      <point x="494" y="247"/>
      <point x="461" y="249" type="curve"/>
      <point x="462" y="241"/>
      <point x="463" y="232"/>
      <point x="463" y="221" type="curve" smooth="yes"/>
      <point x="463" y="143"/>
      <point x="406" y="96"/>
    </contour>
  </outline>
</glyph>
<glyph name="four" format="1">
  <advance width="600"/>
  <unicode hex="0034"/>
  <outline>
    <contour>
      <point x="137" y="222" type="curve"/>
      <point x="208" y="387"/>
      <point x="367" y="583"/>
      <point x="520" y="675" type="curve"/>
      <point x="520" y="679" type="line"/>
      <point x="502" y="699"/>
      <point x="463" y="712"/>
      <point x="409" y="712" type="curve" smooth="yes"/>
      <point x="372" y="712"/>
      <point x="347" y="702"/>
      <point x="295" y="650" type="curve" smooth="yes"/>
      <point x="167" y="521"/>
      <point x="44" y="337"/>
      <point x="44" y="253" type="curve" smooth="yes"/>
      <point x="44" y="233"/>
      <point x="96" y="222"/>
    </contour>
    <contour>
      <point x="565" y="150" type="line"/>
      <point x="568" y="161"/>
      <point x="569" y="173"/>
      <point x="569" y="184" type="curve" smooth="yes"/>
      <point x="569" y="221"/>
      <point x="560" y="266"/>
      <point x="531" y="266" type="curve" smooth="yes"/>
      <point x="327" y="266" type="line"/>
      <point x="246" y="266"/>
      <point x="132" y="262"/>
      <point x="44" y="253" type="curve"/>
      <point x="44" y="241" type="line" smooth="yes"/>
      <point x="44" y="204"/>
      <point x="54" y="177"/>
      <point x="70" y="161" type="curve" smooth="yes"/>
      <point x="78" y="153"/>
      <point x="85" y="150"/>
      <point x="104" y="150" type="curve" smooth="yes"/>
    </contour>
    <contour>
      <point x="501" y="-3" type="curve"/>
      <point x="493" y="31"/>
      <point x="490" y="57"/>
      <point x="490" y="97" type="curve" smooth="yes"/>
      <point x="490" y="360" type="line" smooth="yes"/>
      <point x="490" y="381"/>
      <point x="453" y="404"/>
      <point x="413" y="404" type="curve" smooth="yes"/>
      <point x="407" y="404" type="line"/>
      <point x="387" y="343"/>
      <point x="367" y="257"/>
      <point x="367" y="195" type="curve"/>
      <point x="367" y="51" type="line" smooth="yes"/>
      <point x="367" y="6"/>
      <point x="416" y="-7"/>
      <point x="460" y="-7" type="curve" smooth="yes"/>
      <point x="475" y="-7"/>
      <point x="489" y="-6"/>
    </contour>
  </outline>
</glyph>
<glyph name="six" format="1">
  <advance width="600"/>
  <unicode hex="0036"/>
  <outline>
    <contour>
      <point x="145" y="153" type="curve"/>
      <point x="120" y="77"/>
      <point x="212" y="-20"/>
      <point x="310" y="-20" type="curve"/>
      <point x="448" y="-20"/>
      <point x="542" y="66"/>
      <point x="542" y="193" type="curve" smooth="yes"/>
      <point x="542" y="198" type="line" smooth="yes"/>
      <point x="542" y="311"/>
      <point x="446" y="364"/>
      <point x="391" y="325" type="curve"/>
      <point x="417" y="292"/>
      <point x="427" y="252"/>
      <point x="427" y="204" type="curve" smooth="yes"/>
      <point x="427" y="200" type="line" smooth="yes"/>
      <point x="427" y="137"/>
      <point x="381" y="95"/>
      <point x="301" y="95" type="curve" smooth="yes"/>
      <point x="238" y="95"/>
      <point x="189" y="112"/>
    </contour>
    <contour>
      <point x="177" y="530" type="curve"/>
      <point x="227" y="580"/>
      <point x="286" y="604"/>
      <point x="358" y="604" type="curve" smooth="yes"/>
      <point x="419" y="604"/>
      <point x="460" y="592"/>
      <point x="505" y="564" type="curve"/>
      <point x="509" y="564" type="line"/>
      <point x="512" y="576"/>
      <point x="513" y="589"/>
      <point x="513" y="608" type="curve" smooth="yes"/>
      <point x="513" y="652"/>
      <point x="500" y="673"/>
      <point x="488" y="685" type="curve" smooth="yes"/>
      <point x="471" y="702"/>
      <point x="432" y="720"/>
      <point x="352" y="720" type="curve" smooth="yes"/>
      <point x="232" y="720"/>
      <point x="127" y="633"/>
    </contour>
    <contour>
      <point x="59" y="315" type="curve" smooth="yes"/>
      <point x="59" y="307" type="line" smooth="yes"/>
      <point x="59" y="86"/>
      <point x="156" y="-20"/>
      <point x="310" y="-20" type="curve" smooth="yes"/>
      <point x="319" y="-20"/>
      <point x="340" y="-12"/>
      <point x="340" y="32" type="curve"/>
      <point x="220" y="51"/>
      <point x="177" y="137"/>
      <point x="177" y="302" type="curve" smooth="yes"/>
      <point x="177" y="310" type="line" smooth="yes"/>
      <point x="177" y="528"/>
      <point x="229" y="620"/>
      <point x="388" y="670" type="curve"/>
      <point x="388" y="699"/>
      <point x="374" y="720"/>
      <point x="352" y="720" type="curve" smooth="yes"/>
      <point x="187" y="720"/>
      <point x="59" y="603"/>
    </contour>
    <contour>
      <point x="336" y="396" type="curve" smooth="yes"/>
      <point x="272" y="396"/>
      <point x="198" y="372"/>
      <point x="166" y="341" type="curve" smooth="yes"/>
      <point x="148" y="323"/>
      <point x="144" y="302"/>
      <point x="142" y="249" type="curve"/>
      <point x="197" y="280"/>
      <point x="258" y="297"/>
      <point x="317" y="297" type="curve" smooth="yes"/>
      <point x="422" y="297"/>
      <point x="479" y="244"/>
      <point x="479" y="169" type="curve" smooth="yes"/>
      <point x="479" y="155"/>
      <point x="478" y="142"/>
      <point x="474" y="130" type="curve"/>
      <point x="507" y="130"/>
      <point x="542" y="162"/>
      <point x="542" y="197" type="curve" smooth="yes"/>
      <point x="542" y="324"/>
      <point x="456" y="396"/>
    </contour>
  </outline>
</glyph>
<glyph name="seven" format="1">
  <advance width="600"/>
  <unicode hex="0037"/>
  <outline>
    <contour>
      <point x="425" y="584" type="line" smooth="yes"/>
      <point x="467" y="584"/>
      <point x="503" y="587"/>
      <point x="540" y="593" type="curve"/>
      <point x="540" y="601" type="line"/>
      <point x="540" y="639"/>
      <point x="525" y="700"/>
      <point x="496" y="700" type="curve"/>
      <point x="100" y="700" type="line"/>
      <point x="100" y="678" type="line" smooth="yes"/>
      <point x="100" y="619"/>
      <point x="113" y="584"/>
      <point x="144" y="584" type="curve" smooth="yes"/>
    </contour>
    <contour>
      <point x="333" y="-10" type="line"/>
      <point x="333" y="241"/>
      <point x="540" y="457"/>
      <point x="540" y="593" type="curve" smooth="yes"/>
      <point x="540" y="610"/>
      <point x="490" y="621"/>
      <point x="424" y="621" type="curve"/>
      <point x="424" y="486"/>
      <point x="220" y="246"/>
      <point x="220" y="54" type="curve" smooth="yes"/>
      <point x="220" y="10"/>
      <point x="272" y="-10"/>
      <point x="313" y="-10" type="curve" smooth="yes"/>
    </contour>
    <contour>
      <point x="180" y="460" type="curve"/>
      <point x="180" y="571"/>
      <point x="199" y="632"/>
      <point x="199" y="677" type="curve"/>
      <point x="199" y="705"/>
      <point x="145" y="720"/>
      <point x="99" y="720" type="curve" smooth="yes"/>
      <point x="92" y="720" type="line"/>
      <point x="73" y="650"/>
      <point x="65" y="576"/>
      <point x="65" y="505" type="curve"/>
      <point x="65" y="463"/>
      <point x="94" y="456"/>
      <point x="138" y="456" type="curve" smooth="yes"/>
      <point x="154" y="456"/>
      <point x="169" y="458"/>
    </contour>
  </outline>
</glyph>
<glyph name="eight" format="1">
  <advance width="600"/>
  <unicode hex="0038"/>
  <outline>
    <contour>
      <point x="385" y="341" type="curve" smooth="yes"/>
      <point x="294" y="374" type="line" smooth="yes"/>
      <point x="203" y="407"/>
      <point x="178" y="447"/>
      <point x="178" y="501" type="curve" smooth="yes"/>
      <point x="178" y="522"/>
      <point x="180" y="555"/>
      <point x="189" y="589" type="curve"/>
      <point x="128" y="585"/>
      <point x="73" y="565"/>
      <point x="73" y="511" type="curve" smooth="yes"/>
      <point x="73" y="437"/>
      <point x="113" y="352"/>
      <point x="259" y="299" type="curve" smooth="yes"/>
      <point x="348" y="265" type="line" smooth="yes"/>
      <point x="427" y="236"/>
      <point x="446" y="202"/>
      <point x="446" y="129" type="curve" smooth="yes"/>
      <point x="446" y="119"/>
      <point x="446" y="109"/>
      <point x="446" y="97" type="curve"/>
      <point x="489" y="99"/>
      <point x="545" y="138"/>
      <point x="545" y="169" type="curve"/>
      <point x="545" y="218"/>
      <point x="512" y="296"/>
    </contour>
    <contour>
      <point x="293" y="-20" type="curve" smooth="yes"/>
      <point x="449" y="-20"/>
      <point x="545" y="59"/>
      <point x="545" y="163" type="curve" smooth="yes"/>
      <point x="545" y="169" type="line" smooth="yes"/>
      <point x="545" y="187"/>
      <point x="502" y="213"/>
      <point x="472" y="215" type="curve"/>
      <point x="472" y="211"/>
      <point x="472" y="207"/>
      <point x="472" y="203" type="curve" smooth="yes"/>
      <point x="472" y="137"/>
      <point x="402" y="94"/>
      <point x="293" y="94" type="curve" smooth="yes"/>
      <point x="200" y="94"/>
      <point x="155" y="128"/>
      <point x="120" y="195" type="curve"/>
      <point x="40" y="116"/>
      <point x="127" y="-20"/>
    </contour>
    <contour>
      <point x="313" y="720" type="curve" smooth="yes"/>
      <point x="172" y="720"/>
      <point x="73" y="626"/>
      <point x="73" y="514" type="curve" smooth="yes"/>
      <point x="73" y="511" type="line" smooth="yes"/>
      <point x="73" y="475"/>
      <point x="129" y="437"/>
      <point x="188" y="435" type="curve"/>
      <point x="184" y="454"/>
      <point x="178" y="475"/>
      <point x="178" y="501" type="curve" smooth="yes"/>
      <point x="178" y="576"/>
      <point x="255" y="614"/>
      <point x="314" y="614" type="curve" smooth="yes"/>
      <point x="373" y="614"/>
      <point x="417" y="598"/>
      <point x="457" y="557" type="curve"/>
      <point x="515" y="621"/>
      <point x="409" y="720"/>
    </contour>
    <contour>
      <point x="357" y="323" type="curve" smooth="yes"/>
      <point x="433" y="323"/>
      <point x="539" y="411"/>
      <point x="539" y="515" type="curve" smooth="yes"/>
      <point x="539" y="520" type="line" smooth="yes"/>
      <point x="539" y="638"/>
      <point x="436" y="720"/>
      <point x="313" y="720" type="curve" smooth="yes"/>
      <point x="296" y="720"/>
      <point x="275" y="711"/>
      <point x="271" y="663" type="curve"/>
      <point x="369" y="663"/>
      <point x="430" y="610"/>
      <point x="430" y="519" type="curve" smooth="yes"/>
      <point x="430" y="515" type="line" smooth="yes"/>
      <point x="430" y="447"/>
      <point x="382" y="393"/>
      <point x="278" y="348" type="curve"/>
      <point x="303" y="332"/>
      <point x="328" y="323"/>
    </contour>
    <contour>
      <point x="348" y="40" type="curve"/>
      <point x="212" y="40"/>
      <point x="162" y="94"/>
      <point x="162" y="131" type="curve" smooth="yes"/>
      <point x="162" y="134" type="line" smooth="yes"/>
      <point x="162" y="207"/>
      <point x="218" y="268"/>
      <point x="322" y="306" type="curve"/>
      <point x="300" y="325"/>
      <point x="288" y="335"/>
      <point x="251" y="335" type="curve" smooth="yes"/>
      <point x="168" y="335"/>
      <point x="58" y="259"/>
      <point x="58" y="161" type="curve" smooth="yes"/>
      <point x="58" y="155" type="line" smooth="yes"/>
      <point x="58" y="55"/>
      <point x="151" y="-20"/>
      <point x="293" y="-20" type="curve" smooth="yes"/>
      <point x="317" y="-20"/>
      <point x="348" y="6"/>
    </contour>
  </outline>
</glyph>
<glyph name="nine" format="1">
  <advance width="600"/>
  <unicode hex="0039"/>
  <outline>
    <contour>
      <point x="456" y="547" type="curve"/>
      <point x="489" y="620"/>
      <point x="388" y="720"/>
      <point x="290" y="720" type="curve"/>
      <point x="152" y="720"/>
      <point x="58" y="618"/>
      <point x="58" y="461" type="curve" smooth="yes"/>
      <point x="58" y="456" type="line" smooth="yes"/>
      <point x="58" y="337"/>
      <point x="155" y="278"/>
      <point x="211" y="318" type="curve"/>
      <point x="182" y="353"/>
      <point x="174" y="398"/>
      <point x="174" y="450" type="curve" smooth="yes"/>
      <point x="174" y="454" type="line" smooth="yes"/>
      <point x="174" y="544"/>
      <point x="220" y="605"/>
      <point x="302" y="605" type="curve" smooth="yes"/>
      <point x="364" y="605"/>
      <point x="412" y="587"/>
    </contour>
    <contour>
      <point x="433" y="170" type="curve"/>
      <point x="381" y="118"/>
      <point x="318" y="96"/>
      <point x="243" y="96" type="curve" smooth="yes"/>
      <point x="181" y="96"/>
      <point x="140" y="108"/>
      <point x="96" y="136" type="curve"/>
      <point x="92" y="136" type="line"/>
      <point x="89" y="124"/>
      <point x="87" y="111"/>
      <point x="87" y="92" type="curve" smooth="yes"/>
      <point x="87" y="49"/>
      <point x="100" y="27"/>
      <point x="112" y="15" type="curve" smooth="yes"/>
      <point x="130" y="-2"/>
      <point x="169" y="-20"/>
      <point x="251" y="-20" type="curve" smooth="yes"/>
      <point x="376" y="-20"/>
      <point x="481" y="71"/>
    </contour>
    <contour>
      <point x="542" y="385" type="curve" smooth="yes"/>
      <point x="542" y="393" type="line" smooth="yes"/>
      <point x="542" y="614"/>
      <point x="444" y="720"/>
      <point x="290" y="720" type="curve" smooth="yes"/>
      <point x="281" y="720"/>
      <point x="260" y="711"/>
      <point x="260" y="668" type="curve"/>
      <point x="381" y="649"/>
      <point x="423" y="563"/>
      <point x="423" y="398" type="curve" smooth="yes"/>
      <point x="423" y="390" type="line" smooth="yes"/>
      <point x="423" y="172"/>
      <point x="373" y="79"/>
      <point x="215" y="30" type="curve"/>
      <point x="215" y="1"/>
      <point x="229" y="-20"/>
      <point x="251" y="-20" type="curve" smooth="yes"/>
      <point x="418" y="-20"/>
      <point x="542" y="86"/>
    </contour>
    <contour>
      <point x="263" y="231" type="curve" smooth="yes"/>
      <point x="328" y="231"/>
      <point x="403" y="254"/>
      <point x="434" y="286" type="curve" smooth="yes"/>
      <point x="452" y="303"/>
      <point x="456" y="325"/>
      <point x="459" y="377" type="curve"/>
      <point x="403" y="346"/>
      <point x="342" y="329"/>
      <point x="282" y="329" type="curve" smooth="yes"/>
      <point x="178" y="329"/>
      <point x="121" y="391"/>
      <point x="121" y="480" type="curve" smooth="yes"/>
      <point x="121" y="499"/>
      <point x="122" y="514"/>
      <point x="128" y="529" type="curve"/>
      <point x="93" y="529"/>
      <point x="58" y="499"/>
      <point x="58" y="457" type="curve" smooth="yes"/>
      <point x="58" y="312"/>
      <point x="144" y="231"/>
    </contour>
  </outline>
</glyph>
<glyph name="colon" format="1">
  <advance width="300"/>
  <unicode hex="003A"/>
  <outline>
    <contour>
      <point x="240" y="367" type="curve"/>
      <point x="240" y="479" type="line" smooth="yes"/>
      <point x="240" y="532"/>
      <point x="186" y="545"/>
      <point x="129" y="545" type="curve" smooth="yes"/>
      <point x="106" y="545"/>
      <point x="81" y="542"/>
      <point x="60" y="536" type="curve"/>
      <point x="60" y="424" type="line" smooth="yes"/>
      <point x="60" y="371"/>
      <point x="114" y="358"/>
      <point x="171" y="358" type="curve" smooth="yes"/>
      <point x="194" y="358"/>
      <point x="219" y="361"/>
    </contour>
    <contour>
      <point x="240" y="0" type="curve"/>
      <point x="240" y="112" type="line" smooth="yes"/>
      <point x="240" y="165"/>
      <point x="186" y="178"/>
      <point x="129" y="178" type="curve" smooth="yes"/>
      <point x="106" y="178"/>
      <point x="81" y="175"/>
      <point x="60" y="169" type="curve"/>
      <point x="60" y="57" type="line" smooth="yes"/>
      <point x="60" y="4"/>
      <point x="114" y="-9"/>
      <point x="171" y="-9" type="curve" smooth="yes"/>
      <point x="194" y="-9"/>
      <point x="219" y="-6"/>
    </contour>
  </outline>
</glyph>
<glyph name="semicolon" format="1">
  <advance width="350"/>
  <unicode hex="003B"/>
  <outline>
    <contour>
      <point x="261" y="365" type="curve"/>
      <point x="261" y="477" type="line" smooth="yes"/>
      <point x="261" y="530"/>
      <point x="208" y="543"/>
      <point x="151" y="543" type="curve" smooth="yes"/>
      <point x="128" y="543"/>
      <point x="103" y="540"/>
      <point x="82" y="535" type="curve"/>
      <point x="82" y="423" type="line" smooth="yes"/>
      <point x="82" y="370"/>
      <point x="135" y="356"/>
      <point x="193" y="356" type="curve" smooth="yes"/>
      <point x="215" y="356"/>
      <point x="240" y="359"/>
    </contour>
    <contour>
      <point x="115" y="-197" type="curve" smooth="yes"/>
      <point x="133" y="-197"/>
      <point x="143" y="-193"/>
      <point x="152" y="-184" type="curve"/>
      <point x="207" y="-129"/>
      <point x="258" y="-13"/>
      <point x="258" y="87" type="curve"/>
      <point x="258" y="134"/>
      <point x="226" y="151"/>
      <point x="161" y="151" type="curve" smooth="yes"/>
      <point x="139" y="151"/>
      <point x="124" y="149"/>
      <point x="102" y="143" type="curve"/>
      <point x="102" y="6"/>
      <point x="81" y="-84"/>
      <point x="29" y="-170" type="curve"/>
      <point x="54" y="-189"/>
      <point x="78" y="-197"/>
    </contour>
  </outline>
</glyph>
<glyph name="greater" format="1">
  <advance width="550"/>
  <unicode hex="003E"/>
  <outline>
    <contour>
      <point x="71" y="122" type="curve"/>
      <point x="71" y="103" type="line"/>
      <point x="71" y="66"/>
      <point x="92" y="20"/>
      <point x="121" y="20" type="curve" smooth="yes"/>
      <point x="134" y="20"/>
      <point x="164" y="28"/>
      <point x="206" y="44" type="curve" smooth="yes"/>
      <point x="343" y="98"/>
      <point x="460" y="184"/>
      <point x="531" y="273" type="curve"/>
      <point x="531" y="298" type="line"/>
      <point x="531" y="327"/>
      <point x="502" y="336"/>
      <point x="435" y="330" type="curve"/>
      <point x="344" y="231"/>
      <point x="260" y="165"/>
    </contour>
    <contour>
      <point x="79" y="588" type="curve"/>
      <point x="75" y="576"/>
      <point x="73" y="563"/>
      <point x="73" y="545" type="curve" smooth="yes"/>
      <point x="73" y="503"/>
      <point x="83" y="472"/>
      <point x="106" y="465" type="curve" smooth="yes"/>
      <point x="271" y="414"/>
      <point x="351" y="361"/>
      <point x="450" y="260" type="curve" smooth="yes"/>
      <point x="457" y="252"/>
      <point x="459" y="245"/>
      <point x="459" y="240" type="curve" smooth="yes"/>
      <point x="459" y="235"/>
      <point x="459" y="230"/>
      <point x="459" y="223" type="curve"/>
      <point x="510" y="252"/>
      <point x="531" y="277"/>
      <point x="531" y="294" type="curve" smooth="yes"/>
      <point x="531" y="303" type="line" smooth="yes"/>
      <point x="531" y="328"/>
      <point x="526" y="342"/>
      <point x="490" y="375" type="curve" smooth="yes"/>
      <point x="391" y="464"/>
      <point x="281" y="540"/>
    </contour>
  </outline>
</glyph>
<glyph name="question" format="1">
  <advance width="600"/>
  <unicode hex="003F"/>
  <outline>
    <contour>
      <point x="305" y="720" type="curve" smooth="yes"/>
      <point x="226" y="720"/>
      <point x="159" y="699"/>
      <point x="124" y="665" type="curve" smooth="yes"/>
      <point x="100" y="640"/>
      <point x="85" y="605"/>
      <point x="85" y="566" type="curve" smooth="yes"/>
      <point x="85" y="542"/>
      <point x="91" y="526"/>
      <point x="101" y="511" type="curve"/>
      <point x="105" y="511" type="line"/>
      <point x="155" y="570"/>
      <point x="218" y="604"/>
      <point x="310" y="604" type="curve" smooth="yes"/>
      <point x="400" y="604"/>
      <point x="442" y="573"/>
      <point x="442" y="531" type="curve" smooth="yes"/>
      <point x="442" y="507"/>
      <point x="440" y="492"/>
      <point x="435" y="474" type="curve"/>
      <point x="497" y="470"/>
      <point x="525" y="507"/>
      <point x="525" y="539" type="curve" smooth="yes"/>
      <point x="525" y="631"/>
      <point x="459" y="720"/>
    </contour>
    <contour>
      <point x="368" y="650" type="curve"/>
      <point x="397" y="611"/>
      <point x="409" y="589"/>
      <point x="409" y="547" type="curve" smooth="yes"/>
      <point x="409" y="509"/>
      <point x="397" y="477"/>
      <point x="339" y="436" type="curve" smooth="yes"/>
      <point x="316" y="420" type="line" smooth="yes"/>
      <point x="250" y="373"/>
      <point x="227" y="341"/>
      <point x="227" y="308" type="curve" smooth="yes"/>
      <point x="227" y="303" type="line" smooth="yes"/>
      <point x="227" y="276"/>
      <point x="258" y="247"/>
      <point x="323" y="247" type="curve" smooth="yes"/>
      <point x="330" y="247" type="line"/>
      <point x="330" y="252" type="line" smooth="yes"/>
      <point x="330" y="284"/>
      <point x="342" y="307"/>
      <point x="390" y="340" type="curve" smooth="yes"/>
      <point x="417" y="357" type="line" smooth="yes"/>
      <point x="495" y="408"/>
      <point x="525" y="468"/>
      <point x="525" y="534" type="curve" smooth="yes"/>
      <point x="525" y="539" type="line" smooth="yes"/>
      <point x="525" y="603"/>
      <point x="458" y="680"/>
    </contour>
    <contour>
      <point x="371" y="0" type="curve"/>
      <point x="371" y="99" type="line" smooth="yes"/>
      <point x="371" y="152"/>
      <point x="317" y="165"/>
      <point x="260" y="165" type="curve" smooth="yes"/>
      <point x="238" y="165"/>
      <point x="212" y="162"/>
      <point x="191" y="156" type="curve"/>
      <point x="191" y="57" type="line" smooth="yes"/>
      <point x="191" y="4"/>
      <point x="245" y="-9"/>
      <point x="302" y="-9" type="curve" smooth="yes"/>
      <point x="325" y="-9"/>
      <point x="350" y="-6"/>
    </contour>
  </outline>
</glyph>
<glyph name="at" format="1">
  <advance width="600"/>
  <unicode hex="0040"/>
  <outline>
    <contour>
      <point x="471" y="519" type="curve" smooth="yes"/>
      <point x="457" y="533"/>
      <point x="433" y="544"/>
      <point x="386" y="544" type="curve" smooth="yes"/>
      <point x="360" y="544"/>
      <point x="329" y="537"/>
      <point x="301" y="509" type="curve" smooth="yes"/>
      <point x="281" y="489"/>
      <point x="280" y="442"/>
      <point x="295" y="418" type="curve"/>
      <point x="334" y="445"/>
      <point x="358" y="453"/>
      <point x="397" y="453" type="curve" smooth="yes"/>
      <point x="427" y="453"/>
      <point x="448" y="449"/>
      <point x="472" y="430" type="curve"/>
      <point x="488" y="468"/>
      <point x="485" y="506"/>
    </contour>
    <contour>
      <point x="495" y="191" type="curve"/>
      <point x="458" y="138"/>
      <point x="412" y="106"/>
      <point x="378" y="106" type="curve" smooth="yes"/>
      <point x="345" y="106"/>
      <point x="327" y="136"/>
      <point x="327" y="215" type="curve" smooth="yes"/>
      <point x="327" y="221" type="line" smooth="yes"/>
      <point x="327" y="332"/>
      <point x="339" y="426"/>
      <point x="393" y="505" type="curve"/>
      <point x="361" y="525"/>
      <point x="323" y="530"/>
      <point x="301" y="509" type="curve" smooth="yes"/>
      <point x="253" y="461"/>
      <point x="224" y="365"/>
      <point x="224" y="210" type="curve" smooth="yes"/>
      <point x="224" y="203" type="line" smooth="yes"/>
      <point x="224" y="75"/>
      <point x="271" y="10"/>
      <point x="358" y="10" type="curve" smooth="yes"/>
      <point x="405" y="10"/>
      <point x="440" y="27"/>
      <point x="487" y="83" type="curve" smooth="yes"/>
      <point x="504" y="103"/>
      <point x="509" y="147"/>
    </contour>
    <contour>
      <point x="549" y="15" type="line"/>
      <point x="542" y="50"/>
      <point x="540" y="75"/>
      <point x="540" y="112" type="curve"/>
      <point x="540" y="516" type="line" smooth="yes"/>
      <point x="540" y="681"/>
      <point x="475" y="760"/>
      <point x="343" y="760" type="curve" smooth="yes"/>
      <point x="312" y="760"/>
      <point x="316" y="728"/>
      <point x="316" y="710" type="curve"/>
      <point x="419" y="706"/>
      <point x="438" y="654"/>
      <point x="438" y="547" type="curve" smooth="yes"/>
      <point x="438" y="104" type="line" smooth="yes"/>
      <point x="438" y="54"/>
      <point x="478" y="15"/>
      <point x="537" y="15" type="curve" smooth="yes"/>
    </contour>
    <contour>
      <point x="54" y="207" type="curve" smooth="yes"/>
      <point x="54" y="197" type="line" smooth="yes"/>
      <point x="54" y="30"/>
      <point x="83" y="-71"/>
      <point x="140" y="-127" type="curve" smooth="yes"/>
      <point x="171" y="-158"/>
      <point x="207" y="-152"/>
      <point x="238" y="-121" type="curve"/>
      <point x="146" y="-27"/>
      <point x="137" y="35"/>
      <point x="137" y="194" type="curve" smooth="yes"/>
      <point x="137" y="204" type="line" smooth="yes"/>
      <point x="137" y="486"/>
      <point x="221" y="677"/>
      <point x="349" y="677" type="curve" smooth="yes"/>
      <point x="402" y="677"/>
      <point x="422" y="655"/>
      <point x="444" y="619" type="curve"/>
      <point x="467" y="632"/>
      <point x="477" y="649"/>
      <point x="477" y="669" type="curve" smooth="yes"/>
      <point x="477" y="720"/>
      <point x="417" y="760"/>
      <point x="343" y="760" type="curve" smooth="yes"/>
      <point x="160" y="760"/>
      <point x="54" y="533"/>
    </contour>
    <contour>
      <point x="324" y="-190" type="curve" smooth="yes"/>
      <point x="390" y="-190"/>
      <point x="442" y="-180"/>
      <point x="459" y="-163" type="curve" smooth="yes"/>
      <point x="474" y="-148"/>
      <point x="478" y="-121"/>
      <point x="478" y="-87" type="curve" smooth="yes"/>
      <point x="478" y="-79" type="line"/>
      <point x="474" y="-79" type="line"/>
      <point x="431" y="-100"/>
      <point x="389" y="-107"/>
      <point x="328" y="-107" type="curve" smooth="yes"/>
      <point x="249" y="-107"/>
      <point x="191" y="-80"/>
      <point x="138" y="-20" type="curve"/>
      <point x="116" y="-46"/>
      <point x="112" y="-99"/>
      <point x="140" y="-127" type="curve"/>
      <point x="182" y="-169"/>
      <point x="243" y="-190"/>
    </contour>
  </outline>
</glyph>
<glyph name="A" format="1">
  <advance width="600"/>
  <unicode hex="0041"/>
  <outline>
    <contour>
      <point x="180" y="-7" type="curve"/>
      <point x="194" y="356"/>
      <point x="228" y="503"/>
      <point x="327" y="619" type="curve"/>
      <point x="350" y="645"/>
      <point x="332" y="710"/>
      <point x="276" y="710" type="curve"/>
      <point x="250" y="710" type="line"/>
      <point x="129" y="580"/>
      <point x="58" y="323"/>
      <point x="58" y="42" type="curve"/>
      <point x="58" y="4"/>
      <point x="97" y="-10"/>
      <point x="149" y="-10" type="curve" smooth="yes"/>
      <point x="164" y="-10"/>
      <point x="171" y="-9"/>
    </contour>
    <contour>
      <point x="543" y="-6" type="curve"/>
      <point x="537" y="252"/>
      <point x="493" y="461"/>
      <point x="431" y="590" type="curve"/>
      <point x="409" y="635"/>
      <point x="388" y="666"/>
      <point x="364" y="689" type="curve" smooth="yes"/>
      <point x="353" y="700"/>
      <point x="319" y="710"/>
      <point x="276" y="710" type="curve"/>
      <point x="252" y="710"/>
      <point x="224" y="665"/>
      <point x="224" y="635" type="curve"/>
      <point x="233" y="635"/>
      <point x="239" y="635"/>
      <point x="246" y="635" type="curve" smooth="yes"/>
      <point x="266" y="635"/>
      <point x="272" y="633"/>
      <point x="287" y="612" type="curve"/>
      <point x="370" y="498"/>
      <point x="405" y="343"/>
      <point x="417" y="44" type="curve"/>
      <point x="418" y="29"/>
      <point x="420" y="22"/>
      <point x="428" y="14" type="curve" smooth="yes"/>
      <point x="444" y="-2"/>
      <point x="478" y="-10"/>
      <point x="510" y="-10" type="curve" smooth="yes"/>
      <point x="524" y="-10"/>
      <point x="534" y="-9"/>
    </contour>
    <contour>
      <point x="34" y="283" type="line"/>
      <point x="34" y="263" type="line" smooth="yes"/>
      <point x="34" y="229"/>
      <point x="39" y="198"/>
      <point x="56" y="181" type="curve" smooth="yes"/>
      <point x="61" y="176"/>
      <point x="65" y="174"/>
      <point x="72" y="174" type="curve"/>
      <point x="441" y="174" type="line"/>
      <point x="441" y="246"/>
      <point x="399" y="283"/>
      <point x="314" y="283" type="curve" smooth="yes"/>
    </contour>
    <contour>
      <point x="300" y="711" type="move" name="top"/>
    </contour>
    <contour>
      <point x="544" y="-6" type="move" name="ogonek"/>
    </contour>
    <contour>
      <point x="299" y="707" type="move" name="ring"/>
    </contour>
    <contour>
      <point x="291" y="-1" type="move" name="bottom"/>
    </contour>
  </outline>
</glyph>
<glyph name="D" format="1">
  <advance width="650"/>
  <unicode hex="0044"/>
  <outline>
    <contour>
      <point x="206" y="33" type="curve"/>
      <point x="206" y="535" type="line" smooth="yes"/>
      <point x="206" y="606"/>
      <point x="167" y="635"/>
      <point x="84" y="635" type="curve"/>
      <point x="84" y="76" type="line" smooth="yes"/>
      <point x="84" y="52"/>
      <point x="137" y="33"/>
    </contour>
    <contour>
      <point x="35" y="700" type="curve"/>
      <point x="32" y="688"/>
      <point x="30" y="675"/>
      <point x="30" y="659" type="curve"/>
      <point x="30" y="625"/>
      <point x="36" y="605"/>
      <point x="48" y="592" type="curve" smooth="yes"/>
      <point x="54" y="586"/>
      <point x="60" y="584"/>
      <point x="68" y="584" type="curve" smooth="yes"/>
      <point x="77" y="584"/>
      <point x="91" y="587"/>
      <point x="120" y="591" type="curve" smooth="yes"/>
      <point x="166" y="598"/>
      <point x="223" y="604"/>
      <point x="285" y="604" type="curve"/>
      <point x="386" y="604"/>
      <point x="432" y="585"/>
      <point x="493" y="525" type="curve"/>
      <point x="569" y="621"/>
      <point x="450" y="720"/>
      <point x="295" y="720" type="curve" smooth="yes"/>
      <point x="210" y="720"/>
      <point x="124" y="715"/>
    </contour>
    <contour>
      <point x="591" y="393" type="curve" smooth="yes"/>
      <point x="591" y="408" type="line" smooth="yes"/>
      <point x="591" y="617"/>
      <point x="491" y="720"/>
      <point x="295" y="720" type="curve" smooth="yes"/>
      <point x="272" y="720"/>
      <point x="237" y="705"/>
      <point x="237" y="663" type="curve"/>
      <point x="434" y="650"/>
      <point x="471" y="568"/>
      <point x="471" y="401" type="curve" smooth="yes"/>
      <point x="471" y="390" type="line" smooth="yes"/>
      <point x="471" y="218"/>
      <point x="377" y="109"/>
      <point x="246" y="109" type="curve" smooth="yes"/>
      <point x="183" y="109"/>
      <point x="156" y="114"/>
      <point x="106" y="137" type="curve"/>
      <point x="90" y="124"/>
      <point x="84" y="106"/>
      <point x="84" y="76" type="curve" smooth="yes"/>
      <point x="84" y="37"/>
      <point x="166" y="-10"/>
      <point x="246" y="-10" type="curve" smooth="yes"/>
      <point x="251" y="-10" type="line" smooth="yes"/>
      <point x="448" y="-10"/>
      <point x="591" y="149"/>
    </contour>
    <contour>
      <point x="311" y="711" type="move" name="top"/>
    </contour>
  </outline>
</glyph>
<glyph name="E" format="1">
  <advance width="550"/>
  <unicode hex="0045"/>
  <outline>
    <contour>
      <point x="34" y="700" type="line"/>
      <point x="34" y="694"/>
      <point x="34" y="686"/>
      <point x="34" y="680" type="curve" smooth="yes"/>
      <point x="34" y="643"/>
      <point x="39" y="605"/>
      <point x="52" y="591" type="curve" smooth="yes"/>
      <point x="57" y="586"/>
      <point x="61" y="584"/>
      <point x="68" y="584" type="curve" smooth="yes"/>
      <point x="501" y="584" type="line"/>
      <point x="505" y="595"/>
      <point x="507" y="610"/>
      <point x="507" y="626" type="curve" smooth="yes"/>
      <point x="507" y="643"/>
      <point x="503" y="675"/>
      <point x="487" y="690" type="curve" smooth="yes"/>
      <point x="480" y="698"/>
      <point x="474" y="700"/>
      <point x="461" y="700" type="curve" smooth="yes"/>
    </contour>
    <contour>
      <point x="206" y="62" type="curve"/>
      <point x="206" y="520" type="line" smooth="yes"/>
      <point x="206" y="590"/>
      <point x="175" y="615"/>
      <point x="84" y="615" type="curve"/>
      <point x="84" y="106" type="line"/>
      <point x="84" y="71"/>
      <point x="140" y="62"/>
    </contour>
    <contour>
      <point x="84" y="116" type="line"/>
      <point x="84" y="100" type="line" smooth="yes"/>
      <point x="84" y="55"/>
      <point x="128" y="0"/>
      <point x="165" y="0" type="curve" smooth="yes"/>
      <point x="503" y="0" type="line"/>
      <point x="506" y="11"/>
      <point x="507" y="25"/>
      <point x="507" y="42" type="curve" smooth="yes"/>
      <point x="507" y="94"/>
      <point x="493" y="116"/>
      <point x="459" y="116" type="curve" smooth="yes"/>
    </contour>
    <contour>
      <point x="136" y="383" type="line"/>
      <point x="136" y="311"/>
      <point x="146" y="280"/>
      <point x="180" y="280" type="curve" smooth="yes"/>
      <point x="446" y="280" type="line"/>
      <point x="446" y="287"/>
      <point x="446" y="294"/>
      <point x="446" y="300" type="curve" smooth="yes"/>
      <point x="446" y="322"/>
      <point x="437" y="351"/>
      <point x="416" y="371" type="curve" smooth="yes"/>
      <point x="406" y="381"/>
      <point x="403" y="383"/>
      <point x="388" y="383" type="curve" smooth="yes"/>
    </contour>
    <contour>
      <point x="270" y="711" type="move" name="top"/>
    </contour>
    <contour>
      <point x="504" y="0" type="move" name="ogonek"/>
    </contour>
    <contour>
      <point x="270" y="-1" type="move" name="bottom"/>
    </contour>
  </outline>
</glyph>
<glyph name="F" format="1">
  <advance width="550"/>
  <unicode hex="0046"/>
  <outline>
    <contour>
      <point x="228" y="-6" type="curve"/>
      <point x="221" y="28"/>
      <point x="219" y="54"/>
      <point x="219" y="91" type="curve" smooth="yes"/>
      <point x="219" y="520" type="line"/>
      <point x="219" y="592"/>
      <point x="188" y="618"/>
      <point x="97" y="618" type="curve"/>
      <point x="97" y="51" type="line" smooth="yes"/>
      <point x="97" y="10"/>
      <point x="131" y="-6"/>
      <point x="216" y="-6" type="curve" smooth="yes"/>
      <point x="220" y="-6"/>
      <point x="224" y="-6"/>
    </contour>
    <contour>
      <point x="34" y="700" type="line"/>
      <point x="34" y="694"/>
      <point x="34" y="686"/>
      <point x="34" y="680" type="curve" smooth="yes"/>
      <point x="34" y="636"/>
      <point x="41" y="603"/>
      <point x="52" y="591" type="curve" smooth="yes"/>
      <point x="58" y="586"/>
      <point x="61" y="584"/>
      <point x="68" y="584" type="curve"/>
      <point x="508" y="584" type="line"/>
      <point x="511" y="595"/>
      <point x="513" y="608"/>
      <point x="513" y="626" type="curve" smooth="yes"/>
      <point x="513" y="651"/>
      <point x="506" y="678"/>
      <point x="494" y="690" type="curve" smooth="yes"/>
      <point x="486" y="698"/>
      <point x="481" y="700"/>
      <point x="467" y="700" type="curve"/>
    </contour>
    <contour>
      <point x="117" y="333" type="line"/>
      <point x="117" y="261"/>
      <point x="126" y="217"/>
      <point x="161" y="217" type="curve"/>
      <point x="465" y="217" type="line"/>
      <point x="466" y="224"/>
      <point x="467" y="231"/>
      <point x="467" y="240" type="curve"/>
      <point x="467" y="268"/>
      <point x="454" y="299"/>
      <point x="437" y="317" type="curve" smooth="yes"/>
      <point x="422" y="331"/>
      <point x="415" y="333"/>
      <point x="394" y="333" type="curve"/>
    </contour>
  </outline>
</glyph>
<glyph name="G" format="1">
  <advance width="650"/>
  <unicode hex="0047"/>
  <outline>
    <contour>
      <point x="393" y="612" type="curve" smooth="yes"/>
      <point x="466" y="612"/>
      <point x="495" y="576"/>
      <point x="495" y="513" type="curve"/>
      <point x="542" y="513"/>
      <point x="558" y="544"/>
      <point x="558" y="561" type="curve" smooth="yes"/>
      <point x="558" y="600"/>
      <point x="542" y="642"/>
      <point x="511" y="673" type="curve" smooth="yes"/>
      <point x="483" y="701"/>
      <point x="442" y="720"/>
      <point x="389" y="720" type="curve" smooth="yes"/>
      <point x="199" y="720"/>
      <point x="59" y="552"/>
      <point x="59" y="273" type="curve" smooth="yes"/>
      <point x="59" y="259" type="line" smooth="yes"/>
      <point x="59" y="193"/>
      <point x="117" y="126"/>
      <point x="192" y="120" type="curve"/>
      <point x="182" y="150"/>
      <point x="175" y="200"/>
      <point x="175" y="253" type="curve" smooth="yes"/>
      <point x="175" y="267" type="line" smooth="yes"/>
      <point x="175" y="492"/>
      <point x="278" y="612"/>
    </contour>
    <contour>
      <point x="340" y="96" type="curve" smooth="yes"/>
      <point x="215" y="96"/>
      <point x="159" y="174"/>
      <point x="159" y="321" type="curve"/>
      <point x="99" y="322"/>
      <point x="59" y="304"/>
      <point x="59" y="259" type="curve" smooth="yes"/>
      <point x="59" y="102"/>
      <point x="157" y="-20"/>
      <point x="340" y="-20" type="curve" smooth="yes"/>
      <point x="471" y="-20"/>
      <point x="575" y="51"/>
      <point x="575" y="157" type="curve" smooth="yes"/>
      <point x="575" y="165" type="line" smooth="yes"/>
      <point x="575" y="228"/>
      <point x="543" y="284"/>
      <point x="491" y="284" type="curve"/>
      <point x="495" y="264"/>
      <point x="497" y="248"/>
      <point x="497" y="218" type="curve" smooth="yes"/>
      <point x="497" y="137"/>
      <point x="432" y="96"/>
    </contour>
    <contour>
      <point x="343" y="336" type="line"/>
      <point x="343" y="331"/>
      <point x="342" y="325"/>
      <point x="342" y="318" type="curve" smooth="yes"/>
      <point x="342" y="288"/>
      <point x="350" y="270"/>
      <point x="363" y="257" type="curve" smooth="yes"/>
      <point x="380" y="241"/>
      <point x="400" y="234"/>
      <point x="453" y="234" type="curve"/>
      <point x="610" y="234" type="line"/>
      <point x="610" y="244" type="line" smooth="yes"/>
      <point x="610" y="313"/>
      <point x="597" y="336"/>
      <point x="557" y="336" type="curve" smooth="yes"/>
    </contour>
    <contour>
      <point x="558" y="464" type="curve"/>
      <point x="558" y="561" type="line" smooth="yes"/>
      <point x="558" y="613"/>
      <point x="511" y="654"/>
      <point x="447" y="650" type="curve"/>
      <point x="444" y="607"/>
      <point x="442" y="570"/>
      <point x="442" y="544" type="curve" smooth="yes"/>
      <point x="442" y="509" type="line" smooth="yes"/>
      <point x="442" y="473"/>
      <point x="460" y="459"/>
      <point x="515" y="459" type="curve" smooth="yes"/>
      <point x="532" y="459"/>
      <point x="547" y="461"/>
    </contour>
    <contour>
      <point x="334" y="711" type="move" name="top"/>
    </contour>
    <contour>
      <point x="334" y="-1" type="move" name="bottom"/>
    </contour>
  </outline>
</glyph>
<glyph name="I" format="1">
  <advance width="500"/>
  <unicode hex="0049"/>
  <outline>
    <contour>
      <point x="311" y="65" type="curve"/>
      <point x="311" y="520" type="line" smooth="yes"/>
      <point x="311" y="590"/>
      <point x="282" y="615"/>
      <point x="189" y="615" type="curve"/>
      <point x="189" y="183" type="line" smooth="yes"/>
      <point x="189" y="103"/>
      <point x="218" y="65"/>
    </contour>
    <contour>
      <point x="55" y="700" type="line"/>
      <point x="53" y="693"/>
      <point x="51" y="683"/>
      <point x="51" y="671" type="curve"/>
      <point x="51" y="642"/>
      <point x="58" y="620"/>
      <point x="73" y="604" type="curve" smooth="yes"/>
      <point x="89" y="588"/>
      <point x="111" y="584"/>
      <point x="161" y="584" type="curve" smooth="yes"/>
      <point x="445" y="584" type="line"/>
      <point x="449" y="599"/>
      <point x="450" y="614"/>
      <point x="450" y="627" type="curve" smooth="yes"/>
      <point x="450" y="669"/>
      <point x="442" y="700"/>
      <point x="402" y="700" type="curve" smooth="yes"/>
    </contour>
    <contour>
      <point x="57" y="116" type="line"/>
      <point x="53" y="104"/>
      <point x="51" y="90"/>
      <point x="51" y="75" type="curve"/>
      <point x="51" y="52"/>
      <point x="55" y="28"/>
      <point x="69" y="14" type="curve" smooth="yes"/>
      <point x="79" y="3"/>
      <point x="89" y="0"/>
      <point x="117" y="0" type="curve" smooth="yes"/>
      <point x="446" y="0" type="line"/>
      <point x="448" y="11"/>
      <point x="450" y="25"/>
      <point x="450" y="42" type="curve" smooth="yes"/>
      <point x="450" y="84"/>
      <point x="442" y="116"/>
      <point x="402" y="116" type="curve" smooth="yes"/>
    </contour>
    <contour>
      <point x="251" y="711" type="move" name="top"/>
    </contour>
    <contour>
      <point x="447" y="0" type="move" name="ogonek"/>
    </contour>
    <contour>
      <point x="251" y="-1" type="move" name="bottom"/>
    </contour>
  </outline>
</glyph>
<glyph name="J" format="1">
  <advance width="500"/>
  <unicode hex="004A"/>
  <outline>
    <contour>
      <point x="76" y="700" type="line"/>
      <point x="74" y="693"/>
      <point x="72" y="684"/>
      <point x="72" y="673" type="curve" smooth="yes"/>
      <point x="72" y="642"/>
      <point x="79" y="620"/>
      <point x="95" y="604" type="curve" smooth="yes"/>
      <point x="110" y="589"/>
      <point x="129" y="584"/>
      <point x="175" y="584" type="curve" smooth="yes"/>
      <point x="386" y="584" type="line"/>
      <point x="386" y="669"/>
      <point x="367" y="700"/>
      <point x="329" y="700" type="curve"/>
    </contour>
    <contour>
      <point x="441" y="213" type="curve" smooth="yes"/>
      <point x="441" y="659" type="line" smooth="yes"/>
      <point x="441" y="683"/>
      <point x="413" y="700"/>
      <point x="345" y="700" type="curve" smooth="yes"/>
      <point x="320" y="700" type="line"/>
      <point x="320" y="230" type="line" smooth="yes"/>
      <point x="320" y="139"/>
      <point x="305" y="97"/>
      <point x="259" y="50" type="curve"/>
      <point x="337" y="16"/>
      <point x="441" y="107"/>
    </contour>
    <contour>
      <point x="220" y="96" type="curve" smooth="yes"/>
      <point x="143" y="96"/>
      <point x="115" y="112"/>
      <point x="50" y="145" type="curve"/>
      <point x="46" y="145" type="line"/>
      <point x="44" y="133"/>
      <point x="43" y="121"/>
      <point x="43" y="109" type="curve"/>
      <point x="43" y="59"/>
      <point x="56" y="31"/>
      <point x="69" y="18" type="curve" smooth="yes"/>
      <point x="94" y="-7"/>
      <point x="144" y="-20"/>
      <point x="202" y="-20" type="curve" smooth="yes"/>
      <point x="210" y="-20" type="line" smooth="yes"/>
      <point x="353" y="-20"/>
      <point x="441" y="97"/>
      <point x="441" y="213" type="curve"/>
      <point x="441" y="238"/>
      <point x="426" y="263"/>
      <point x="362" y="286" type="curve"/>
      <point x="362" y="151"/>
      <point x="318" y="96"/>
    </contour>
    <contour>
      <point x="257" y="711" type="move" name="top"/>
    </contour>
  </outline>
</glyph>
<glyph name="L" format="1">
  <advance width="550"/>
  <unicode hex="004C"/>
  <outline>
    <contour>
      <point x="199" y="55" type="curve"/>
      <point x="199" y="643" type="line" smooth="yes"/>
      <point x="199" y="667"/>
      <point x="196" y="681"/>
      <point x="185" y="693" type="curve" smooth="yes"/>
      <point x="172" y="705"/>
      <point x="154" y="710"/>
      <point x="116" y="710" type="curve" smooth="yes"/>
      <point x="97" y="710"/>
      <point x="83" y="708"/>
      <point x="66" y="704" type="curve"/>
      <point x="74" y="669"/>
      <point x="77" y="633"/>
      <point x="77" y="593" type="curve" smooth="yes"/>
      <point x="77" y="105" type="line" smooth="yes"/>
      <point x="77" y="71"/>
      <point x="124" y="55"/>
    </contour>
    <contour>
      <point x="77" y="116" type="line"/>
      <point x="77" y="100" type="line" smooth="yes"/>
      <point x="77" y="55"/>
      <point x="121" y="0"/>
      <point x="158" y="0" type="curve" smooth="yes"/>
      <point x="506" y="0" type="line"/>
      <point x="508" y="11"/>
      <point x="510" y="25"/>
      <point x="510" y="42" type="curve" smooth="yes"/>
      <point x="510" y="94"/>
      <point x="495" y="116"/>
      <point x="461" y="116" type="curve" smooth="yes"/>
    </contour>
    <contour>
      <point x="397" y="551" type="move" name="caronslovak"/>
    </contour>
    <contour>
      <point x="139" y="711" type="move" name="top"/>
    </contour>
    <contour>
      <point x="438" y="400" type="move" name="dot"/>
    </contour>
    <contour>
      <point x="288" y="-1" type="move" name="bottom"/>
    </contour>
  </outline>
</glyph>
<glyph name="M" format="1">
  <advance width="800"/>
  <unicode hex="004D"/>
  <outline>
    <contour>
      <point x="179" y="-8" type="curve"/>
      <point x="175" y="35"/>
      <point x="174" y="77"/>
      <point x="174" y="121" type="curve" smooth="yes"/>
      <point x="174" y="281"/>
      <point x="192" y="474"/>
      <point x="225" y="649" type="curve" smooth="yes"/>
      <point x="229" y="667"/>
      <point x="223" y="684"/>
      <point x="215" y="692" type="curve" smooth="yes"/>
      <point x="202" y="705"/>
      <point x="181" y="710"/>
      <point x="143" y="710" type="curve" smooth="yes"/>
      <point x="124" y="710"/>
      <point x="110" y="708"/>
      <point x="92" y="705" type="curve"/>
      <point x="99" y="667"/>
      <point x="101" y="639"/>
      <point x="95" y="595" type="curve" smooth="yes"/>
      <point x="73" y="411"/>
      <point x="57" y="233"/>
      <point x="57" y="42" type="curve" smooth="yes"/>
      <point x="57" y="30"/>
      <point x="61" y="19"/>
      <point x="69" y="12" type="curve" smooth="yes"/>
      <point x="83" y="-3"/>
      <point x="111" y="-10"/>
      <point x="152" y="-10" type="curve" smooth="yes"/>
      <point x="164" y="-10"/>
      <point x="173" y="-9"/>
    </contour>
    <contour>
      <point x="753" y="-4" type="curve"/>
      <point x="744" y="33"/>
      <point x="740" y="71"/>
      <point x="740" y="111" type="curve" smooth="yes"/>
      <point x="738" y="302"/>
      <point x="719" y="478"/>
      <point x="693" y="653" type="curve"/>
      <point x="691" y="667"/>
      <point x="687" y="677"/>
      <point x="678" y="686" type="curve" smooth="yes"/>
      <point x="662" y="702"/>
      <point x="619" y="710"/>
      <point x="570" y="710" type="curve" smooth="yes"/>
      <point x="567" y="710" type="line"/>
      <point x="572" y="686"/>
      <point x="574" y="660"/>
      <point x="578" y="635" type="curve"/>
      <point x="605" y="477"/>
      <point x="619" y="310"/>
      <point x="620" y="170" type="curve" smooth="yes"/>
      <point x="621" y="129"/>
      <point x="620" y="90"/>
      <point x="618" y="55" type="curve" smooth="yes"/>
      <point x="617" y="27"/>
      <point x="623" y="17"/>
      <point x="632" y="8" type="curve" smooth="yes"/>
      <point x="645" y="-5"/>
      <point x="664" y="-10"/>
      <point x="701" y="-10" type="curve" smooth="yes"/>
      <point x="720" y="-10"/>
      <point x="735" y="-8"/>
    </contour>
    <contour>
      <point x="282" y="668" type="curve" smooth="yes"/>
      <point x="278" y="692"/>
      <point x="231" y="710"/>
      <point x="153" y="710" type="curve"/>
      <point x="143" y="710" type="line"/>
      <point x="169" y="684"/>
      <point x="190" y="647"/>
      <point x="194" y="624" type="curve" smooth="yes"/>
      <point x="231" y="334"/>
      <point x="328" y="160"/>
      <point x="356" y="131" type="curve"/>
      <point x="372" y="116"/>
      <point x="381" y="112"/>
      <point x="403" y="112" type="curve" smooth="yes"/>
      <point x="428" y="112"/>
      <point x="448" y="133"/>
      <point x="447" y="179" type="curve"/>
      <point x="364" y="326"/>
      <point x="327" y="438"/>
    </contour>
    <contour>
      <point x="524" y="705" type="curve"/>
      <point x="483" y="466"/>
      <point x="432" y="330"/>
      <point x="361" y="205" type="curve"/>
      <point x="346" y="177"/>
      <point x="372" y="112"/>
      <point x="403" y="112" type="curve"/>
      <point x="433" y="112" type="line"/>
      <point x="532" y="274"/>
      <point x="607" y="548"/>
      <point x="607" y="666" type="curve" smooth="yes"/>
      <point x="607" y="693"/>
      <point x="595" y="710"/>
      <point x="567" y="710" type="curve" smooth="yes"/>
      <point x="551" y="710"/>
      <point x="540" y="709"/>
    </contour>
  </outline>
</glyph>
<glyph name="N" format="1">
  <advance width="700"/>
  <unicode hex="004E"/>
  <outline>
    <contour>
      <point x="199" y="-5" type="curve"/>
      <point x="199" y="290" type="line"/>
      <point x="199" y="521"/>
      <point x="182" y="671"/>
      <point x="156" y="697" type="curve" smooth="yes"/>
      <point x="149" y="703"/>
      <point x="138" y="710"/>
      <point x="131" y="710" type="curve"/>
      <point x="111" y="710"/>
      <point x="96" y="709"/>
      <point x="73" y="703" type="curve"/>
      <point x="81" y="667"/>
      <point x="84" y="627"/>
      <point x="84" y="593" type="curve" smooth="yes"/>
      <point x="84" y="42" type="line"/>
      <point x="84" y="4"/>
      <point x="129" y="-9"/>
      <point x="163" y="-9" type="curve"/>
      <point x="178" y="-9"/>
      <point x="188" y="-9"/>
    </contour>
    <contour>
      <point x="623" y="-10" type="line"/>
      <point x="623" y="663" type="line"/>
      <point x="623" y="696"/>
      <point x="580" y="710"/>
      <point x="527" y="710" type="curve"/>
      <point x="507" y="710" type="line"/>
      <point x="507" y="330" type="line"/>
      <point x="507" y="164"/>
      <point x="527" y="36"/>
      <point x="551" y="12" type="curve" smooth="yes"/>
      <point x="566" y="-3"/>
      <point x="585" y="-10"/>
      <point x="601" y="-10" type="curve"/>
    </contour>
    <contour>
      <point x="131" y="710" type="line"/>
      <point x="150" y="685"/>
      <point x="158" y="643"/>
      <point x="166" y="605" type="curve"/>
      <point x="231" y="336"/>
      <point x="396" y="129"/>
      <point x="503" y="22" type="curve"/>
      <point x="525" y="0"/>
      <point x="560" y="-10"/>
      <point x="601" y="-10" type="curve" smooth="yes"/>
      <point x="605" y="-10"/>
      <point x="605" y="-10"/>
      <point x="609" y="-10" type="curve"/>
      <point x="613" y="-10"/>
      <point x="615" y="22"/>
      <point x="615" y="65" type="curve"/>
      <point x="425" y="253"/>
      <point x="317" y="435"/>
      <point x="241" y="673" type="curve"/>
      <point x="234" y="696"/>
      <point x="179" y="710"/>
      <point x="133" y="710" type="curve"/>
    </contour>
    <contour>
      <point x="347" y="711" type="move" name="top"/>
    </contour>
    <contour>
      <point x="347" y="-1" type="move" name="bottom"/>
    </contour>
  </outline>
</glyph>
<glyph name="O" format="1">
  <advance width="650"/>
  <unicode hex="004F"/>
  <outline>
    <contour>
      <point x="323" y="720" type="curve" smooth="yes"/>
      <point x="157" y="720"/>
      <point x="59" y="588"/>
      <point x="59" y="350" type="curve" smooth="yes"/>
      <point x="59" y="322" type="line" smooth="yes"/>
      <point x="59" y="98"/>
      <point x="151" y="-20"/>
      <point x="326" y="-20" type="curve" smooth="yes"/>
      <point x="360" y="-20"/>
      <point x="383" y="16"/>
      <point x="383" y="68" type="curve"/>
      <point x="233" y="70"/>
      <point x="174" y="152"/>
      <point x="174" y="313" type="curve" smooth="yes"/>
      <point x="174" y="337" type="line" smooth="yes"/>
      <point x="174" y="526"/>
      <point x="226" y="605"/>
      <point x="327" y="605" type="curve" smooth="yes"/>
      <point x="377" y="605"/>
      <point x="410" y="595"/>
      <point x="450" y="572" type="curve"/>
      <point x="495" y="614"/>
      <point x="407" y="720"/>
    </contour>
    <contour>
      <point x="326" y="-20" type="curve" smooth="yes"/>
      <point x="493" y="-20"/>
      <point x="591" y="112"/>
      <point x="591" y="350" type="curve" smooth="yes"/>
      <point x="591" y="378" type="line" smooth="yes"/>
      <point x="591" y="601"/>
      <point x="497" y="720"/>
      <point x="323" y="720" type="curve" smooth="yes"/>
      <point x="289" y="720"/>
      <point x="266" y="684"/>
      <point x="266" y="632" type="curve"/>
      <point x="417" y="630"/>
      <point x="476" y="548"/>
      <point x="476" y="387" type="curve" smooth="yes"/>
      <point x="476" y="363" type="line" smooth="yes"/>
      <point x="476" y="174"/>
      <point x="424" y="95"/>
      <point x="323" y="95" type="curve" smooth="yes"/>
      <point x="272" y="95"/>
      <point x="240" y="105"/>
      <point x="201" y="128" type="curve"/>
      <point x="154" y="85"/>
      <point x="244" y="-20"/>
    </contour>
    <contour>
      <point x="325" y="711" type="move" name="top"/>
    </contour>
    <contour>
      <point x="426" y="6" type="move" name="ogonek"/>
    </contour>
    <contour>
      <point x="325" y="-1" type="move" name="bottom"/>
    </contour>
  </outline>
</glyph>
<glyph name="Q" format="1">
  <advance width="650"/>
  <unicode hex="0051"/>
  <outline>
    <contour>
      <point x="323" y="720" type="curve" smooth="yes"/>
      <point x="157" y="720"/>
      <point x="59" y="588"/>
      <point x="59" y="350" type="curve" smooth="yes"/>
      <point x="59" y="322" type="line" smooth="yes"/>
      <point x="59" y="98"/>
      <point x="151" y="-20"/>
      <point x="326" y="-20" type="curve" smooth="yes"/>
      <point x="360" y="-20"/>
      <point x="383" y="16"/>
      <point x="383" y="68" type="curve"/>
      <point x="233" y="70"/>
      <point x="174" y="152"/>
      <point x="174" y="313" type="curve" smooth="yes"/>
      <point x="174" y="337" type="line" smooth="yes"/>
      <point x="174" y="526"/>
      <point x="226" y="605"/>
      <point x="327" y="605" type="curve" smooth="yes"/>
      <point x="378" y="605"/>
      <point x="410" y="595"/>
      <point x="450" y="572" type="curve"/>
      <point x="495" y="614"/>
      <point x="406" y="720"/>
    </contour>
    <contour>
      <point x="326" y="-20" type="curve" smooth="yes"/>
      <point x="492" y="-20"/>
      <point x="591" y="112"/>
      <point x="591" y="350" type="curve" smooth="yes"/>
      <point x="591" y="378" type="line" smooth="yes"/>
      <point x="591" y="601"/>
      <point x="497" y="720"/>
      <point x="323" y="720" type="curve" smooth="yes"/>
      <point x="289" y="720"/>
      <point x="266" y="684"/>
      <point x="266" y="632" type="curve"/>
      <point x="417" y="630"/>
      <point x="476" y="548"/>
      <point x="476" y="387" type="curve" smooth="yes"/>
      <point x="476" y="363" type="line" smooth="yes"/>
      <point x="476" y="174"/>
      <point x="423" y="95"/>
      <point x="323" y="95" type="curve" smooth="yes"/>
      <point x="272" y="95"/>
      <point x="240" y="105"/>
      <point x="201" y="128" type="curve"/>
      <point x="154" y="85"/>
      <point x="244" y="-20"/>
    </contour>
    <contour>
      <point x="450" y="112" type="line"/>
      <point x="381" y="74"/>
      <point x="366" y="47"/>
      <point x="378" y="24" type="curve" smooth="yes"/>
      <point x="438" y="-77" type="line" smooth="yes"/>
      <point x="476" y="-142"/>
      <point x="513" y="-175"/>
      <point x="561" y="-175" type="curve" smooth="yes"/>
      <point x="565" y="-175" type="line" smooth="yes"/>
      <point x="610" y="-175"/>
      <point x="636" y="-145"/>
      <point x="636" y="-84" type="curve" smooth="yes"/>
      <point x="636" y="-59"/>
      <point x="634" y="-42"/>
      <point x="630" y="-25" type="curve"/>
      <point x="626" y="-25" type="line"/>
      <point x="614" y="-34"/>
      <point x="604" y="-38"/>
      <point x="587" y="-38" type="curve" smooth="yes"/>
      <point x="556" y="-38"/>
      <point x="539" y="-27"/>
      <point x="520" y="2" type="curve" smooth="yes"/>
    </contour>
  </outline>
</glyph>
<glyph name="R" format="1">
  <advance width="600"/>
  <unicode hex="0052"/>
  <outline>
    <contour>
      <point x="217" y="-4" type="curve"/>
      <point x="209" y="31"/>
      <point x="206" y="68"/>
      <point x="206" y="107" type="curve" smooth="yes"/>
      <point x="206" y="535" type="line" smooth="yes"/>
      <point x="206" y="606"/>
      <point x="167" y="635"/>
      <point x="84" y="635" type="curve"/>
      <point x="84" y="57" type="line" smooth="yes"/>
      <point x="84" y="33"/>
      <point x="87" y="19"/>
      <point x="98" y="7" type="curve" smooth="yes"/>
      <point x="110" y="-5"/>
      <point x="129" y="-10"/>
      <point x="167" y="-10" type="curve" smooth="yes"/>
      <point x="185" y="-10"/>
      <point x="200" y="-8"/>
    </contour>
    <contour>
      <point x="34" y="700" type="curve"/>
      <point x="32" y="687"/>
      <point x="30" y="675"/>
      <point x="30" y="659" type="curve"/>
      <point x="30" y="626"/>
      <point x="36" y="605"/>
      <point x="48" y="592" type="curve" smooth="yes"/>
      <point x="54" y="586"/>
      <point x="60" y="584"/>
      <point x="68" y="584" type="curve" smooth="yes"/>
      <point x="77" y="584"/>
      <point x="91" y="587"/>
      <point x="120" y="591" type="curve" smooth="yes"/>
      <point x="172" y="599"/>
      <point x="228" y="604"/>
      <point x="281" y="604" type="curve" smooth="yes"/>
      <point x="358" y="604"/>
      <point x="396" y="590"/>
      <point x="461" y="537" type="curve"/>
      <point x="512" y="588"/>
      <point x="424" y="720"/>
      <point x="282" y="720" type="curve" smooth="yes"/>
      <point x="202" y="720"/>
      <point x="120" y="714"/>
    </contour>
    <contour>
      <point x="535" y="490" type="curve" smooth="yes"/>
      <point x="535" y="516" type="line" smooth="yes"/>
      <point x="535" y="619"/>
      <point x="463" y="720"/>
      <point x="282" y="720" type="curve"/>
      <point x="257" y="720"/>
      <point x="244" y="698"/>
      <point x="244" y="669" type="curve"/>
      <point x="371" y="647"/>
      <point x="414" y="611"/>
      <point x="414" y="508" type="curve" smooth="yes"/>
      <point x="414" y="487" type="line" smooth="yes"/>
      <point x="414" y="363"/>
      <point x="343" y="293"/>
      <point x="240" y="293" type="curve" smooth="yes"/>
      <point x="202" y="293"/>
      <point x="192" y="296"/>
      <point x="174" y="305" type="curve"/>
      <point x="165" y="296"/>
      <point x="161" y="283"/>
      <point x="161" y="270" type="curve" smooth="yes"/>
      <point x="161" y="227"/>
      <point x="199" y="187"/>
      <point x="243" y="187" type="curve" smooth="yes"/>
      <point x="248" y="187" type="line" smooth="yes"/>
      <point x="404" y="187"/>
      <point x="535" y="308"/>
    </contour>
    <contour>
      <point x="359" y="292" type="line"/>
      <point x="293" y="256"/>
      <point x="268" y="225"/>
      <point x="281" y="204" type="curve" smooth="yes"/>
      <point x="373" y="66" type="line" smooth="yes"/>
      <point x="414" y="3"/>
      <point x="450" y="-20"/>
      <point x="498" y="-20" type="curve" smooth="yes"/>
      <point x="502" y="-20" type="line" smooth="yes"/>
      <point x="546" y="-20"/>
      <point x="567" y="5"/>
      <point x="567" y="71" type="curve" smooth="yes"/>
      <point x="567" y="89"/>
      <point x="565" y="105"/>
      <point x="561" y="122" type="curve"/>
      <point x="557" y="122" type="line"/>
      <point x="546" y="113"/>
      <point x="535" y="109"/>
      <point x="518" y="109" type="curve" smooth="yes"/>
      <point x="492" y="109"/>
      <point x="469" y="122"/>
      <point x="447" y="158" type="curve" smooth="yes"/>
    </contour>
    <contour>
      <point x="298" y="711" type="move" name="top"/>
    </contour>
    <contour>
      <point x="298" y="-1" type="move" name="bottom"/>
    </contour>
  </outline>
</glyph>
<glyph name="T" format="1">
  <advance width="600"/>
  <unicode hex="0054"/>
  <outline>
    <contour>
      <point x="39" y="700" type="line"/>
      <point x="37" y="693"/>
      <point x="36" y="683"/>
      <point x="36" y="673" type="curve" smooth="yes"/>
      <point x="36" y="650"/>
      <point x="42" y="620"/>
      <point x="58" y="604" type="curve" smooth="yes"/>
      <point x="74" y="588"/>
      <point x="98" y="584"/>
      <point x="154" y="584" type="curve" smooth="yes"/>
      <point x="555" y="584" type="line"/>
      <point x="558" y="596"/>
      <point x="559" y="610"/>
      <point x="559" y="627" type="curve" smooth="yes"/>
      <point x="559" y="669"/>
      <point x="551" y="700"/>
      <point x="511" y="700" type="curve" smooth="yes"/>
    </contour>
    <contour>
      <point x="372" y="-4" type="curve"/>
      <point x="364" y="31"/>
      <point x="361" y="68"/>
      <point x="361" y="107" type="curve" smooth="yes"/>
      <point x="361" y="522" type="line" smooth="yes"/>
      <point x="361" y="593"/>
      <point x="331" y="617"/>
      <point x="239" y="617" type="curve"/>
      <point x="239" y="57" type="line" smooth="yes"/>
      <point x="239" y="33"/>
      <point x="242" y="19"/>
      <point x="254" y="7" type="curve" smooth="yes"/>
      <point x="266" y="-5"/>
      <point x="285" y="-10"/>
      <point x="322" y="-10" type="curve" smooth="yes"/>
      <point x="341" y="-10"/>
      <point x="355" y="-8"/>
    </contour>
    <contour>
      <point x="297" y="711" type="move" name="top"/>
    </contour>
    <contour>
      <point x="300" y="-1" type="move" name="bottom"/>
    </contour>
  </outline>
</glyph>
<glyph name="U" format="1">
  <advance width="650"/>
  <unicode hex="0055"/>
  <outline>
    <contour>
      <point x="62" y="703" type="curve"/>
      <point x="71" y="668"/>
      <point x="75" y="629"/>
      <point x="75" y="582" type="curve" smooth="yes"/>
      <point x="75" y="146" type="line"/>
      <point x="75" y="105"/>
      <point x="112" y="89"/>
      <point x="172" y="96" type="curve"/>
      <point x="196" y="290"/>
      <point x="212" y="403"/>
      <point x="212" y="547" type="curve"/>
      <point x="212" y="555" type="line"/>
      <point x="212" y="674"/>
      <point x="174" y="709"/>
      <point x="111" y="709" type="curve"/>
      <point x="92" y="709"/>
      <point x="79" y="708"/>
    </contour>
    <contour>
      <point x="223" y="-13" type="curve" smooth="yes"/>
      <point x="299" y="-13"/>
      <point x="394" y="33"/>
      <point x="455" y="128" type="curve" smooth="yes"/>
      <point x="485" y="181"/>
      <point x="497" y="199"/>
      <point x="461" y="260" type="curve"/>
      <point x="389" y="149"/>
      <point x="317" y="115"/>
      <point x="242" y="115" type="curve" smooth="yes"/>
      <point x="194" y="115"/>
      <point x="168" y="140"/>
      <point x="158" y="200" type="curve"/>
      <point x="127" y="196"/>
      <point x="75" y="173"/>
      <point x="75" y="146" type="curve" smooth="yes"/>
      <point x="75" y="69"/>
      <point x="145" y="-13"/>
    </contour>
    <contour>
      <point x="581" y="-7" type="curve"/>
      <point x="574" y="28"/>
      <point x="573" y="64"/>
      <point x="573" y="101" type="curve" smooth="yes"/>
      <point x="573" y="663" type="line" smooth="yes"/>
      <point x="573" y="696"/>
      <point x="542" y="709"/>
      <point x="484" y="709" type="curve" smooth="yes"/>
      <point x="472" y="709"/>
      <point x="461" y="708"/>
      <point x="451" y="705" type="curve"/>
      <point x="451" y="74" type="line" smooth="yes"/>
      <point x="451" y="46"/>
      <point x="456" y="28"/>
      <point x="473" y="11" type="curve" smooth="yes"/>
      <point x="486" y="-2"/>
      <point x="515" y="-10"/>
      <point x="546" y="-10" type="curve" smooth="yes"/>
      <point x="560" y="-10"/>
      <point x="569" y="-9"/>
    </contour>
    <contour>
      <point x="321" y="711" type="move" name="top"/>
    </contour>
    <contour>
      <point x="582" y="-7" type="move" name="ogonek"/>
    </contour>
    <contour>
      <point x="321" y="708" type="move" name="ring"/>
    </contour>
    <contour>
      <point x="321" y="-1" type="move" name="bottom"/>
    </contour>
  </outline>
</glyph>
<glyph name="V" format="1">
  <advance width="650"/>
  <unicode hex="0056"/>
  <outline>
    <contour>
      <point x="73" y="710" type="curve"/>
      <point x="54" y="710" type="line"/>
      <point x="68" y="342"/>
      <point x="128" y="153"/>
      <point x="252" y="29" type="curve"/>
      <point x="285" y="-4"/>
      <point x="312" y="-10"/>
      <point x="337" y="-10" type="curve"/>
      <point x="372" y="-10"/>
      <point x="394" y="10"/>
      <point x="409" y="56" type="curve"/>
      <point x="404" y="56"/>
      <point x="402" y="56"/>
      <point x="399" y="56" type="curve" smooth="yes"/>
      <point x="392" y="56"/>
      <point x="386" y="58"/>
      <point x="376" y="65" type="curve"/>
      <point x="249" y="169"/>
      <point x="194" y="284"/>
      <point x="177" y="671" type="curve"/>
      <point x="176" y="693"/>
      <point x="125" y="710"/>
    </contour>
    <contour>
      <point x="496" y="710" type="curve"/>
      <point x="477" y="710" type="line"/>
      <point x="454" y="321"/>
      <point x="419" y="190"/>
      <point x="294" y="82" type="curve"/>
      <point x="272" y="65"/>
      <point x="288" y="-10"/>
      <point x="337" y="-10" type="curve"/>
      <point x="374" y="-10" type="line"/>
      <point x="511" y="107"/>
      <point x="577" y="316"/>
      <point x="595" y="652" type="curve"/>
      <point x="597" y="685"/>
      <point x="548" y="710"/>
    </contour>
  </outline>
</glyph>
<glyph name="W" format="1">
  <advance width="900"/>
  <unicode hex="0057"/>
  <outline>
    <contour>
      <point x="46" y="710" type="curve"/>
      <point x="49" y="357"/>
      <point x="81" y="159"/>
      <point x="192" y="33" type="curve"/>
      <point x="216" y="4"/>
      <point x="241" y="-10"/>
      <point x="266" y="-10" type="curve"/>
      <point x="289" y="-10" type="line" smooth="yes"/>
      <point x="307" y="-10"/>
      <point x="315" y="15"/>
      <point x="315" y="52" type="curve"/>
      <point x="215" y="135"/>
      <point x="182" y="284"/>
      <point x="172" y="667" type="curve"/>
      <point x="171" y="678"/>
      <point x="169" y="681"/>
      <point x="164" y="686" type="curve" smooth="yes"/>
      <point x="147" y="702"/>
      <point x="103" y="710"/>
      <point x="65" y="710" type="curve"/>
      <point x="59" y="710"/>
      <point x="52" y="710"/>
    </contour>
    <contour>
      <point x="736" y="710" type="curve"/>
      <point x="727" y="347"/>
      <point x="697" y="187"/>
      <point x="594" y="82" type="curve"/>
      <point x="567" y="58"/>
      <point x="592" y="-10"/>
      <point x="639" y="-10" type="curve"/>
      <point x="675" y="-10" type="line"/>
      <point x="789" y="102"/>
      <point x="851" y="354"/>
      <point x="854" y="651" type="curve" smooth="yes"/>
      <point x="854" y="661"/>
      <point x="853" y="668"/>
      <point x="848" y="673" type="curve" smooth="yes"/>
      <point x="827" y="694"/>
      <point x="792" y="710"/>
      <point x="755" y="710" type="curve"/>
      <point x="749" y="710"/>
      <point x="742" y="710"/>
    </contour>
    <contour>
      <point x="426" y="620" type="curve"/>
      <point x="401" y="620" type="line"/>
      <point x="370" y="349"/>
      <point x="326" y="177"/>
      <point x="235" y="75" type="curve"/>
      <point x="211" y="53"/>
      <point x="233" y="-10"/>
      <point x="266" y="-10" type="curve"/>
      <point x="302" y="-10" type="line"/>
      <point x="397" y="96"/>
      <point x="459" y="315"/>
      <point x="484" y="550" type="curve" smooth="yes"/>
      <point x="488" y="583"/>
      <point x="460" y="620"/>
    </contour>
    <contour>
      <point x="432" y="620" type="curve"/>
      <point x="417" y="620" type="line"/>
      <point x="445" y="324"/>
      <point x="480" y="136"/>
      <point x="563" y="31" type="curve" smooth="yes"/>
      <point x="590" y="2"/>
      <point x="611" y="-10"/>
      <point x="639" y="-10" type="curve"/>
      <point x="660" y="-10" type="line"/>
      <point x="671" y="-10"/>
      <point x="679" y="19"/>
      <point x="675" y="53" type="curve"/>
      <point x="573" y="151"/>
      <point x="542" y="281"/>
      <point x="511" y="579" type="curve" smooth="yes"/>
      <point x="509" y="599"/>
      <point x="471" y="620"/>
    </contour>
    <contour>
      <point x="449" y="711" type="move" name="top"/>
    </contour>
  </outline>
</glyph>
<glyph name="X" format="1">
  <advance width="650"/>
  <unicode hex="0058"/>
  <outline>
    <contour>
      <point x="571" y="-9" type="curve" smooth="yes"/>
      <point x="595" y="-9"/>
      <point x="612" y="-6"/>
      <point x="628" y="-1" type="curve"/>
      <point x="550" y="77"/>
      <point x="456" y="200"/>
      <point x="374" y="326" type="curve" smooth="yes"/>
      <point x="366" y="339"/>
      <point x="358" y="352"/>
      <point x="350" y="365" type="curve" smooth="yes"/>
      <point x="278" y="476"/>
      <point x="216" y="588"/>
      <point x="182" y="670" type="curve" smooth="yes"/>
      <point x="170" y="700"/>
      <point x="127" y="709"/>
      <point x="41" y="709" type="curve" smooth="yes"/>
      <point x="21" y="709" type="line"/>
      <point x="75" y="591"/>
      <point x="165" y="436"/>
      <point x="257" y="298" type="curve" smooth="yes"/>
      <point x="265" y="286"/>
      <point x="273" y="273"/>
      <point x="281" y="262" type="curve" smooth="yes"/>
      <point x="346" y="168"/>
      <point x="410" y="85"/>
      <point x="460" y="30" type="curve" smooth="yes"/>
      <point x="485" y="2"/>
      <point x="523" y="-9"/>
    </contour>
    <contour>
      <point x="513" y="709" type="curve" smooth="yes"/>
      <point x="495" y="709" type="line"/>
      <point x="455" y="552"/>
      <point x="403" y="451"/>
      <point x="319" y="364" type="curve"/>
      <point x="287" y="327"/>
      <point x="319" y="279"/>
      <point x="374" y="281" type="curve"/>
      <point x="500" y="397"/>
      <point x="562" y="505"/>
      <point x="611" y="656" type="curve"/>
      <point x="614" y="667"/>
      <point x="613" y="674"/>
      <point x="608" y="679" type="curve" smooth="yes"/>
      <point x="586" y="700"/>
      <point x="549" y="709"/>
    </contour>
    <contour>
      <point x="134" y="-9" type="curve"/>
      <point x="152" y="-9" type="line"/>
      <point x="188" y="96"/>
      <point x="242" y="178"/>
      <point x="313" y="248" type="curve"/>
      <point x="341" y="276"/>
      <point x="316" y="341"/>
      <point x="267" y="346" type="curve"/>
      <point x="154" y="240"/>
      <point x="82" y="143"/>
      <point x="34" y="47" type="curve" smooth="yes"/>
      <point x="28" y="34"/>
      <point x="31" y="26"/>
      <point x="36" y="21" type="curve" smooth="yes"/>
      <point x="57" y="0"/>
      <point x="95" y="-9"/>
    </contour>
  </outline>
</glyph>
<glyph name="Z" format="1">
  <advance width="600"/>
  <unicode hex="005A"/>
  <outline>
    <contour>
      <point x="107" y="700" type="line"/>
      <point x="105" y="693"/>
      <point x="103" y="681"/>
      <point x="103" y="670" type="curve" smooth="yes"/>
      <point x="103" y="637"/>
      <point x="111" y="612"/>
      <point x="127" y="597" type="curve" smooth="yes"/>
      <point x="136" y="587"/>
      <point x="143" y="584"/>
      <point x="158" y="584" type="curve" smooth="yes"/>
      <point x="383" y="584" type="line" smooth="yes"/>
      <point x="450" y="584"/>
      <point x="485" y="568"/>
      <point x="521" y="532" type="curve" smooth="yes"/>
      <point x="537" y="549"/>
      <point x="547" y="563"/>
      <point x="547" y="575" type="curve"/>
      <point x="547" y="581" type="line" smooth="yes"/>
      <point x="547" y="641"/>
      <point x="498" y="700"/>
      <point x="446" y="700" type="curve" smooth="yes"/>
    </contour>
    <contour>
      <point x="445" y="627" type="curve"/>
      <point x="373" y="429"/>
      <point x="273" y="305"/>
      <point x="53" y="109" type="curve"/>
      <point x="53" y="74"/>
      <point x="110" y="61"/>
      <point x="154" y="82" type="curve" smooth="yes"/>
      <point x="338" y="199"/>
      <point x="547" y="495"/>
      <point x="547" y="575" type="curve"/>
      <point x="547" y="611"/>
      <point x="513" y="626"/>
    </contour>
    <contour>
      <point x="545" y="0" type="line"/>
      <point x="546" y="6"/>
      <point x="547" y="14"/>
      <point x="547" y="24" type="curve" smooth="yes"/>
      <point x="547" y="59"/>
      <point x="538" y="83"/>
      <point x="518" y="102" type="curve" smooth="yes"/>
      <point x="508" y="112"/>
      <point x="500" y="116"/>
      <point x="483" y="116" type="curve" smooth="yes"/>
      <point x="343" y="116" type="line" smooth="yes"/>
      <point x="254" y="116"/>
      <point x="139" y="113"/>
      <point x="53" y="109" type="curve"/>
      <point x="53" y="96" type="line" smooth="yes"/>
      <point x="53" y="37"/>
      <point x="69" y="0"/>
      <point x="97" y="0" type="curve" smooth="yes"/>
    </contour>
    <contour>
      <point x="181" y="481" type="curve"/>
      <point x="181" y="581"/>
      <point x="197" y="634"/>
      <point x="197" y="677" type="curve"/>
      <point x="197" y="702"/>
      <point x="152" y="720"/>
      <point x="99" y="720" type="curve" smooth="yes"/>
      <point x="92" y="720" type="line"/>
      <point x="75" y="659"/>
      <point x="67" y="594"/>
      <point x="67" y="525" type="curve"/>
      <point x="67" y="489"/>
      <point x="88" y="477"/>
      <point x="140" y="477" type="curve" smooth="yes"/>
      <point x="156" y="477"/>
      <point x="170" y="478"/>
    </contour>
    <contour>
      <point x="300" y="711" type="move" name="top"/>
    </contour>
  </outline>
</glyph>
<glyph name="bracketleft" format="1">
  <advance width="400"/>
  <unicode hex="005B"/>
  <outline>
    <contour>
      <point x="49" y="643" type="curve" smooth="yes"/>
      <point x="49" y="-47" type="line" smooth="yes"/>
      <point x="49" y="-86"/>
      <point x="116" y="-93"/>
      <point x="171" y="-93" type="curve"/>
      <point x="171" y="700" type="line" smooth="yes"/>
      <point x="171" y="747"/>
      <point x="155" y="760"/>
      <point x="92" y="760" type="curve" smooth="yes"/>
      <point x="72" y="760"/>
      <point x="56" y="758"/>
      <point x="38" y="754" type="curve"/>
      <point x="46" y="718"/>
      <point x="49" y="682"/>
    </contour>
    <contour>
      <point x="355" y="644" type="line"/>
      <point x="359" y="655"/>
      <point x="361" y="670"/>
      <point x="361" y="686" type="curve" smooth="yes"/>
      <point x="361" y="703"/>
      <point x="357" y="735"/>
      <point x="342" y="750" type="curve" smooth="yes"/>
      <point x="334" y="758"/>
      <point x="328" y="760"/>
      <point x="315" y="760" type="curve" smooth="yes"/>
      <point x="92" y="760" type="line"/>
      <point x="92" y="685"/>
      <point x="129" y="644"/>
      <point x="225" y="644" type="curve"/>
    </contour>
    <contour>
      <point x="358" y="-161" type="line"/>
      <point x="360" y="-150"/>
      <point x="362" y="-136"/>
      <point x="362" y="-119" type="curve" smooth="yes"/>
      <point x="362" y="-67"/>
      <point x="347" y="-45"/>
      <point x="313" y="-45" type="curve" smooth="yes"/>
      <point x="49" y="-45" type="line"/>
      <point x="49" y="-61" type="line" smooth="yes"/>
      <point x="49" y="-106"/>
      <point x="93" y="-161"/>
      <point x="130" y="-161" type="curve" smooth="yes"/>
    </contour>
  </outline>
</glyph>
<glyph name="bracketright" format="1">
  <advance width="400"/>
  <unicode hex="005D"/>
  <outline>
    <contour>
      <point x="351" y="-44" type="curve" smooth="yes"/>
      <point x="351" y="646" type="line" smooth="yes"/>
      <point x="351" y="685"/>
      <point x="284" y="692"/>
      <point x="229" y="692" type="curve"/>
      <point x="229" y="-101" type="line" smooth="yes"/>
      <point x="229" y="-148"/>
      <point x="245" y="-161"/>
      <point x="308" y="-161" type="curve" smooth="yes"/>
      <point x="328" y="-161"/>
      <point x="344" y="-159"/>
      <point x="362" y="-155" type="curve"/>
      <point x="354" y="-119"/>
      <point x="351" y="-83"/>
    </contour>
    <contour>
      <point x="45" y="-45" type="line"/>
      <point x="41" y="-56"/>
      <point x="39" y="-71"/>
      <point x="39" y="-87" type="curve" smooth="yes"/>
      <point x="39" y="-104"/>
      <point x="43" y="-136"/>
      <point x="58" y="-151" type="curve" smooth="yes"/>
      <point x="66" y="-159"/>
      <point x="72" y="-161"/>
      <point x="85" y="-161" type="curve" smooth="yes"/>
      <point x="308" y="-161" type="line"/>
      <point x="308" y="-86"/>
      <point x="271" y="-45"/>
      <point x="175" y="-45" type="curve"/>
    </contour>
    <contour>
      <point x="42" y="760" type="line"/>
      <point x="40" y="749"/>
      <point x="38" y="735"/>
      <point x="38" y="718" type="curve" smooth="yes"/>
      <point x="38" y="666"/>
      <point x="53" y="644"/>
      <point x="87" y="644" type="curve" smooth="yes"/>
      <point x="351" y="644" type="line"/>
      <point x="351" y="660" type="line" smooth="yes"/>
      <point x="351" y="705"/>
      <point x="307" y="760"/>
      <point x="270" y="760" type="curve" smooth="yes"/>
    </contour>
  </outline>
</glyph>
<glyph name="asciicircum" format="1">
  <advance width="600"/>
  <unicode hex="005E"/>
  <outline>
    <contour>
      <point x="156" y="362" type="line"/>
      <point x="188" y="510"/>
      <point x="245" y="591"/>
      <point x="335" y="680" type="curve"/>
      <point x="338" y="735"/>
      <point x="323" y="757"/>
      <point x="296" y="760" type="curve"/>
      <point x="267" y="760" type="line"/>
      <point x="192" y="699"/>
      <point x="116" y="593"/>
      <point x="70" y="477" type="curve" smooth="yes"/>
      <point x="56" y="441"/>
      <point x="50" y="416"/>
      <point x="50" y="405" type="curve" smooth="yes"/>
      <point x="50" y="380"/>
      <point x="94" y="362"/>
      <point x="140" y="362" type="curve"/>
    </contour>
    <contour>
      <point x="547" y="371" type="curve"/>
      <point x="503" y="537"/>
      <point x="444" y="636"/>
      <point x="363" y="724" type="curve" smooth="yes"/>
      <point x="333" y="755"/>
      <point x="321" y="760"/>
      <point x="300" y="760" type="curve" smooth="yes"/>
      <point x="292" y="760" type="line" smooth="yes"/>
      <point x="275" y="760"/>
      <point x="242" y="717"/>
      <point x="230" y="684" type="curve"/>
      <point x="235" y="684"/>
      <point x="239" y="684"/>
      <point x="243" y="684" type="curve" smooth="yes"/>
      <point x="247" y="684"/>
      <point x="253" y="681"/>
      <point x="259" y="675" type="curve" smooth="yes"/>
      <point x="342" y="596"/>
      <point x="381" y="532"/>
      <point x="422" y="397" type="curve" smooth="yes"/>
      <point x="428" y="379"/>
      <point x="454" y="364"/>
      <point x="500" y="364" type="curve" smooth="yes"/>
      <point x="518" y="364"/>
      <point x="532" y="366"/>
    </contour>
  </outline>
</glyph>
<glyph name="underscore" format="1">
  <advance width="600"/>
  <unicode hex="005F"/>
  <outline>
    <contour>
      <point x="53" y="-67" type="line"/>
      <point x="53" y="-72"/>
      <point x="53" y="-77"/>
      <point x="53" y="-83" type="curve" smooth="yes"/>
      <point x="53" y="-127"/>
      <point x="60" y="-153"/>
      <point x="74" y="-168" type="curve" smooth="yes"/>
      <point x="85" y="-179"/>
      <point x="100" y="-183"/>
      <point x="132" y="-183" type="curve"/>
      <point x="550" y="-183" type="line"/>
      <point x="552" y="-168"/>
      <point x="554" y="-152"/>
      <point x="554" y="-138" type="curve" smooth="yes"/>
      <point x="554" y="-87"/>
      <point x="542" y="-67"/>
      <point x="499" y="-67" type="curve"/>
    </contour>
  </outline>
</glyph>
<glyph name="grave" format="1">
  <advance width="350"/>
  <unicode hex="0060"/>
  <outline>
    <contour>
      <point x="289" y="399" type="curve"/>
      <point x="238" y="485"/>
      <point x="216" y="575"/>
      <point x="216" y="713" type="curve"/>
      <point x="194" y="718"/>
      <point x="179" y="720"/>
      <point x="158" y="720" type="curve" smooth="yes"/>
      <point x="100" y="720"/>
      <point x="61" y="708"/>
      <point x="61" y="657" type="curve" smooth="yes"/>
      <point x="61" y="556"/>
      <point x="111" y="440"/>
      <point x="166" y="385" type="curve" smooth="yes"/>
      <point x="176" y="376"/>
      <point x="186" y="373"/>
      <point x="203" y="373" type="curve" smooth="yes"/>
      <point x="240" y="373"/>
      <point x="264" y="380"/>
    </contour>
  </outline>
</glyph>
<glyph name="b" format="1">
  <advance width="600"/>
  <unicode hex="0062"/>
  <outline>
    <contour>
      <point x="80" y="0" type="line"/>
      <point x="92" y="-4"/>
      <point x="107" y="-5"/>
      <point x="124" y="-5" type="curve" smooth="yes"/>
      <point x="176" y="-5"/>
      <point x="196" y="18"/>
      <point x="196" y="63" type="curve" smooth="yes"/>
      <point x="196" y="643" type="line"/>
      <point x="196" y="724"/>
      <point x="173" y="757"/>
      <point x="102" y="757" type="curve" smooth="yes"/>
      <point x="90" y="757"/>
      <point x="79" y="756"/>
      <point x="67" y="753" type="curve"/>
      <point x="77" y="721"/>
      <point x="80" y="694"/>
      <point x="80" y="651" type="curve" smooth="yes"/>
    </contour>
    <contour>
      <point x="392" y="547" type="curve" smooth="yes"/>
      <point x="300" y="547"/>
      <point x="208" y="462"/>
      <point x="179" y="358" type="curve" smooth="yes"/>
      <point x="167" y="313"/>
      <point x="171" y="257"/>
      <point x="186" y="224" type="curve"/>
      <point x="238" y="372"/>
      <point x="301" y="424"/>
      <point x="381" y="424" type="curve" smooth="yes"/>
      <point x="418" y="424"/>
      <point x="458" y="392"/>
      <point x="502" y="319" type="curve"/>
      <point x="535" y="321"/>
      <point x="548" y="331"/>
      <point x="548" y="340" type="curve" smooth="yes"/>
      <point x="548" y="457"/>
      <point x="477" y="547"/>
    </contour>
    <contour>
      <point x="335" y="-11" type="curve" smooth="yes"/>
      <point x="447" y="-11"/>
      <point x="548" y="86"/>
      <point x="548" y="319" type="curve" smooth="yes"/>
      <point x="548" y="340" type="line" smooth="yes"/>
      <point x="548" y="392"/>
      <point x="509" y="472"/>
      <point x="442" y="472" type="curve"/>
      <point x="422" y="472"/>
      <point x="405" y="461"/>
      <point x="405" y="430" type="curve"/>
      <point x="425" y="401"/>
      <point x="429" y="375"/>
      <point x="429" y="315" type="curve" smooth="yes"/>
      <point x="429" y="304" type="line" smooth="yes"/>
      <point x="429" y="171"/>
      <point x="388" y="100"/>
      <point x="301" y="100" type="curve" smooth="yes"/>
      <point x="249" y="100"/>
      <point x="217" y="120"/>
      <point x="183" y="157" type="curve"/>
      <point x="172" y="137"/>
      <point x="169" y="101"/>
      <point x="184" y="78" type="curve" smooth="yes"/>
      <point x="200" y="36"/>
      <point x="261" y="-11"/>
    </contour>
  </outline>
</glyph>
<glyph name="c" format="1">
  <advance width="500"/>
  <unicode hex="0063"/>
  <outline>
    <contour>
      <point x="325" y="547" type="curve" smooth="yes"/>
      <point x="164" y="547"/>
      <point x="58" y="427"/>
      <point x="58" y="248" type="curve" smooth="yes"/>
      <point x="58" y="234" type="line" smooth="yes"/>
      <point x="58" y="64"/>
      <point x="160" y="-12"/>
      <point x="300" y="-11" type="curve" smooth="yes"/>
      <point x="325" y="-11"/>
      <point x="326" y="7"/>
      <point x="326" y="42" type="curve"/>
      <point x="222" y="55"/>
      <point x="173" y="132"/>
      <point x="173" y="225" type="curve" smooth="yes"/>
      <point x="173" y="238" type="line" smooth="yes"/>
      <point x="173" y="347"/>
      <point x="223" y="428"/>
      <point x="315" y="428" type="curve" smooth="yes"/>
      <point x="369" y="428"/>
      <point x="399" y="417"/>
      <point x="437" y="387" type="curve"/>
      <point x="441" y="387" type="line"/>
      <point x="450" y="407"/>
      <point x="453" y="427"/>
      <point x="453" y="453" type="curve"/>
      <point x="453" y="486"/>
      <point x="447" y="502"/>
      <point x="433" y="516" type="curve" smooth="yes"/>
      <point x="414" y="536"/>
      <point x="376" y="547"/>
    </contour>
    <contour>
      <point x="300" y="-11" type="curve" smooth="yes"/>
      <point x="363" y="-11"/>
      <point x="412" y="3"/>
      <point x="433" y="23" type="curve" smooth="yes"/>
      <point x="452" y="42"/>
      <point x="459" y="73"/>
      <point x="459" y="114" type="curve"/>
      <point x="459" y="131"/>
      <point x="458" y="141"/>
      <point x="456" y="152" type="curve"/>
      <point x="452" y="152" type="line"/>
      <point x="408" y="116"/>
      <point x="368" y="101"/>
      <point x="305" y="101" type="curve" smooth="yes"/>
      <point x="240" y="101"/>
      <point x="193" y="121"/>
      <point x="148" y="175" type="curve"/>
      <point x="92" y="92"/>
      <point x="173" y="-11"/>
    </contour>
    <contour>
      <point x="285" y="546" type="move" name="top"/>
    </contour>
    <contour>
      <point x="288" y="-1" type="move" name="bottom"/>
    </contour>
  </outline>
</glyph>
<glyph name="d" format="1">
  <advance width="600"/>
  <unicode hex="0064"/>
  <outline>
    <contour>
      <point x="265" y="547" type="curve" smooth="yes"/>
      <point x="153" y="547"/>
      <point x="52" y="449"/>
      <point x="52" y="216" type="curve" smooth="yes"/>
      <point x="52" y="196" type="line" smooth="yes"/>
      <point x="52" y="143"/>
      <point x="91" y="63"/>
      <point x="158" y="63" type="curve" smooth="yes"/>
      <point x="178" y="63"/>
      <point x="195" y="74"/>
      <point x="195" y="105" type="curve"/>
      <point x="175" y="134"/>
      <point x="171" y="160"/>
      <point x="171" y="220" type="curve" smooth="yes"/>
      <point x="171" y="231" type="line" smooth="yes"/>
      <point x="171" y="364"/>
      <point x="212" y="435"/>
      <point x="299" y="435" type="curve" smooth="yes"/>
      <point x="351" y="435"/>
      <point x="383" y="416"/>
      <point x="417" y="378" type="curve"/>
      <point x="428" y="398"/>
      <point x="431" y="434"/>
      <point x="416" y="457" type="curve" smooth="yes"/>
      <point x="400" y="500"/>
      <point x="339" y="547"/>
    </contour>
    <contour>
      <point x="208" y="-11" type="curve" smooth="yes"/>
      <point x="300" y="-11"/>
      <point x="392" y="74"/>
      <point x="421" y="178" type="curve" smooth="yes"/>
      <point x="433" y="222"/>
      <point x="429" y="278"/>
      <point x="414" y="311" type="curve"/>
      <point x="362" y="163"/>
      <point x="299" y="112"/>
      <point x="219" y="112" type="curve" smooth="yes"/>
      <point x="182" y="112"/>
      <point x="142" y="143"/>
      <point x="98" y="217" type="curve"/>
      <point x="65" y="214"/>
      <point x="52" y="205"/>
      <point x="52" y="196" type="curve" smooth="yes"/>
      <point x="52" y="79"/>
      <point x="123" y="-11"/>
    </contour>
    <contour>
      <point x="393" y="752" type="curve"/>
      <point x="401" y="719"/>
      <point x="404" y="695"/>
      <point x="404" y="654" type="curve" smooth="yes"/>
      <point x="404" y="164" type="line"/>
      <point x="404" y="93"/>
      <point x="422" y="42"/>
      <point x="445" y="19" type="curve" smooth="yes"/>
      <point x="462" y="3"/>
      <point x="482" y="-4"/>
      <point x="501" y="-4" type="curve" smooth="yes"/>
      <point x="512" y="-4"/>
      <point x="521" y="-3"/>
      <point x="532" y="0" type="curve"/>
      <point x="523" y="33"/>
      <point x="520" y="57"/>
      <point x="520" y="99" type="curve" smooth="yes"/>
      <point x="520" y="691" type="line"/>
      <point x="520" y="711"/>
      <point x="516" y="727"/>
      <point x="506" y="737" type="curve" smooth="yes"/>
      <point x="490" y="753"/>
      <point x="469" y="757"/>
      <point x="440" y="757" type="curve" smooth="yes"/>
      <point x="423" y="757"/>
      <point x="406" y="755"/>
    </contour>
    <contour>
      <point x="487" y="701" type="move" name="caronslovak"/>
    </contour>
  </outline>
</glyph>
<glyph name="f" format="1">
  <advance width="400"/>
  <unicode hex="0066"/>
  <outline>
    <contour>
      <point x="230" y="-2" type="curve"/>
      <point x="222" y="31"/>
      <point x="219" y="61"/>
      <point x="219" y="101" type="curve" smooth="yes"/>
      <point x="219" y="531" type="line" smooth="yes"/>
      <point x="211" y="562"/>
      <point x="207" y="591"/>
      <point x="207" y="629" type="curve" smooth="yes"/>
      <point x="207" y="692"/>
      <point x="237" y="727"/>
      <point x="306" y="726" type="curve"/>
      <point x="306" y="749"/>
      <point x="298" y="766"/>
      <point x="276" y="766" type="curve" smooth="yes"/>
      <point x="170" y="766"/>
      <point x="97" y="693"/>
      <point x="97" y="585" type="curve" smooth="yes"/>
      <point x="97" y="57" type="line" smooth="yes"/>
      <point x="97" y="8"/>
      <point x="129" y="-7"/>
      <point x="186" y="-7" type="curve" smooth="yes"/>
      <point x="201" y="-7"/>
      <point x="218" y="-6"/>
    </contour>
    <contour>
      <point x="156" y="619" type="curve"/>
      <point x="190" y="649"/>
      <point x="225" y="660"/>
      <point x="274" y="660" type="curve" smooth="yes"/>
      <point x="317" y="660"/>
      <point x="355" y="652"/>
      <point x="391" y="636" type="curve"/>
      <point x="395" y="636" type="line"/>
      <point x="398" y="647"/>
      <point x="399" y="661"/>
      <point x="399" y="674" type="curve"/>
      <point x="399" y="706"/>
      <point x="394" y="726"/>
      <point x="379" y="742" type="curve" smooth="yes"/>
      <point x="366" y="754"/>
      <point x="334" y="766"/>
      <point x="276" y="766" type="curve" smooth="yes"/>
      <point x="178" y="766"/>
      <point x="119" y="685"/>
    </contour>
    <contour>
      <point x="22" y="535" type="curve"/>
      <point x="22" y="530"/>
      <point x="22" y="525"/>
      <point x="22" y="519" type="curve" smooth="yes"/>
      <point x="22" y="480"/>
      <point x="29" y="457"/>
      <point x="43" y="442" type="curve" smooth="yes"/>
      <point x="59" y="427"/>
      <point x="73" y="420"/>
      <point x="119" y="420" type="curve" smooth="yes"/>
      <point x="215" y="420"/>
      <point x="281" y="420"/>
      <point x="366" y="420" type="curve"/>
      <point x="368" y="432"/>
      <point x="370" y="448"/>
      <point x="370" y="464" type="curve" smooth="yes"/>
      <point x="370" y="515"/>
      <point x="358" y="535"/>
      <point x="315" y="535" type="curve" smooth="yes"/>
      <point x="252" y="535"/>
      <point x="124" y="535"/>
    </contour>
  </outline>
</glyph>
<glyph name="g" format="1">
  <advance width="600"/>
  <unicode hex="0067"/>
  <outline>
    <contour>
      <point x="322" y="447" type="curve" smooth="yes"/>
      <point x="447" y="447"/>
      <point x="494" y="434"/>
      <point x="531" y="434" type="curve" smooth="yes"/>
      <point x="561" y="434"/>
      <point x="572" y="462"/>
      <point x="572" y="502" type="curve" smooth="yes"/>
      <point x="572" y="516"/>
      <point x="570" y="530"/>
      <point x="567" y="538" type="curve"/>
      <point x="490" y="545"/>
      <point x="420" y="549"/>
      <point x="331" y="549" type="curve" smooth="yes"/>
      <point x="165" y="549"/>
      <point x="72" y="469"/>
      <point x="72" y="352" type="curve" smooth="yes"/>
      <point x="72" y="344" type="line" smooth="yes"/>
      <point x="72" y="228"/>
      <point x="166" y="152"/>
      <point x="300" y="154" type="curve"/>
      <point x="334" y="154"/>
      <point x="343" y="165"/>
      <point x="343" y="205" type="curve"/>
      <point x="227" y="208"/>
      <point x="178" y="271"/>
      <point x="178" y="331" type="curve" smooth="yes"/>
      <point x="178" y="338" type="line" smooth="yes"/>
      <point x="178" y="412"/>
      <point x="229" y="447"/>
    </contour>
    <contour>
      <point x="292" y="253" type="curve" smooth="yes"/>
      <point x="236" y="253"/>
      <point x="207" y="261"/>
      <point x="165" y="287" type="curve"/>
      <point x="140" y="232"/>
      <point x="203" y="154"/>
      <point x="300" y="154" type="curve" smooth="yes"/>
      <point x="423" y="154"/>
      <point x="509" y="221"/>
      <point x="509" y="316" type="curve" smooth="yes"/>
      <point x="509" y="324" type="line" smooth="yes"/>
      <point x="509" y="391"/>
      <point x="463" y="439"/>
      <point x="403" y="464" type="curve" smooth="yes"/>
      <point x="379" y="476"/>
      <point x="339" y="470"/>
      <point x="330" y="461" type="curve"/>
      <point x="386" y="436"/>
      <point x="407" y="395"/>
      <point x="407" y="354" type="curve" smooth="yes"/>
      <point x="407" y="344" type="line" smooth="yes"/>
      <point x="407" y="282"/>
      <point x="367" y="253"/>
    </contour>
    <contour>
      <point x="158" y="73" type="curve" smooth="yes"/>
      <point x="158" y="69" type="line" smooth="yes"/>
      <point x="158" y="4"/>
      <point x="206" y="-34"/>
      <point x="287" y="-40" type="curve" smooth="yes"/>
      <point x="398" y="-47" type="line" smooth="yes"/>
      <point x="432" y="-49"/>
      <point x="449" y="-69"/>
      <point x="449" y="-98" type="curve" smooth="yes"/>
      <point x="449" y="-103" type="line" smooth="yes"/>
      <point x="449" y="-168"/>
      <point x="389" y="-207"/>
      <point x="252" y="-207" type="curve"/>
      <point x="252" y="-237"/>
      <point x="256" y="-250"/>
      <point x="279" y="-250" type="curve" smooth="yes"/>
      <point x="457" y="-250"/>
      <point x="563" y="-190"/>
      <point x="563" y="-69" type="curve" smooth="yes"/>
      <point x="563" y="-60" type="line" smooth="yes"/>
      <point x="563" y="10"/>
      <point x="511" y="52"/>
      <point x="432" y="58" type="curve" smooth="yes"/>
      <point x="307" y="67" type="line" smooth="yes"/>
      <point x="280" y="69"/>
      <point x="267" y="82"/>
      <point x="267" y="105" type="curve" smooth="yes"/>
      <point x="267" y="108" type="line" smooth="yes"/>
      <point x="267" y="131"/>
      <point x="275" y="153"/>
      <point x="295" y="175" type="curve"/>
      <point x="293" y="187"/>
      <point x="287" y="191"/>
      <point x="273" y="191" type="curve" smooth="yes"/>
      <point x="222" y="191"/>
      <point x="158" y="137"/>
    </contour>
    <contour>
      <point x="495" y="-123" type="curve"/>
      <point x="439" y="-158"/>
      <point x="391" y="-167"/>
      <point x="286" y="-167" type="curve" smooth="yes"/>
      <point x="261" y="-167" type="line" smooth="yes"/>
      <point x="191" y="-167"/>
      <point x="159" y="-147"/>
      <point x="159" y="-102" type="curve" smooth="yes"/>
      <point x="159" y="-96" type="line" smooth="yes"/>
      <point x="159" y="-49"/>
      <point x="183" y="-17"/>
      <point x="235" y="2" type="curve"/>
      <point x="234" y="19"/>
      <point x="213" y="31"/>
      <point x="187" y="30" type="curve" smooth="yes"/>
      <point x="98" y="27"/>
      <point x="40" y="-31"/>
      <point x="40" y="-107" type="curve" smooth="yes"/>
      <point x="40" y="-113" type="line" smooth="yes"/>
      <point x="40" y="-192"/>
      <point x="116" y="-250"/>
      <point x="257" y="-250" type="curve" smooth="yes"/>
      <point x="279" y="-250" type="line" smooth="yes"/>
      <point x="427" y="-250"/>
      <point x="512" y="-182"/>
    </contour>
  </outline>
</glyph>
<glyph name="h" format="1">
  <advance width="600"/>
  <unicode hex="0068"/>
  <outline>
    <contour>
      <point x="199" y="-2" type="curve"/>
      <point x="199" y="640" type="line" smooth="yes"/>
      <point x="199" y="689"/>
      <point x="192" y="714"/>
      <point x="175" y="732" type="curve" smooth="yes"/>
      <point x="156" y="750"/>
      <point x="135" y="757"/>
      <point x="98" y="757" type="curve" smooth="yes"/>
      <point x="88" y="757"/>
      <point x="78" y="756"/>
      <point x="67" y="753" type="curve"/>
      <point x="76" y="720"/>
      <point x="80" y="695"/>
      <point x="80" y="654" type="curve" smooth="yes"/>
      <point x="80" y="43" type="line" smooth="yes"/>
      <point x="80" y="1"/>
      <point x="113" y="-6"/>
      <point x="158" y="-6" type="curve" smooth="yes"/>
      <point x="174" y="-6"/>
      <point x="188" y="-4"/>
    </contour>
    <contour>
      <point x="405" y="547" type="curve" smooth="yes"/>
      <point x="313" y="547"/>
      <point x="226" y="452"/>
      <point x="188" y="335" type="curve" smooth="yes"/>
      <point x="170" y="268"/>
      <point x="171" y="199"/>
      <point x="190" y="148" type="curve"/>
      <point x="230" y="345"/>
      <point x="299" y="420"/>
      <point x="367" y="420" type="curve" smooth="yes"/>
      <point x="401" y="420"/>
      <point x="426" y="392"/>
      <point x="440" y="336" type="curve"/>
      <point x="491" y="337"/>
      <point x="519" y="361"/>
      <point x="519" y="388" type="curve" smooth="yes"/>
      <point x="519" y="465"/>
      <point x="470" y="547"/>
    </contour>
    <contour>
      <point x="537" y="0" type="curve"/>
      <point x="523" y="54"/>
      <point x="519" y="89"/>
      <point x="519" y="147" type="curve" smooth="yes"/>
      <point x="519" y="388" type="line"/>
      <point x="519" y="418"/>
      <point x="495" y="435"/>
      <point x="423" y="433" type="curve"/>
      <point x="406" y="309"/>
      <point x="392" y="225"/>
      <point x="392" y="134" type="curve" smooth="yes"/>
      <point x="392" y="129" type="line" smooth="yes"/>
      <point x="392" y="23"/>
      <point x="430" y="-5"/>
      <point x="494" y="-5" type="curve" smooth="yes"/>
      <point x="510" y="-5"/>
      <point x="522" y="-3"/>
    </contour>
    <contour>
      <point x="135" y="730" type="move" name="top"/>
    </contour>
  </outline>
</glyph>
<glyph name="i" format="1">
  <advance width="350"/>
  <unicode hex="0069"/>
  <outline>
    <contour>
      <point x="32" y="539" type="curve"/>
      <point x="30" y="528"/>
      <point x="28" y="514"/>
      <point x="28" y="498" type="curve" smooth="yes"/>
      <point x="28" y="444"/>
      <point x="44" y="423"/>
      <point x="64" y="423" type="curve" smooth="yes"/>
      <point x="84" y="423"/>
      <point x="111" y="435"/>
      <point x="172" y="435" type="curve"/>
      <point x="172" y="496"/>
      <point x="174" y="545"/>
      <point x="136" y="545" type="curve" smooth="yes"/>
      <point x="104" y="545"/>
      <point x="70" y="544"/>
    </contour>
    <contour>
      <point x="262" y="-2" type="curve"/>
      <point x="254" y="31"/>
      <point x="251" y="61"/>
      <point x="251" y="101" type="curve" smooth="yes"/>
      <point x="251" y="500" type="line" smooth="yes"/>
      <point x="251" y="533"/>
      <point x="219" y="545"/>
      <point x="145" y="545" type="curve" smooth="yes"/>
      <point x="136" y="545" type="line"/>
      <point x="136" y="57" type="line" smooth="yes"/>
      <point x="136" y="8"/>
      <point x="163" y="-7"/>
      <point x="220" y="-7" type="curve" smooth="yes"/>
      <point x="236" y="-7"/>
      <point x="249" y="-6"/>
    </contour>
    <contour>
      <point x="265" y="628" type="curve"/>
      <point x="265" y="700" type="line" smooth="yes"/>
      <point x="265" y="743"/>
      <point x="229" y="753"/>
      <point x="181" y="753" type="curve" smooth="yes"/>
      <point x="162" y="753"/>
      <point x="138" y="752"/>
      <point x="119" y="748" type="curve"/>
      <point x="119" y="676" type="line" smooth="yes"/>
      <point x="119" y="633"/>
      <point x="155" y="623"/>
      <point x="203" y="623" type="curve" smooth="yes"/>
      <point x="223" y="623"/>
      <point x="246" y="625"/>
    </contour>
    <contour>
      <point x="263" y="-2" type="move" name="ogonek"/>
    </contour>
    <contour>
      <point x="198" y="-1" type="move" name="bottom"/>
    </contour>
  </outline>
</glyph>
<glyph name="j" format="1">
  <advance width="350"/>
  <unicode hex="006A"/>
  <outline>
    <contour>
      <point x="41" y="538" type="curve"/>
      <point x="38" y="527"/>
      <point x="37" y="512"/>
      <point x="37" y="496" type="curve" smooth="yes"/>
      <point x="37" y="443"/>
      <point x="53" y="422"/>
      <point x="73" y="422" type="curve" smooth="yes"/>
      <point x="93" y="422"/>
      <point x="124" y="435"/>
      <point x="190" y="435" type="curve"/>
      <point x="190" y="508"/>
      <point x="182" y="545"/>
      <point x="154" y="545" type="curve" smooth="yes"/>
      <point x="124" y="545"/>
      <point x="74" y="542"/>
    </contour>
    <contour>
      <point x="270" y="-49" type="curve" smooth="yes"/>
      <point x="270" y="491" type="line" smooth="yes"/>
      <point x="270" y="505"/>
      <point x="267" y="511"/>
      <point x="257" y="520" type="curve" smooth="yes"/>
      <point x="241" y="537"/>
      <point x="203" y="545"/>
      <point x="162" y="545" type="curve" smooth="yes"/>
      <point x="154" y="545" type="line"/>
      <point x="154" y="-25" type="line" smooth="yes"/>
      <point x="154" y="-105"/>
      <point x="144" y="-142"/>
      <point x="113" y="-185" type="curve"/>
      <point x="165" y="-204"/>
      <point x="270" y="-128"/>
    </contour>
    <contour>
      <point x="95" y="-134" type="curve" smooth="yes"/>
      <point x="63" y="-134"/>
      <point x="44" y="-130"/>
      <point x="15" y="-115" type="curve"/>
      <point x="11" y="-115" type="line"/>
      <point x="8" y="-125"/>
      <point x="7" y="-134"/>
      <point x="7" y="-145" type="curve" smooth="yes"/>
      <point x="7" y="-178"/>
      <point x="16" y="-212"/>
      <point x="32" y="-228" type="curve" smooth="yes"/>
      <point x="46" y="-242"/>
      <point x="67" y="-250"/>
      <point x="103" y="-250" type="curve" smooth="yes"/>
      <point x="200" y="-250"/>
      <point x="270" y="-158"/>
      <point x="270" y="-49" type="curve" smooth="yes"/>
      <point x="270" y="-7"/>
      <point x="253" y="-5"/>
      <point x="236" y="-5" type="curve"/>
      <point x="216" y="-96"/>
      <point x="159" y="-134"/>
    </contour>
    <contour>
      <point x="280" y="628" type="curve"/>
      <point x="280" y="700" type="line" smooth="yes"/>
      <point x="280" y="743"/>
      <point x="244" y="753"/>
      <point x="196" y="753" type="curve" smooth="yes"/>
      <point x="176" y="753"/>
      <point x="153" y="752"/>
      <point x="134" y="748" type="curve"/>
      <point x="134" y="676" type="line" smooth="yes"/>
      <point x="134" y="633"/>
      <point x="170" y="623"/>
      <point x="218" y="623" type="curve" smooth="yes"/>
      <point x="237" y="623"/>
      <point x="261" y="625"/>
    </contour>
  </outline>
</glyph>
<glyph name="l" format="1">
  <advance width="300"/>
  <unicode hex="006C"/>
  <outline>
    <contour>
      <point x="70" y="653" type="curve"/>
      <point x="70" y="134" type="line" smooth="yes"/>
      <point x="70" y="61"/>
      <point x="150" y="8"/>
      <point x="203" y="22" type="curve"/>
      <point x="191" y="69"/>
      <point x="189" y="112"/>
      <point x="189" y="172" type="curve" smooth="yes"/>
      <point x="189" y="654" type="line" smooth="yes"/>
      <point x="189" y="696"/>
      <point x="187" y="714"/>
      <point x="168" y="732" type="curve" smooth="yes"/>
      <point x="150" y="751"/>
      <point x="126" y="756"/>
      <point x="91" y="756" type="curve" smooth="yes"/>
      <point x="80" y="756"/>
      <point x="69" y="755"/>
      <point x="58" y="752" type="curve"/>
      <point x="67" y="719"/>
      <point x="70" y="695"/>
    </contour>
    <contour>
      <point x="280" y="121" type="curve"/>
      <point x="276" y="121" type="line"/>
      <point x="261" y="111"/>
      <point x="245" y="106"/>
      <point x="222" y="106" type="curve" smooth="yes"/>
      <point x="181" y="106"/>
      <point x="162" y="124"/>
      <point x="149" y="176" type="curve"/>
      <point x="92" y="176"/>
      <point x="70" y="156"/>
      <point x="70" y="134" type="curve" smooth="yes"/>
      <point x="70" y="47"/>
      <point x="126" y="-10"/>
      <point x="196" y="-10" type="curve" smooth="yes"/>
      <point x="203" y="-10" type="line" smooth="yes"/>
      <point x="231" y="-10"/>
      <point x="250" y="-5"/>
      <point x="263" y="9" type="curve" smooth="yes"/>
      <point x="275" y="21"/>
      <point x="284" y="36"/>
      <point x="284" y="83" type="curve" smooth="yes"/>
      <point x="284" y="96"/>
      <point x="283" y="110"/>
    </contour>
    <contour>
      <point x="321" y="711" type="move" name="caronslovak"/>
    </contour>
    <contour>
      <point x="128" y="740" type="move" name="top"/>
    </contour>
    <contour>
      <point x="321" y="400" type="move" name="dot"/>
    </contour>
    <contour>
      <point x="171" y="-1" type="move" name="bottom"/>
    </contour>
  </outline>
</glyph>
<glyph name="m" format="1">
  <advance width="850"/>
  <unicode hex="006D"/>
  <outline>
    <contour>
      <point x="199" y="-2" type="curve"/>
      <point x="199" y="439" type="line" smooth="yes"/>
      <point x="199" y="482"/>
      <point x="194" y="500"/>
      <point x="177" y="518" type="curve" smooth="yes"/>
      <point x="159" y="536"/>
      <point x="122" y="541"/>
      <point x="98" y="541" type="curve" smooth="yes"/>
      <point x="87" y="541"/>
      <point x="76" y="540"/>
      <point x="65" y="537" type="curve"/>
      <point x="74" y="504"/>
      <point x="77" y="479"/>
      <point x="77" y="438" type="curve" smooth="yes"/>
      <point x="77" y="43" type="line" smooth="yes"/>
      <point x="77" y="1"/>
      <point x="113" y="-6"/>
      <point x="158" y="-6" type="curve" smooth="yes"/>
      <point x="174" y="-6"/>
      <point x="188" y="-5"/>
    </contour>
    <contour>
      <point x="372" y="547" type="curve" smooth="yes"/>
      <point x="280" y="547"/>
      <point x="207" y="455"/>
      <point x="179" y="351" type="curve" smooth="yes"/>
      <point x="163" y="287"/>
      <point x="156" y="225"/>
      <point x="175" y="178" type="curve"/>
      <point x="214" y="363"/>
      <point x="273" y="420"/>
      <point x="328" y="420" type="curve" smooth="yes"/>
      <point x="368" y="420"/>
      <point x="393" y="392"/>
      <point x="407" y="336" type="curve"/>
      <point x="458" y="337"/>
      <point x="486" y="361"/>
      <point x="486" y="388" type="curve" smooth="yes"/>
      <point x="486" y="465"/>
      <point x="437" y="547"/>
    </contour>
    <contour>
      <point x="486" y="0" type="curve"/>
      <point x="486" y="388" type="line"/>
      <point x="486" y="417"/>
      <point x="462" y="433"/>
      <point x="390" y="431" type="curve"/>
      <point x="373" y="314"/>
      <point x="359" y="217"/>
      <point x="359" y="131" type="curve" smooth="yes"/>
      <point x="359" y="126" type="line" smooth="yes"/>
      <point x="359" y="20"/>
      <point x="390" y="-5"/>
      <point x="453" y="-5" type="curve" smooth="yes"/>
      <point x="466" y="-5"/>
      <point x="476" y="-4"/>
    </contour>
    <contour>
      <point x="658" y="547" type="curve" smooth="yes"/>
      <point x="567" y="547"/>
      <point x="492" y="457"/>
      <point x="464" y="353" type="curve" smooth="yes"/>
      <point x="448" y="289"/>
      <point x="441" y="225"/>
      <point x="460" y="178" type="curve"/>
      <point x="499" y="363"/>
      <point x="560" y="420"/>
      <point x="616" y="420" type="curve" smooth="yes"/>
      <point x="655" y="420"/>
      <point x="680" y="392"/>
      <point x="694" y="336" type="curve"/>
      <point x="745" y="337"/>
      <point x="773" y="361"/>
      <point x="773" y="388" type="curve" smooth="yes"/>
      <point x="773" y="465"/>
      <point x="724" y="547"/>
    </contour>
    <contour>
      <point x="791" y="0" type="curve"/>
      <point x="777" y="54"/>
      <point x="773" y="89"/>
      <point x="773" y="147" type="curve" smooth="yes"/>
      <point x="773" y="388" type="line"/>
      <point x="773" y="418"/>
      <point x="749" y="435"/>
      <point x="677" y="433" type="curve"/>
      <point x="659" y="309"/>
      <point x="646" y="225"/>
      <point x="646" y="134" type="curve" smooth="yes"/>
      <point x="646" y="129" type="line" smooth="yes"/>
      <point x="646" y="23"/>
      <point x="684" y="-5"/>
      <point x="748" y="-5" type="curve" smooth="yes"/>
      <point x="764" y="-5"/>
      <point x="776" y="-3"/>
    </contour>
  </outline>
</glyph>
<glyph name="r" format="1">
  <advance width="450"/>
  <unicode hex="0072"/>
  <outline>
    <contour>
      <point x="202" y="-1" type="curve"/>
      <point x="202" y="449" type="line" smooth="yes"/>
      <point x="202" y="483"/>
      <point x="197" y="501"/>
      <point x="183" y="514" type="curve" smooth="yes"/>
      <point x="164" y="533"/>
      <point x="135" y="541"/>
      <point x="100" y="541" type="curve" smooth="yes"/>
      <point x="89" y="541"/>
      <point x="78" y="540"/>
      <point x="67" y="538" type="curve"/>
      <point x="76" y="505"/>
      <point x="80" y="480"/>
      <point x="80" y="438" type="curve" smooth="yes"/>
      <point x="80" y="44" type="line" smooth="yes"/>
      <point x="80" y="2"/>
      <point x="115" y="-5"/>
      <point x="160" y="-5" type="curve" smooth="yes"/>
      <point x="176" y="-5"/>
      <point x="191" y="-3"/>
    </contour>
    <contour>
      <point x="198" y="193" type="curve"/>
      <point x="236" y="351"/>
      <point x="286" y="414"/>
      <point x="355" y="414" type="curve" smooth="yes"/>
      <point x="378" y="414"/>
      <point x="393" y="410"/>
      <point x="411" y="399" type="curve"/>
      <point x="415" y="399" type="line"/>
      <point x="421" y="420"/>
      <point x="424" y="436"/>
      <point x="424" y="465" type="curve"/>
      <point x="424" y="519"/>
      <point x="402" y="553"/>
      <point x="359" y="553" type="curve" smooth="yes"/>
      <point x="356" y="553" type="line" smooth="yes"/>
      <point x="278" y="553"/>
      <point x="216" y="459"/>
      <point x="184" y="302" type="curve" smooth="yes"/>
      <point x="176" y="272"/>
      <point x="175" y="242"/>
    </contour>
    <contour>
      <point x="245" y="546" type="move" name="top"/>
    </contour>
    <contour>
      <point x="142" y="-1" type="move" name="bottom"/>
    </contour>
  </outline>
</glyph>
<glyph name="s" format="1">
  <advance width="550"/>
  <unicode hex="0073"/>
  <outline>
    <contour>
      <point x="333" y="547" type="curve" smooth="yes"/>
      <point x="324" y="547" type="line" smooth="yes"/>
      <point x="184" y="547"/>
      <point x="83" y="480"/>
      <point x="83" y="374" type="curve" smooth="yes"/>
      <point x="83" y="338"/>
      <point x="137" y="312"/>
      <point x="210" y="312" type="curve"/>
      <point x="200" y="337"/>
      <point x="198" y="353"/>
      <point x="198" y="372" type="curve" smooth="yes"/>
      <point x="198" y="406"/>
      <point x="241" y="432"/>
      <point x="325" y="432" type="curve" smooth="yes"/>
      <point x="387" y="432"/>
      <point x="422" y="420"/>
      <point x="462" y="400" type="curve"/>
      <point x="466" y="400" type="line"/>
      <point x="469" y="411"/>
      <point x="470" y="422"/>
      <point x="470" y="433" type="curve"/>
      <point x="470" y="477"/>
      <point x="461" y="503"/>
      <point x="445" y="520" type="curve" smooth="yes"/>
      <point x="428" y="537"/>
      <point x="387" y="547"/>
    </contour>
    <contour>
      <point x="352" y="303" type="curve" smooth="yes"/>
      <point x="287" y="317" type="line" smooth="yes"/>
      <point x="217" y="332"/>
      <point x="198" y="343"/>
      <point x="198" y="372" type="curve" smooth="yes"/>
      <point x="198" y="389"/>
      <point x="201" y="410"/>
      <point x="211" y="435" type="curve"/>
      <point x="132" y="423"/>
      <point x="83" y="403"/>
      <point x="83" y="374" type="curve"/>
      <point x="83" y="297"/>
      <point x="125" y="255"/>
      <point x="233" y="231" type="curve" smooth="yes"/>
      <point x="312" y="214" type="line" smooth="yes"/>
      <point x="368" y="202"/>
      <point x="387" y="181"/>
      <point x="387" y="144" type="curve" smooth="yes"/>
      <point x="387" y="128"/>
      <point x="382" y="117"/>
      <point x="374" y="106" type="curve"/>
      <point x="457" y="108"/>
      <point x="495" y="130"/>
      <point x="495" y="156" type="curve" smooth="yes"/>
      <point x="495" y="229"/>
      <point x="452" y="281"/>
    </contour>
    <contour>
      <point x="293" y="104" type="curve" smooth="yes"/>
      <point x="174" y="104"/>
      <point x="134" y="119"/>
      <point x="67" y="161" type="curve"/>
      <point x="63" y="161" type="line"/>
      <point x="61" y="150"/>
      <point x="59" y="137"/>
      <point x="59" y="120" type="curve" smooth="yes"/>
      <point x="59" y="73"/>
      <point x="71" y="47"/>
      <point x="86" y="32" type="curve" smooth="yes"/>
      <point x="114" y="4"/>
      <point x="180" y="-11"/>
      <point x="271" y="-11" type="curve" smooth="yes"/>
      <point x="285" y="-11" type="line" smooth="yes"/>
      <point x="424" y="-11"/>
      <point x="495" y="45"/>
      <point x="495" y="156" type="curve" smooth="yes"/>
      <point x="495" y="199"/>
      <point x="465" y="201"/>
      <point x="423" y="209" type="curve"/>
      <point x="427" y="194"/>
      <point x="427" y="186"/>
      <point x="427" y="178" type="curve" smooth="yes"/>
      <point x="427" y="134"/>
      <point x="378" y="104"/>
    </contour>
    <contour>
      <point x="277" y="546" type="move" name="top"/>
    </contour>
    <contour>
      <point x="277" y="-1" type="move" name="bottom"/>
    </contour>
  </outline>
</glyph>
<glyph name="t" format="1">
  <advance width="500"/>
  <unicode hex="0074"/>
  <outline>
    <contour>
      <point x="134" y="700" type="curve"/>
      <point x="134" y="150" type="line" smooth="yes"/>
      <point x="134" y="72"/>
      <point x="220" y="2"/>
      <point x="290" y="29" type="curve"/>
      <point x="261" y="66"/>
      <point x="249" y="113"/>
      <point x="249" y="171" type="curve" smooth="yes"/>
      <point x="249" y="656" type="line" smooth="yes"/>
      <point x="249" y="697"/>
      <point x="216" y="705"/>
      <point x="177" y="705" type="curve" smooth="yes"/>
      <point x="160" y="705"/>
      <point x="145" y="703"/>
    </contour>
    <contour>
      <point x="439" y="135" type="curve"/>
      <point x="435" y="135" type="line"/>
      <point x="389" y="110"/>
      <point x="356" y="101"/>
      <point x="304" y="101" type="curve" smooth="yes"/>
      <point x="250" y="101"/>
      <point x="209" y="120"/>
      <point x="168" y="184" type="curve"/>
      <point x="145" y="182"/>
      <point x="134" y="169"/>
      <point x="134" y="150" type="curve" smooth="yes"/>
      <point x="134" y="56"/>
      <point x="211" y="-15"/>
      <point x="300" y="-15" type="curve" smooth="yes"/>
      <point x="310" y="-15" type="line" smooth="yes"/>
      <point x="373" y="-15"/>
      <point x="402" y="2"/>
      <point x="416" y="15" type="curve" smooth="yes"/>
      <point x="432" y="31"/>
      <point x="442" y="65"/>
      <point x="442" y="103" type="curve" smooth="yes"/>
      <point x="442" y="114"/>
      <point x="441" y="125"/>
    </contour>
    <contour>
      <point x="39" y="535" type="line"/>
      <point x="39" y="530"/>
      <point x="39" y="525"/>
      <point x="39" y="519" type="curve" smooth="yes"/>
      <point x="39" y="480"/>
      <point x="46" y="457"/>
      <point x="61" y="442" type="curve" smooth="yes"/>
      <point x="78" y="425"/>
      <point x="101" y="420"/>
      <point x="163" y="420" type="curve"/>
      <point x="437" y="420" type="line"/>
      <point x="439" y="432"/>
      <point x="441" y="448"/>
      <point x="441" y="464" type="curve" smooth="yes"/>
      <point x="441" y="515"/>
      <point x="429" y="535"/>
      <point x="386" y="535" type="curve"/>
    </contour>
    <contour>
      <point x="391" y="711" type="move" name="caronslovak"/>
    </contour>
    <contour>
      <point x="276" y="-1" type="move" name="bottom"/>
    </contour>
  </outline>
</glyph>
<glyph name="v" format="1">
  <advance width="600"/>
  <unicode hex="0076"/>
  <outline>
    <contour>
      <point x="440" y="544" type="curve" smooth="yes"/>
      <point x="420" y="544" type="line"/>
      <point x="396" y="278"/>
      <point x="367" y="165"/>
      <point x="265" y="80" type="curve"/>
      <point x="242" y="61"/>
      <point x="266" y="-10"/>
      <point x="310" y="-10" type="curve"/>
      <point x="346" y="-10" type="line"/>
      <point x="455" y="79"/>
      <point x="517" y="255"/>
      <point x="538" y="487" type="curve"/>
      <point x="541" y="519"/>
      <point x="491" y="544"/>
    </contour>
    <contour>
      <point x="77" y="544" type="curve" smooth="yes"/>
      <point x="58" y="544" type="line"/>
      <point x="81" y="282"/>
      <point x="128" y="125"/>
      <point x="224" y="29" type="curve"/>
      <point x="257" y="-4"/>
      <point x="282" y="-10"/>
      <point x="307" y="-10" type="curve" smooth="yes"/>
      <point x="317" y="-10" type="line" smooth="yes"/>
      <point x="348" y="-10"/>
      <point x="370" y="15"/>
      <point x="384" y="53" type="curve"/>
      <point x="376" y="53"/>
      <point x="372" y="53"/>
      <point x="366" y="53" type="curve" smooth="yes"/>
      <point x="359" y="53"/>
      <point x="350" y="56"/>
      <point x="340" y="64" type="curve"/>
      <point x="248" y="143"/>
      <point x="206" y="264"/>
      <point x="183" y="503" type="curve"/>
      <point x="181" y="528"/>
      <point x="128" y="544"/>
    </contour>
  </outline>
</glyph>
<glyph name="w" format="1">
  <advance width="800"/>
  <unicode hex="0077"/>
  <outline>
    <contour>
      <point x="53" y="542" type="curve"/>
      <point x="69" y="227"/>
      <point x="103" y="110"/>
      <point x="170" y="31" type="curve"/>
      <point x="198" y="0"/>
      <point x="218" y="-10"/>
      <point x="241" y="-10" type="curve"/>
      <point x="260" y="-10" type="line" smooth="yes"/>
      <point x="272" y="-10"/>
      <point x="290" y="23"/>
      <point x="290" y="52" type="curve"/>
      <point x="226" y="110"/>
      <point x="196" y="190"/>
      <point x="178" y="497" type="curve"/>
      <point x="177" y="511"/>
      <point x="174" y="518"/>
      <point x="167" y="525" type="curve" smooth="yes"/>
      <point x="154" y="538"/>
      <point x="121" y="545"/>
      <point x="84" y="545" type="curve"/>
      <point x="73" y="545"/>
      <point x="61" y="544"/>
    </contour>
    <contour>
      <point x="345" y="523" type="curve"/>
      <point x="325" y="261"/>
      <point x="285" y="142"/>
      <point x="226" y="70" type="curve"/>
      <point x="211" y="52"/>
      <point x="237" y="-10"/>
      <point x="255" y="-10" type="curve"/>
      <point x="279" y="-10" type="line"/>
      <point x="351" y="75"/>
      <point x="406" y="252"/>
      <point x="429" y="456" type="curve"/>
      <point x="432" y="486"/>
      <point x="411" y="526"/>
      <point x="376" y="526" type="curve" smooth="yes"/>
      <point x="366" y="526"/>
      <point x="355" y="525"/>
    </contour>
    <contour>
      <point x="360" y="521" type="curve"/>
      <point x="384" y="302"/>
      <point x="437" y="99"/>
      <point x="506" y="17" type="curve"/>
      <point x="527" y="-6"/>
      <point x="549" y="-10"/>
      <point x="568" y="-10" type="curve"/>
      <point x="587" y="-10" type="line" smooth="yes"/>
      <point x="593" y="-10"/>
      <point x="594" y="23"/>
      <point x="594" y="51" type="curve"/>
      <point x="514" y="121"/>
      <point x="486" y="261"/>
      <point x="466" y="483" type="curve"/>
      <point x="463" y="517"/>
      <point x="423" y="526"/>
      <point x="376" y="526" type="curve" smooth="yes"/>
      <point x="369" y="526"/>
      <point x="363" y="525"/>
    </contour>
    <contour>
      <point x="636" y="541" type="curve"/>
      <point x="613" y="215"/>
      <point x="592" y="154"/>
      <point x="530" y="81" type="curve"/>
      <point x="510" y="61"/>
      <point x="544" y="-10"/>
      <point x="579" y="-10" type="curve"/>
      <point x="598" y="-10" type="line"/>
      <point x="697" y="93"/>
      <point x="731" y="244"/>
      <point x="753" y="481" type="curve"/>
      <point x="755" y="496"/>
      <point x="752" y="508"/>
      <point x="743" y="517" type="curve" smooth="yes"/>
      <point x="727" y="533"/>
      <point x="704" y="545"/>
      <point x="667" y="545" type="curve"/>
      <point x="657" y="545"/>
      <point x="645" y="544"/>
    </contour>
    <contour>
      <point x="403" y="546" type="move" name="top"/>
    </contour>
  </outline>
</glyph>
<glyph name="bar" format="1">
  <advance width="300"/>
  <unicode hex="007C"/>
  <outline>
    <contour>
      <point x="83" y="759" type="curve"/>
      <point x="91" y="723"/>
      <point x="94" y="687"/>
      <point x="94" y="648" type="curve" smooth="yes"/>
      <point x="94" y="-111" type="line" smooth="yes"/>
      <point x="94" y="-146"/>
      <point x="127" y="-163"/>
      <point x="189" y="-163" type="curve" smooth="yes"/>
      <point x="201" y="-163"/>
      <point x="210" y="-162"/>
      <point x="217" y="-161" type="curve"/>
      <point x="217" y="698" type="line" smooth="yes"/>
      <point x="217" y="722"/>
      <point x="213" y="736"/>
      <point x="202" y="747" type="curve" smooth="yes"/>
      <point x="190" y="759"/>
      <point x="171" y="764"/>
      <point x="133" y="764" type="curve" smooth="yes"/>
      <point x="115" y="764"/>
      <point x="101" y="763"/>
    </contour>
  </outline>
</glyph>
<glyph name="braceright" format="1">
  <advance width="500"/>
  <unicode hex="007D"/>
  <outline>
    <contour>
      <point x="113" y="-57" type="curve" smooth="yes"/>
      <point x="86" y="-57"/>
      <point x="63" y="-54"/>
      <point x="46" y="-49" type="curve"/>
      <point x="42" y="-49" type="line"/>
      <point x="39" y="-61"/>
      <point x="37" y="-71"/>
      <point x="37" y="-89" type="curve"/>
      <point x="37" y="-134"/>
      <point x="65" y="-172"/>
      <point x="104" y="-172" type="curve" smooth="yes"/>
      <point x="108" y="-172" type="line" smooth="yes"/>
      <point x="231" y="-172"/>
      <point x="321" y="-127"/>
      <point x="321" y="-53" type="curve" smooth="yes"/>
      <point x="321" y="-50" type="line" smooth="yes"/>
      <point x="321" y="-22"/>
      <point x="292" y="4"/>
      <point x="258" y="6" type="curve"/>
      <point x="231" y="-41"/>
      <point x="180" y="-57"/>
    </contour>
    <contour>
      <point x="171" y="157" type="curve" smooth="yes"/>
      <point x="171" y="56"/>
      <point x="234" y="-1"/>
      <point x="234" y="-40" type="curve" smooth="yes"/>
      <point x="234" y="-59"/>
      <point x="230" y="-74"/>
      <point x="219" y="-92" type="curve"/>
      <point x="270" y="-103"/>
      <point x="321" y="-95"/>
      <point x="321" y="-51" type="curve" smooth="yes"/>
      <point x="321" y="-47" type="line" smooth="yes"/>
      <point x="321" y="5"/>
      <point x="281" y="58"/>
      <point x="281" y="137" type="curve" smooth="yes"/>
      <point x="281" y="206"/>
      <point x="328" y="245"/>
      <point x="438" y="245" type="curve" smooth="yes"/>
      <point x="445" y="245" type="line"/>
      <point x="445" y="256" type="line" smooth="yes"/>
      <point x="445" y="286"/>
      <point x="437" y="314"/>
      <point x="406" y="314" type="curve" smooth="yes"/>
      <point x="388" y="314" type="line" smooth="yes"/>
      <point x="268" y="314"/>
      <point x="171" y="254"/>
    </contour>
    <contour>
      <point x="171" y="441" type="curve" smooth="yes"/>
      <point x="171" y="337"/>
      <point x="264" y="284"/>
      <point x="385" y="284" type="curve" smooth="yes"/>
      <point x="421" y="284"/>
      <point x="433" y="266"/>
      <point x="445" y="252" type="curve"/>
      <point x="445" y="260" type="line" smooth="yes"/>
      <point x="445" y="310"/>
      <point x="427" y="352"/>
      <point x="397" y="352" type="curve" smooth="yes"/>
      <point x="394" y="352" type="line" smooth="yes"/>
      <point x="327" y="352"/>
      <point x="281" y="393"/>
      <point x="281" y="460" type="curve" smooth="yes"/>
      <point x="281" y="540"/>
      <point x="321" y="597"/>
      <point x="321" y="648" type="curve" smooth="yes"/>
      <point x="321" y="652" type="line" smooth="yes"/>
      <point x="321" y="699"/>
      <point x="268" y="706"/>
      <point x="217" y="695" type="curve"/>
      <point x="230" y="677"/>
      <point x="234" y="661"/>
      <point x="234" y="641" type="curve" smooth="yes"/>
      <point x="234" y="601"/>
      <point x="171" y="537"/>
    </contour>
    <contour>
      <point x="126" y="654" type="curve" smooth="yes"/>
      <point x="194" y="654"/>
      <point x="237" y="640"/>
      <point x="261" y="595" type="curve"/>
      <point x="297" y="601"/>
      <point x="321" y="629"/>
      <point x="321" y="650" type="curve" smooth="yes"/>
      <point x="321" y="654" type="line" smooth="yes"/>
      <point x="321" y="730"/>
      <point x="251" y="770"/>
      <point x="110" y="770" type="curve" smooth="yes"/>
      <point x="105" y="770" type="line" smooth="yes"/>
      <point x="63" y="770"/>
      <point x="39" y="723"/>
      <point x="39" y="650" type="curve"/>
      <point x="39" y="642" type="line"/>
      <point x="43" y="642" type="line"/>
      <point x="72" y="650"/>
      <point x="92" y="654"/>
    </contour>
  </outline>
</glyph>
<glyph name="exclamdown" format="1">
  <advance width="367"/>
  <unicode hex="00A1"/>
  <outline>
    <contour>
      <point x="136" y="262" type="line"/>
      <point x="123" y="193"/>
      <point x="112" y="96"/>
      <point x="112" y="26" type="curve"/>
      <point x="112" y="-116" type="line" smooth="yes"/>
      <point x="112" y="-158"/>
      <point x="153" y="-175"/>
      <point x="214" y="-175" type="curve" smooth="yes"/>
      <point x="234" y="-175"/>
      <point x="248" y="-174"/>
      <point x="266" y="-169" type="curve"/>
      <point x="258" y="-134"/>
      <point x="255" y="-97"/>
      <point x="255" y="-58" type="curve" smooth="yes"/>
      <point x="255" y="23" type="line"/>
      <point x="255" y="116"/>
      <point x="245" y="219"/>
      <point x="226" y="238" type="curve" smooth="yes"/>
      <point x="210" y="254"/>
      <point x="183" y="262"/>
      <point x="147" y="262" type="curve"/>
    </contour>
    <contour>
      <point x="94" y="535" type="curve"/>
      <point x="94" y="423" type="line" smooth="yes"/>
      <point x="94" y="370"/>
      <point x="147" y="357"/>
      <point x="204" y="357" type="curve" smooth="yes"/>
      <point x="227" y="357"/>
      <point x="252" y="360"/>
      <point x="273" y="366" type="curve"/>
      <point x="273" y="478" type="line" smooth="yes"/>
      <point x="273" y="531"/>
      <point x="220" y="544"/>
      <point x="163" y="544" type="curve" smooth="yes"/>
      <point x="140" y="544"/>
      <point x="115" y="541"/>
    </contour>
  </outline>
</glyph>
<glyph name="cent" format="1">
  <advance width="600"/>
  <unicode hex="00A2"/>
  <outline>
    <contour>
      <point x="365" y="392" type="line"/>
      <point x="419" y="687" type="line" smooth="yes"/>
      <point x="431" y="747"/>
      <point x="409" y="782"/>
      <point x="349" y="782" type="curve" smooth="yes"/>
      <point x="336" y="782"/>
      <point x="315" y="779"/>
      <point x="302" y="774" type="curve"/>
      <point x="311" y="747"/>
      <point x="316" y="721"/>
      <point x="316" y="679" type="curve"/>
      <point x="316" y="433" type="line" smooth="yes"/>
      <point x="316" y="407"/>
      <point x="338" y="392"/>
      <point x="361" y="392" type="curve" smooth="yes"/>
    </contour>
    <contour>
      <point x="314" y="302" type="line"/>
      <point x="261" y="7" type="line" smooth="yes"/>
      <point x="248" y="-53"/>
      <point x="271" y="-88"/>
      <point x="331" y="-88" type="curve" smooth="yes"/>
      <point x="344" y="-88"/>
      <point x="365" y="-85"/>
      <point x="378" y="-80" type="curve"/>
      <point x="369" y="-53"/>
      <point x="364" y="-27"/>
      <point x="364" y="15" type="curve"/>
      <point x="364" y="261" type="line" smooth="yes"/>
      <point x="364" y="287"/>
      <point x="341" y="302"/>
      <point x="318" y="302" type="curve" smooth="yes"/>
    </contour>
    <contour>
      <point x="352" y="629" type="curve" smooth="yes"/>
      <point x="181" y="629"/>
      <point x="59" y="509"/>
      <point x="59" y="318" type="curve" smooth="yes"/>
      <point x="59" y="307" type="line" smooth="yes"/>
      <point x="59" y="168"/>
      <point x="175" y="71"/>
      <point x="321" y="71" type="curve" smooth="yes"/>
      <point x="341" y="71"/>
      <point x="349" y="86"/>
      <point x="350" y="122" type="curve"/>
      <point x="209" y="162"/>
      <point x="175" y="233"/>
      <point x="175" y="308" type="curve" smooth="yes"/>
      <point x="175" y="319" type="line" smooth="yes"/>
      <point x="175" y="430"/>
      <point x="241" y="511"/>
      <point x="343" y="511" type="curve" smooth="yes"/>
      <point x="416" y="511"/>
      <point x="454" y="492"/>
      <point x="503" y="448" type="curve"/>
      <point x="507" y="448" type="line"/>
      <point x="515" y="470"/>
      <point x="519" y="489"/>
      <point x="519" y="515" type="curve" smooth="yes"/>
      <point x="519" y="550"/>
      <point x="513" y="571"/>
      <point x="497" y="587" type="curve" smooth="yes"/>
      <point x="472" y="612"/>
      <point x="422" y="629"/>
    </contour>
    <contour>
      <point x="153" y="279" type="curve"/>
      <point x="96" y="195"/>
      <point x="195" y="71"/>
      <point x="321" y="71" type="curve" smooth="yes"/>
      <point x="419" y="71"/>
      <point x="470" y="93"/>
      <point x="496" y="119" type="curve" smooth="yes"/>
      <point x="513" y="136"/>
      <point x="525" y="177"/>
      <point x="525" y="206" type="curve"/>
      <point x="525" y="223"/>
      <point x="524" y="234"/>
      <point x="522" y="245" type="curve"/>
      <point x="518" y="245" type="line"/>
      <point x="464" y="203"/>
      <point x="410" y="183"/>
      <point x="328" y="183" type="curve" smooth="yes"/>
      <point x="241" y="183"/>
      <point x="201" y="206"/>
    </contour>
  </outline>
</glyph>
<glyph name="sterling" format="1">
  <advance width="600"/>
  <unicode hex="00A3"/>
  <outline>
    <contour>
      <point x="329" y="604" type="curve" smooth="yes"/>
      <point x="416" y="604"/>
      <point x="476" y="586"/>
      <point x="526" y="528" type="curve"/>
      <point x="530" y="528" type="line"/>
      <point x="536" y="547"/>
      <point x="538" y="562"/>
      <point x="538" y="585" type="curve" smooth="yes"/>
      <point x="538" y="629"/>
      <point x="531" y="650"/>
      <point x="507" y="673" type="curve" smooth="yes"/>
      <point x="480" y="701"/>
      <point x="416" y="720"/>
      <point x="328" y="720" type="curve" smooth="yes"/>
      <point x="172" y="720"/>
      <point x="84" y="643"/>
      <point x="84" y="543" type="curve" smooth="yes"/>
      <point x="84" y="531" type="line" smooth="yes"/>
      <point x="84" y="498"/>
      <point x="121" y="487"/>
      <point x="186" y="484" type="curve"/>
      <point x="186" y="560"/>
      <point x="230" y="604"/>
    </contour>
    <contour>
      <point x="84" y="531" type="curve" smooth="yes"/>
      <point x="84" y="409"/>
      <point x="180" y="312"/>
      <point x="180" y="188" type="curve" smooth="yes"/>
      <point x="180" y="134"/>
      <point x="142" y="100"/>
      <point x="75" y="100" type="curve" smooth="yes"/>
      <point x="66" y="100"/>
      <point x="59" y="101"/>
      <point x="53" y="105" type="curve"/>
      <point x="49" y="105" type="line"/>
      <point x="45" y="89"/>
      <point x="44" y="78"/>
      <point x="44" y="61" type="curve" smooth="yes"/>
      <point x="44" y="10"/>
      <point x="61" y="-17"/>
      <point x="104" y="-17" type="curve" smooth="yes"/>
      <point x="111" y="-17" type="line" smooth="yes"/>
      <point x="211" y="-17"/>
      <point x="287" y="54"/>
      <point x="287" y="168" type="curve" smooth="yes"/>
      <point x="287" y="291"/>
      <point x="203" y="398"/>
      <point x="203" y="519" type="curve" smooth="yes"/>
      <point x="203" y="553"/>
      <point x="210" y="583"/>
      <point x="233" y="619" type="curve"/>
      <point x="134" y="619"/>
      <point x="84" y="583"/>
    </contour>
    <contour>
      <point x="204" y="87" type="curve"/>
      <point x="296" y="13"/>
      <point x="368" y="-17"/>
      <point x="463" y="-17" type="curve" smooth="yes"/>
      <point x="470" y="-17" type="line" smooth="yes"/>
      <point x="533" y="-17"/>
      <point x="559" y="17"/>
      <point x="559" y="84" type="curve"/>
      <point x="559" y="109"/>
      <point x="555" y="130"/>
      <point x="550" y="147" type="curve"/>
      <point x="546" y="147" type="line"/>
      <point x="521" y="118"/>
      <point x="493" y="106"/>
      <point x="443" y="106" type="curve" smooth="yes"/>
      <point x="372" y="106"/>
      <point x="312" y="121"/>
      <point x="223" y="164" type="curve"/>
      <point x="198" y="140"/>
      <point x="191" y="107"/>
    </contour>
    <contour>
      <point x="50" y="383" type="line"/>
      <point x="50" y="378"/>
      <point x="50" y="373"/>
      <point x="50" y="367" type="curve" smooth="yes"/>
      <point x="50" y="323"/>
      <point x="56" y="297"/>
      <point x="71" y="282" type="curve" smooth="yes"/>
      <point x="82" y="271"/>
      <point x="96" y="267"/>
      <point x="128" y="267" type="curve" smooth="yes"/>
      <point x="456" y="267" type="line"/>
      <point x="459" y="282"/>
      <point x="461" y="298"/>
      <point x="461" y="312" type="curve" smooth="yes"/>
      <point x="461" y="363"/>
      <point x="448" y="383"/>
      <point x="405" y="383" type="curve" smooth="yes"/>
    </contour>
  </outline>
</glyph>
<glyph name="yen" format="1">
  <advance width="600"/>
  <unicode hex="00A5"/>
  <outline>
    <contour>
      <point x="17" y="413" type="line"/>
      <point x="17" y="408"/>
      <point x="17" y="403"/>
      <point x="17" y="397" type="curve" smooth="yes"/>
      <point x="17" y="360"/>
      <point x="25" y="338"/>
      <point x="38" y="325" type="curve" smooth="yes"/>
      <point x="49" y="314"/>
      <point x="63" y="310"/>
      <point x="95" y="310" type="curve"/>
      <point x="197" y="310" type="line"/>
      <point x="199" y="325"/>
      <point x="201" y="342"/>
      <point x="201" y="355" type="curve" smooth="yes"/>
      <point x="201" y="395"/>
      <point x="188" y="413"/>
      <point x="145" y="413" type="curve"/>
    </contour>
    <contour>
      <point x="376" y="413" type="line"/>
      <point x="370" y="396"/>
      <point x="366" y="383"/>
      <point x="366" y="363" type="curve" smooth="yes"/>
      <point x="366" y="334"/>
      <point x="387" y="310"/>
      <point x="413" y="310" type="curve"/>
      <point x="578" y="310" type="line"/>
      <point x="581" y="325"/>
      <point x="583" y="342"/>
      <point x="583" y="355" type="curve" smooth="yes"/>
      <point x="583" y="395"/>
      <point x="570" y="413"/>
      <point x="527" y="413" type="curve"/>
    </contour>
    <contour>
      <point x="574" y="107" type="line"/>
      <point x="576" y="114"/>
      <point x="576" y="123"/>
      <point x="576" y="131" type="curve" smooth="yes"/>
      <point x="576" y="163"/>
      <point x="569" y="181"/>
      <point x="556" y="195" type="curve" smooth="yes"/>
      <point x="545" y="206"/>
      <point x="530" y="210"/>
      <point x="498" y="210" type="curve"/>
      <point x="28" y="210" type="line"/>
      <point x="26" y="195"/>
      <point x="24" y="178"/>
      <point x="24" y="165" type="curve" smooth="yes"/>
      <point x="24" y="124"/>
      <point x="36" y="107"/>
      <point x="79" y="107" type="curve"/>
    </contour>
    <contour>
      <point x="46" y="710" type="line"/>
      <point x="76" y="464"/>
      <point x="127" y="337"/>
      <point x="229" y="235" type="curve"/>
      <point x="258" y="207"/>
      <point x="283" y="203"/>
      <point x="304" y="203" type="curve"/>
      <point x="338" y="203"/>
      <point x="359" y="218"/>
      <point x="360" y="275" type="curve"/>
      <point x="249" y="356"/>
      <point x="203" y="440"/>
      <point x="172" y="671" type="curve"/>
      <point x="170" y="694"/>
      <point x="117" y="710"/>
      <point x="65" y="710" type="curve" smooth="yes"/>
    </contour>
    <contour>
      <point x="434" y="710" type="line"/>
      <point x="409" y="476"/>
      <point x="370" y="384"/>
      <point x="261" y="288" type="curve"/>
      <point x="235" y="266"/>
      <point x="263" y="203"/>
      <point x="304" y="203" type="curve"/>
      <point x="340" y="203" type="line"/>
      <point x="449" y="302"/>
      <point x="527" y="449"/>
      <point x="550" y="652" type="curve"/>
      <point x="553" y="685"/>
      <point x="504" y="710"/>
      <point x="453" y="710" type="curve"/>
    </contour>
    <contour>
      <point x="372" y="-4" type="curve"/>
      <point x="364" y="31"/>
      <point x="361" y="68"/>
      <point x="361" y="107" type="curve" smooth="yes"/>
      <point x="361" y="249" type="line" smooth="yes"/>
      <point x="361" y="281"/>
      <point x="308" y="301"/>
      <point x="239" y="301" type="curve"/>
      <point x="239" y="57" type="line" smooth="yes"/>
      <point x="239" y="33"/>
      <point x="242" y="19"/>
      <point x="254" y="7" type="curve" smooth="yes"/>
      <point x="266" y="-5"/>
      <point x="285" y="-10"/>
      <point x="322" y="-10" type="curve" smooth="yes"/>
      <point x="341" y="-10"/>
      <point x="355" y="-8"/>
    </contour>
  </outline>
</glyph>
<glyph name="brokenbar" format="1">
  <advance width="300"/>
  <unicode hex="00A6"/>
  <outline>
    <contour>
      <point x="78" y="759" type="curve"/>
      <point x="86" y="723"/>
      <point x="89" y="687"/>
      <point x="89" y="648" type="curve" smooth="yes"/>
      <point x="89" y="419" type="line" smooth="yes"/>
      <point x="89" y="384"/>
      <point x="122" y="367"/>
      <point x="183" y="367" type="curve" smooth="yes"/>
      <point x="196" y="367"/>
      <point x="205" y="368"/>
      <point x="211" y="369" type="curve"/>
      <point x="211" y="698" type="line" smooth="yes"/>
      <point x="211" y="722"/>
      <point x="208" y="736"/>
      <point x="196" y="747" type="curve" smooth="yes"/>
      <point x="184" y="759"/>
      <point x="165" y="764"/>
      <point x="128" y="764" type="curve" smooth="yes"/>
      <point x="109" y="764"/>
      <point x="95" y="763"/>
    </contour>
    <contour>
      <point x="89" y="229" type="curve"/>
      <point x="89" y="-111" type="line"/>
      <point x="89" y="-146"/>
      <point x="122" y="-163"/>
      <point x="183" y="-163" type="curve" smooth="yes"/>
      <point x="196" y="-163"/>
      <point x="205" y="-162"/>
      <point x="211" y="-161" type="curve"/>
      <point x="211" y="176" type="line" smooth="yes"/>
      <point x="211" y="218"/>
      <point x="189" y="234"/>
      <point x="132" y="234" type="curve" smooth="yes"/>
      <point x="116" y="234"/>
      <point x="100" y="233"/>
    </contour>
  </outline>
</glyph>
<glyph name="dieresis" format="1">
  <advance width="600"/>
  <unicode hex="00A8"/>
  <outline>
    <contour>
      <point x="258" y="632" type="curve"/>
      <point x="258" y="721" type="line" smooth="yes"/>
      <point x="258" y="757"/>
      <point x="220" y="765"/>
      <point x="181" y="765" type="curve" smooth="yes"/>
      <point x="165" y="765"/>
      <point x="145" y="764"/>
      <point x="128" y="762" type="curve"/>
      <point x="128" y="674" type="line" smooth="yes"/>
      <point x="128" y="637"/>
      <point x="167" y="628"/>
      <point x="205" y="628" type="curve" smooth="yes"/>
      <point x="222" y="628"/>
      <point x="242" y="629"/>
    </contour>
    <contour>
      <point x="472" y="632" type="curve"/>
      <point x="472" y="721" type="line" smooth="yes"/>
      <point x="472" y="757"/>
      <point x="433" y="765"/>
      <point x="394" y="765" type="curve" smooth="yes"/>
      <point x="378" y="765"/>
      <point x="358" y="764"/>
      <point x="342" y="762" type="curve"/>
      <point x="342" y="674" type="line" smooth="yes"/>
      <point x="342" y="637"/>
      <point x="380" y="628"/>
      <point x="419" y="628" type="curve" smooth="yes"/>
      <point x="435" y="628"/>
      <point x="455" y="629"/>
    </contour>
  </outline>
</glyph>
<glyph name="copyright" format="1">
  <advance width="600"/>
  <unicode hex="00A9"/>
  <outline>
    <contour>
      <point x="300" y="715" type="curve" smooth="yes"/>
      <point x="120" y="715"/>
      <point x="16" y="594"/>
      <point x="16" y="366" type="curve" smooth="yes"/>
      <point x="16" y="344" type="line" smooth="yes"/>
      <point x="16" y="106"/>
      <point x="117" y="-15"/>
      <point x="300" y="-15" type="curve" smooth="yes"/>
      <point x="332" y="-15"/>
      <point x="343" y="6"/>
      <point x="343" y="24" type="curve"/>
      <point x="175" y="24"/>
      <point x="76" y="119"/>
      <point x="76" y="328" type="curve" smooth="yes"/>
      <point x="76" y="373" type="line" smooth="yes"/>
      <point x="76" y="570"/>
      <point x="156" y="659"/>
      <point x="300" y="659" type="curve" smooth="yes"/>
      <point x="366" y="659"/>
      <point x="427" y="635"/>
      <point x="486" y="594" type="curve"/>
      <point x="524" y="647"/>
      <point x="388" y="715"/>
    </contour>
    <contour>
      <point x="300" y="-15" type="curve" smooth="yes"/>
      <point x="480" y="-15"/>
      <point x="584" y="106"/>
      <point x="584" y="334" type="curve" smooth="yes"/>
      <point x="584" y="356" type="line" smooth="yes"/>
      <point x="584" y="594"/>
      <point x="483" y="715"/>
      <point x="300" y="715" type="curve" smooth="yes"/>
      <point x="268" y="715"/>
      <point x="257" y="694"/>
      <point x="257" y="676" type="curve"/>
      <point x="425" y="676"/>
      <point x="524" y="582"/>
      <point x="524" y="372" type="curve" smooth="yes"/>
      <point x="524" y="327" type="line" smooth="yes"/>
      <point x="524" y="130"/>
      <point x="444" y="41"/>
      <point x="300" y="41" type="curve" smooth="yes"/>
      <point x="234" y="41"/>
      <point x="172" y="65"/>
      <point x="114" y="106" type="curve"/>
      <point x="81" y="50"/>
      <point x="212" y="-15"/>
    </contour>
    <contour>
      <point x="308" y="498" type="curve" smooth="yes"/>
      <point x="351" y="498"/>
      <point x="374" y="476"/>
      <point x="389" y="435" type="curve"/>
      <point x="414" y="435"/>
      <point x="421" y="453"/>
      <point x="421" y="466" type="curve" smooth="yes"/>
      <point x="421" y="489"/>
      <point x="413" y="511"/>
      <point x="390" y="533" type="curve" smooth="yes"/>
      <point x="367" y="556"/>
      <point x="343" y="566"/>
      <point x="306" y="566" type="curve" smooth="yes"/>
      <point x="211" y="566"/>
      <point x="162" y="491"/>
      <point x="162" y="347" type="curve" smooth="yes"/>
      <point x="162" y="336" type="line" smooth="yes"/>
      <point x="162" y="294"/>
      <point x="199" y="164"/>
      <point x="274" y="192" type="curve"/>
      <point x="246" y="239"/>
      <point x="239" y="271"/>
      <point x="239" y="344" type="curve" smooth="yes"/>
      <point x="239" y="355" type="line" smooth="yes"/>
      <point x="239" y="453"/>
      <point x="262" y="498"/>
    </contour>
    <contour>
      <point x="307" y="134" type="curve" smooth="yes"/>
      <point x="354" y="134"/>
      <point x="388" y="149"/>
      <point x="402" y="167" type="curve"/>
      <point x="415" y="183"/>
      <point x="417" y="199"/>
      <point x="417" y="219" type="curve" smooth="yes"/>
      <point x="417" y="233"/>
      <point x="416" y="249"/>
      <point x="411" y="258" type="curve"/>
      <point x="407" y="258" type="line"/>
      <point x="378" y="221"/>
      <point x="353" y="205"/>
      <point x="312" y="205" type="curve" smooth="yes"/>
      <point x="260" y="205"/>
      <point x="223" y="240"/>
      <point x="219" y="364" type="curve"/>
      <point x="179" y="364"/>
      <point x="162" y="364"/>
      <point x="162" y="336" type="curve" smooth="yes"/>
      <point x="162" y="195"/>
      <point x="213" y="134"/>
    </contour>
    <contour>
      <point x="421" y="408" type="curve"/>
      <point x="421" y="466" type="line" smooth="yes"/>
      <point x="421" y="480"/>
      <point x="395" y="536"/>
      <point x="358" y="525" type="curve"/>
      <point x="350" y="491"/>
      <point x="348" y="476"/>
      <point x="348" y="447" type="curve" smooth="yes"/>
      <point x="348" y="434" type="line" smooth="yes"/>
      <point x="348" y="409"/>
      <point x="361" y="400"/>
      <point x="386" y="400" type="curve" smooth="yes"/>
      <point x="402" y="400"/>
      <point x="410" y="403"/>
    </contour>
  </outline>
</glyph>
<glyph name="logicalnot" format="1">
  <advance width="600"/>
  <unicode hex="00AC"/>
  <outline>
    <contour>
      <point x="56" y="440" type="line"/>
      <point x="56" y="435"/>
      <point x="56" y="429"/>
      <point x="56" y="424" type="curve" smooth="yes"/>
      <point x="56" y="385"/>
      <point x="62" y="363"/>
      <point x="76" y="349" type="curve" smooth="yes"/>
      <point x="87" y="338"/>
      <point x="102" y="334"/>
      <point x="134" y="334" type="curve"/>
      <point x="535" y="334" type="line"/>
      <point x="535" y="344" type="line"/>
      <point x="535" y="408"/>
      <point x="520" y="440"/>
      <point x="479" y="440" type="curve"/>
    </contour>
    <contour>
      <point x="535" y="138" type="curve"/>
      <point x="535" y="344" type="line" smooth="yes"/>
      <point x="535" y="370"/>
      <point x="497" y="378"/>
      <point x="433" y="378" type="curve"/>
      <point x="419" y="378" type="line"/>
      <point x="419" y="182" type="line" smooth="yes"/>
      <point x="419" y="141"/>
      <point x="448" y="134"/>
      <point x="493" y="134" type="curve" smooth="yes"/>
      <point x="509" y="134"/>
      <point x="524" y="135"/>
    </contour>
  </outline>
</glyph>
<glyph name="registered" format="1">
  <advance width="600"/>
  <unicode hex="00AE"/>
  <outline>
    <contour>
      <point x="266" y="330" type="curve"/>
      <point x="261" y="355"/>
      <point x="259" y="377"/>
      <point x="259" y="404" type="curve"/>
      <point x="259" y="533" type="line"/>
      <point x="259" y="574"/>
      <point x="240" y="590"/>
      <point x="191" y="590" type="curve"/>
      <point x="191" y="369" type="line" smooth="yes"/>
      <point x="191" y="342"/>
      <point x="206" y="324"/>
      <point x="238" y="324" type="curve" smooth="yes"/>
      <point x="247" y="324"/>
      <point x="256" y="325"/>
    </contour>
    <contour>
      <point x="170" y="629" type="curve"/>
      <point x="167" y="621"/>
      <point x="165" y="611"/>
      <point x="165" y="599" type="curve"/>
      <point x="165" y="577"/>
      <point x="171" y="566"/>
      <point x="181" y="566" type="curve"/>
      <point x="185" y="566"/>
      <point x="190" y="567"/>
      <point x="197" y="568" type="curve" smooth="yes"/>
      <point x="225" y="573"/>
      <point x="265" y="577"/>
      <point x="293" y="577" type="curve" smooth="yes"/>
      <point x="339" y="577"/>
      <point x="359" y="572"/>
      <point x="381" y="554" type="curve"/>
      <point x="413" y="586"/>
      <point x="364" y="641"/>
      <point x="312" y="641" type="curve" smooth="yes"/>
      <point x="271" y="641"/>
      <point x="223" y="637"/>
    </contour>
    <contour>
      <point x="426" y="541" type="curve" smooth="yes"/>
      <point x="426" y="551" type="line" smooth="yes"/>
      <point x="426" y="596"/>
      <point x="390" y="641"/>
      <point x="312" y="641" type="curve"/>
      <point x="289" y="641"/>
      <point x="268" y="623"/>
      <point x="268" y="594" type="curve"/>
      <point x="338" y="594"/>
      <point x="358" y="583"/>
      <point x="358" y="546" type="curve" smooth="yes"/>
      <point x="358" y="540" type="line" smooth="yes"/>
      <point x="358" y="504"/>
      <point x="316" y="480"/>
      <point x="245" y="480" type="curve" smooth="yes"/>
      <point x="227" y="480"/>
      <point x="223" y="480"/>
      <point x="219" y="480" type="curve"/>
      <point x="217" y="474"/>
      <point x="216" y="470"/>
      <point x="216" y="458" type="curve" smooth="yes"/>
      <point x="216" y="442"/>
      <point x="225" y="420"/>
      <point x="245" y="420" type="curve" smooth="yes"/>
      <point x="247" y="420" type="line" smooth="yes"/>
      <point x="342" y="420"/>
      <point x="426" y="468"/>
    </contour>
    <contour>
      <point x="355" y="484" type="line"/>
      <point x="329" y="477"/>
      <point x="298" y="453"/>
      <point x="304" y="438" type="curve" smooth="yes"/>
      <point x="328" y="373" type="line" smooth="yes"/>
      <point x="340" y="342"/>
      <point x="361" y="324"/>
      <point x="387" y="324" type="curve" smooth="yes"/>
      <point x="391" y="324" type="line" smooth="yes"/>
      <point x="415" y="324"/>
      <point x="426" y="338"/>
      <point x="426" y="366" type="curve"/>
      <point x="426" y="379"/>
      <point x="425" y="387"/>
      <point x="422" y="396" type="curve"/>
      <point x="420" y="396" type="line"/>
      <point x="415" y="392"/>
      <point x="410" y="391"/>
      <point x="402" y="391" type="curve"/>
      <point x="393" y="391"/>
      <point x="388" y="395"/>
      <point x="378" y="423" type="curve" smooth="yes"/>
    </contour>
    <contour>
      <point x="300" y="760" type="curve" smooth="yes"/>
      <point x="136" y="760"/>
      <point x="42" y="668"/>
      <point x="42" y="493" type="curve" smooth="yes"/>
      <point x="42" y="474" type="line" smooth="yes"/>
      <point x="42" y="293"/>
      <point x="134" y="201"/>
      <point x="300" y="201" type="curve" smooth="yes"/>
      <point x="330" y="201"/>
      <point x="339" y="221"/>
      <point x="339" y="238" type="curve"/>
      <point x="187" y="238"/>
      <point x="95" y="306"/>
      <point x="95" y="460" type="curve" smooth="yes"/>
      <point x="95" y="501" type="line" smooth="yes"/>
      <point x="95" y="644"/>
      <point x="170" y="709"/>
      <point x="300" y="709" type="curve" smooth="yes"/>
      <point x="361" y="709"/>
      <point x="417" y="690"/>
      <point x="471" y="653" type="curve"/>
      <point x="499" y="701"/>
      <point x="381" y="760"/>
    </contour>
    <contour>
      <point x="300" y="201" type="curve" smooth="yes"/>
      <point x="464" y="201"/>
      <point x="558" y="294"/>
      <point x="558" y="467" type="curve" smooth="yes"/>
      <point x="558" y="486" type="line" smooth="yes"/>
      <point x="558" y="668"/>
      <point x="466" y="760"/>
      <point x="300" y="760" type="curve" smooth="yes"/>
      <point x="270" y="760"/>
      <point x="261" y="741"/>
      <point x="261" y="723" type="curve"/>
      <point x="413" y="723"/>
      <point x="505" y="655"/>
      <point x="505" y="500" type="curve" smooth="yes"/>
      <point x="505" y="459" type="line" smooth="yes"/>
      <point x="505" y="317"/>
      <point x="430" y="253"/>
      <point x="300" y="253" type="curve" smooth="yes"/>
      <point x="239" y="253"/>
      <point x="181" y="271"/>
      <point x="129" y="308" type="curve"/>
      <point x="106" y="259"/>
      <point x="219" y="201"/>
    </contour>
  </outline>
</glyph>
<glyph name="degree" format="1">
  <advance width="600"/>
  <unicode hex="00B0"/>
  <outline>
    <contour>
      <point x="317" y="423" type="curve"/>
      <point x="253" y="423"/>
      <point x="214" y="463"/>
      <point x="214" y="528" type="curve" smooth="yes"/>
      <point x="214" y="535" type="line" smooth="yes"/>
      <point x="214" y="595"/>
      <point x="246" y="630"/>
      <point x="307" y="630" type="curve" smooth="yes"/>
      <point x="336" y="630"/>
      <point x="356" y="623"/>
      <point x="383" y="600" type="curve"/>
      <point x="404" y="649"/>
      <point x="368" y="710"/>
      <point x="302" y="710" type="curve"/>
      <point x="201" y="710"/>
      <point x="130" y="638"/>
      <point x="130" y="536" type="curve" smooth="yes"/>
      <point x="130" y="529" type="line" smooth="yes"/>
      <point x="130" y="429"/>
      <point x="200" y="362"/>
      <point x="296" y="362" type="curve"/>
      <point x="311" y="362"/>
      <point x="317" y="387"/>
    </contour>
    <contour>
      <point x="281" y="643" type="curve"/>
      <point x="345" y="643"/>
      <point x="384" y="605"/>
      <point x="384" y="544" type="curve" smooth="yes"/>
      <point x="384" y="537" type="line" smooth="yes"/>
      <point x="384" y="477"/>
      <point x="352" y="443"/>
      <point x="291" y="443" type="curve" smooth="yes"/>
      <point x="262" y="443"/>
      <point x="242" y="449"/>
      <point x="215" y="472" type="curve"/>
      <point x="194" y="423"/>
      <point x="230" y="362"/>
      <point x="296" y="362" type="curve"/>
      <point x="397" y="362"/>
      <point x="468" y="434"/>
      <point x="468" y="536" type="curve" smooth="yes"/>
      <point x="468" y="543" type="line" smooth="yes"/>
      <point x="468" y="643"/>
      <point x="398" y="710"/>
      <point x="302" y="710" type="curve"/>
      <point x="287" y="710"/>
      <point x="281" y="691"/>
    </contour>
  </outline>
</glyph>
<glyph name="acute" format="1">
  <advance width="600"/>
  <unicode hex="00B4"/>
  <outline>
    <contour>
      <point x="296" y="621" type="curve" smooth="yes"/>
      <point x="321" y="621"/>
      <point x="341" y="627"/>
      <point x="356" y="636" type="curve" smooth="yes"/>
      <point x="405" y="664"/>
      <point x="433" y="699"/>
      <point x="453" y="757" type="curve"/>
      <point x="458" y="771"/>
      <point x="455" y="788"/>
      <point x="439" y="795" type="curve" smooth="yes"/>
      <point x="411" y="809"/>
      <point x="388" y="813"/>
      <point x="352" y="813" type="curve"/>
      <point x="333" y="738"/>
      <point x="298" y="695"/>
      <point x="236" y="635" type="curve"/>
      <point x="259" y="624"/>
      <point x="275" y="621"/>
    </contour>
  </outline>
</glyph>
<glyph name="uni00B5" format="1">
  <advance width="600"/>
  <unicode hex="00B5"/>
  <outline>
    <contour>
      <point x="67" y="536" type="curve"/>
      <point x="81" y="482"/>
      <point x="85" y="447"/>
      <point x="85" y="389" type="curve" smooth="yes"/>
      <point x="85" y="147" type="line"/>
      <point x="85" y="118"/>
      <point x="109" y="101"/>
      <point x="181" y="103" type="curve"/>
      <point x="198" y="227"/>
      <point x="212" y="311"/>
      <point x="212" y="402" type="curve" smooth="yes"/>
      <point x="212" y="407" type="line" smooth="yes"/>
      <point x="212" y="513"/>
      <point x="174" y="540"/>
      <point x="110" y="540" type="curve" smooth="yes"/>
      <point x="94" y="540"/>
      <point x="81" y="539"/>
    </contour>
    <contour>
      <point x="252" y="-11" type="curve" smooth="yes"/>
      <point x="326" y="-11"/>
      <point x="386" y="82"/>
      <point x="410" y="199" type="curve" smooth="yes"/>
      <point x="421" y="268"/>
      <point x="425" y="331"/>
      <point x="413" y="386" type="curve"/>
      <point x="365" y="172"/>
      <point x="303" y="116"/>
      <point x="242" y="116" type="curve" smooth="yes"/>
      <point x="206" y="116"/>
      <point x="178" y="144"/>
      <point x="164" y="200" type="curve"/>
      <point x="113" y="199"/>
      <point x="85" y="174"/>
      <point x="85" y="147" type="curve" smooth="yes"/>
      <point x="85" y="71"/>
      <point x="165" y="-11"/>
    </contour>
    <contour>
      <point x="521" y="538" type="line"/>
      <point x="510" y="541"/>
      <point x="494" y="542"/>
      <point x="477" y="542" type="curve" smooth="yes"/>
      <point x="433" y="542"/>
      <point x="402" y="535"/>
      <point x="402" y="494" type="curve" smooth="yes"/>
      <point x="402" y="131" type="line" smooth="yes"/>
      <point x="402" y="67"/>
      <point x="472" y="37"/>
      <point x="541" y="55" type="curve"/>
      <point x="526" y="85"/>
      <point x="521" y="111"/>
      <point x="521" y="151" type="curve"/>
    </contour>
    <contour>
      <point x="571" y="108" type="line"/>
      <point x="567" y="108" type="line"/>
      <point x="563" y="105"/>
      <point x="558" y="104"/>
      <point x="553" y="104" type="curve" smooth="yes"/>
      <point x="525" y="104"/>
      <point x="496" y="118"/>
      <point x="480" y="164" type="curve"/>
      <point x="419" y="165"/>
      <point x="402" y="157"/>
      <point x="402" y="131" type="curve" smooth="yes"/>
      <point x="402" y="56"/>
      <point x="448" y="-10"/>
      <point x="518" y="-10" type="curve" smooth="yes"/>
      <point x="521" y="-10" type="line" smooth="yes"/>
      <point x="555" y="-10"/>
      <point x="571" y="51"/>
      <point x="571" y="95" type="curve"/>
    </contour>
    <contour>
      <point x="116" y="157" type="line"/>
      <point x="89" y="53"/>
      <point x="76" y="-28"/>
      <point x="76" y="-123" type="curve" smooth="yes"/>
      <point x="76" y="-180"/>
      <point x="114" y="-204"/>
      <point x="155" y="-204" type="curve" smooth="yes"/>
      <point x="174" y="-204"/>
      <point x="186" y="-201"/>
      <point x="198" y="-195" type="curve"/>
      <point x="198" y="-175"/>
      <point x="198" y="-166"/>
      <point x="198" y="-137" type="curve" smooth="yes"/>
      <point x="198" y="-64"/>
      <point x="154" y="157"/>
      <point x="122" y="157" type="curve" smooth="yes"/>
    </contour>
  </outline>
</glyph>
<glyph name="paragraph" format="1">
  <advance width="600"/>
  <unicode hex="00B6"/>
  <outline>
    <contour>
      <point x="342" y="-152" type="curve"/>
      <point x="342" y="509" type="line"/>
      <point x="342" y="618"/>
      <point x="312" y="643"/>
      <point x="271" y="643" type="curve" smooth="yes"/>
      <point x="261" y="643"/>
      <point x="254" y="640"/>
      <point x="244" y="634" type="curve"/>
      <point x="244" y="-83" type="line" smooth="yes"/>
      <point x="244" y="-135"/>
      <point x="262" y="-160"/>
      <point x="309" y="-160" type="curve" smooth="yes"/>
      <point x="323" y="-160"/>
      <point x="332" y="-158"/>
    </contour>
    <contour>
      <point x="531" y="-154" type="curve"/>
      <point x="523" y="-119"/>
      <point x="520" y="-82"/>
      <point x="520" y="-43" type="curve" smooth="yes"/>
      <point x="520" y="589" type="line" smooth="yes"/>
      <point x="520" y="624"/>
      <point x="491" y="641"/>
      <point x="437" y="641" type="curve" smooth="yes"/>
      <point x="431" y="641"/>
      <point x="426" y="641"/>
      <point x="423" y="641" type="curve"/>
      <point x="423" y="-80" type="line" smooth="yes"/>
      <point x="423" y="-134"/>
      <point x="442" y="-160"/>
      <point x="488" y="-160" type="curve" smooth="yes"/>
      <point x="505" y="-160"/>
      <point x="517" y="-158"/>
    </contour>
    <contour>
      <point x="369" y="710" type="line" smooth="yes"/>
      <point x="177" y="710"/>
      <point x="43" y="593"/>
      <point x="43" y="411" type="curve" smooth="yes"/>
      <point x="43" y="399" type="line" smooth="yes"/>
      <point x="43" y="280"/>
      <point x="108" y="205"/>
      <point x="218" y="205" type="curve" smooth="yes"/>
      <point x="227" y="205" type="line" smooth="yes"/>
      <point x="263" y="205"/>
      <point x="333" y="227"/>
      <point x="334" y="297" type="curve"/>
      <point x="321" y="297" type="line" smooth="yes"/>
      <point x="248" y="297"/>
      <point x="217" y="338"/>
      <point x="217" y="404" type="curve" smooth="yes"/>
      <point x="217" y="415" type="line" smooth="yes"/>
      <point x="217" y="525"/>
      <point x="264" y="603"/>
      <point x="364" y="603" type="curve" smooth="yes"/>
      <point x="447" y="603"/>
      <point x="500" y="594"/>
      <point x="561" y="563" type="curve"/>
      <point x="565" y="563" type="line"/>
      <point x="569" y="579"/>
      <point x="571" y="593"/>
      <point x="571" y="609" type="curve" smooth="yes"/>
      <point x="571" y="634"/>
      <point x="565" y="651"/>
      <point x="551" y="665" type="curve" smooth="yes"/>
      <point x="525" y="691"/>
      <point x="470" y="710"/>
      <point x="373" y="710" type="curve" smooth="yes"/>
    </contour>
  </outline>
</glyph>
<glyph name="guillemotright" format="1">
  <advance width="600"/>
  <unicode hex="00BB"/>
  <outline>
    <contour>
      <point x="274" y="96" type="line"/>
      <point x="298" y="88"/>
      <point x="314" y="85"/>
      <point x="343" y="85" type="curve" smooth="yes"/>
      <point x="373" y="85"/>
      <point x="389" y="89"/>
      <point x="408" y="103" type="curve" smooth="yes"/>
      <point x="470" y="149"/>
      <point x="511" y="197"/>
      <point x="559" y="275" type="curve"/>
      <point x="559" y="295" type="line"/>
      <point x="559" y="315"/>
      <point x="539" y="332"/>
      <point x="486" y="333" type="curve"/>
      <point x="433" y="235"/>
      <point x="384" y="180"/>
      <point x="274" y="100" type="curve"/>
    </contour>
    <contour>
      <point x="274" y="500" type="line"/>
      <point x="383" y="418"/>
      <point x="442" y="357"/>
      <point x="482" y="269" type="curve"/>
      <point x="543" y="278"/>
      <point x="559" y="280"/>
      <point x="559" y="291" type="curve"/>
      <point x="559" y="299" type="line" smooth="yes"/>
      <point x="559" y="324"/>
      <point x="553" y="341"/>
      <point x="530" y="375" type="curve" smooth="yes"/>
      <point x="481" y="444"/>
      <point x="448" y="474"/>
      <point x="417" y="494" type="curve"/>
      <point x="392" y="510"/>
      <point x="375" y="515"/>
      <point x="341" y="515" type="curve" smooth="yes"/>
      <point x="310" y="515"/>
      <point x="296" y="512"/>
      <point x="274" y="504" type="curve"/>
    </contour>
    <contour>
      <point x="41" y="96" type="line"/>
      <point x="65" y="88"/>
      <point x="81" y="85"/>
      <point x="109" y="85" type="curve" smooth="yes"/>
      <point x="139" y="85"/>
      <point x="155" y="89"/>
      <point x="175" y="103" type="curve" smooth="yes"/>
      <point x="236" y="149"/>
      <point x="278" y="197"/>
      <point x="325" y="275" type="curve"/>
      <point x="325" y="295" type="line"/>
      <point x="325" y="315"/>
      <point x="306" y="332"/>
      <point x="253" y="333" type="curve"/>
      <point x="200" y="235"/>
      <point x="151" y="180"/>
      <point x="41" y="100" type="curve"/>
    </contour>
    <contour>
      <point x="41" y="500" type="line"/>
      <point x="150" y="418"/>
      <point x="208" y="357"/>
      <point x="249" y="269" type="curve"/>
      <point x="309" y="278"/>
      <point x="325" y="280"/>
      <point x="325" y="291" type="curve"/>
      <point x="325" y="299" type="line" smooth="yes"/>
      <point x="325" y="324"/>
      <point x="319" y="341"/>
      <point x="296" y="375" type="curve" smooth="yes"/>
      <point x="248" y="444"/>
      <point x="214" y="474"/>
      <point x="183" y="494" type="curve"/>
      <point x="159" y="510"/>
      <point x="141" y="515"/>
      <point x="107" y="515" type="curve" smooth="yes"/>
      <point x="76" y="515"/>
      <point x="62" y="512"/>
      <point x="41" y="504" type="curve"/>
    </contour>
  </outline>
</glyph>
